SplineFontDB: 3.2
FontName: PPLXMonoBetav0VF
FullName: PPLX Mono Beta v0 VF
FamilyName: PPLX Mono Beta v0 VF
Weight: Black
Copyright: 
Version: 0.001;Glyphs 3.5 (3512)
ItalicAngle: 0
UnderlinePosition: -256
UnderlineWidth: 102.4
Ascent: 1638
Descent: 410
InvalidEm: 0
sfntRevision: 0x00000042
LayerCount: 2
Layer: 0 1 "Back" 1
Layer: 1 1 "Fore" 0
XUID: [1021 382 509860542 12964102]
StyleMap: 0x0040
FSType: 8
OS2Version: 4
OS2_WeightWidthSlopeOnly: 0
OS2_UseTypoMetrics: 1
CreationTime: 1768926843
ModificationTime: 1772995778
PfmFamily: 81
TTFWeight: 1000
TTFWidth: 5
LineGap: 0
VLineGap: 0
Panose: 0 0 0 0 0 0 0 0 0 0
OS2TypoAscent: 1987
OS2TypoAOffset: 0
OS2TypoDescent: -389
OS2TypoDOffset: 0
OS2TypoLinegap: 0
OS2WinAscent: 1987
OS2WinAOffset: 0
OS2WinDescent: 389
OS2WinDOffset: 0
HheadAscent: 1987
HheadAOffset: 0
HheadDescent: -389
HheadDOffset: 0
OS2SubXSize: 1331
OS2SubYSize: 1229
OS2SubXOff: 0
OS2SubYOff: 154
OS2SupXSize: 1331
OS2SupYSize: 1229
OS2SupXOff: 0
OS2SupYOff: 717
OS2StrikeYSize: 102
OS2StrikeYPos: 522
OS2CapHeight: 1444
OS2XHeight: 1055
OS2Vendor: 'UKWN'
OS2CodePages: 20000093.00000000
OS2UnicodeRanges: a100007f.4000a47b.00000000.00000000
Lookup: 1 0 0 "'aalt' Access All Alternates in Latin lookup 0" { "'aalt' Access All Alternates in Latin lookup 0 subtable"  } ['aalt' ('DFLT' <'dflt' > 'latn' <'AZE ' 'CAT ' 'CRT ' 'DEU ' 'KAZ ' 'MOL ' 'NLD ' 'ROM ' 'TAT ' 'TRK ' 'dflt' > ) ]
Lookup: 3 0 0 "'aalt' Access All Alternates in Latin lookup 1" { "'aalt' Access All Alternates in Latin lookup 1 subtable"  } ['aalt' ('DFLT' <'dflt' > 'latn' <'AZE ' 'CAT ' 'CRT ' 'DEU ' 'KAZ ' 'MOL ' 'NLD ' 'ROM ' 'TAT ' 'TRK ' 'dflt' > ) ]
Lookup: 6 16 0 "'ccmp' Glyph Composition/Decomposition in Latin lookup 2" { "'ccmp' Glyph Composition/Decomposition in Latin lookup 2 contextual 0"  "'ccmp' Glyph Composition/Decomposition in Latin lookup 2 contextual 1"  } ['ccmp' ('DFLT' <'dflt' > 'latn' <'AZE ' 'CAT ' 'CRT ' 'DEU ' 'KAZ ' 'MOL ' 'NLD ' 'ROM ' 'TAT ' 'TRK ' 'dflt' > ) ]

StartChar: .notdef
Encoding: 65536 -1 0
Width: 1228
GlyphClass: 1
Flags: W
LayerCount: 2
Fore
SplineSet
1229 -338 m 1,0,-1
 1229 1444 l 1,1,-1
 0 1444 l 1,2,-1
 0 -338 l 1,3,-1
 1229 -338 l 1,0,-1
135 -272 m 1,4,-1
 614 477 l 1,5,-1
 1094 -272 l 1,6,-1
 1192 -272 l 1,7,-1
 664 553 l 1,8,-1
 1192 1378 l 1,9,-1
 1094 1378 l 1,10,-1
 614 629 l 1,11,-1
 135 1378 l 1,12,-1
 37 1378 l 1,13,-1
 565 553 l 1,14,-1
 37 -272 l 1,15,-1
 135 -272 l 1,4,-1
82 1362 m 1,16,-1
 1147 1362 l 1,17,-1
 1147 -256 l 1,18,-1
 82 -256 l 1,19,-1
 82 1362 l 1,16,-1
EndSplineSet
EndChar

StartChar: A
Encoding: 65 65 3
Width: 1228
GlyphClass: 2
Flags: W
AnchorPoint: "Anchor-2" 1085 20 basechar 0
AnchorPoint: "Anchor-1" 614 1444 basechar 0
AnchorPoint: "Anchor-0" 614 0 basechar 0
LayerCount: 2
Fore
SplineSet
373 1444 m 1,0,-1
 856 1444 l 1,1,-1
 1208 0 l 1,2,-1
 815 0 l 1,3,-1
 668 903 l 2,4,5
 637 1085 637 1085 623 1194 c 1,6,-1
 606 1194 l 1,7,8
 592 1085 592 1085 561 903 c 2,9,-1
 414 0 l 1,10,-1
 20 0 l 1,11,-1
 373 1444 l 1,0,-1
297 578 m 1,12,-1
 932 578 l 1,13,-1
 932 311 l 1,14,-1
 297 311 l 1,15,-1
 297 578 l 1,12,-1
EndSplineSet
Substitution2: "Single Substitution lookup 35 subtable" ordfeminine
Substitution2: "'aalt' Access All Alternates in Latin lookup 0 subtable" ordfeminine
EndChar

StartChar: B
Encoding: 66 66 4
Width: 1228
GlyphClass: 2
Flags: W
AnchorPoint: "Anchor-1" 614 1444 basechar 0
AnchorPoint: "Anchor-0" 614 0 basechar 0
LayerCount: 2
Fore
SplineSet
129 1444 m 1,0,-1
 672 1444 l 2,1,2
 815 1444 815 1444 920.5 1398 c 128,-1,3
 1026 1352 1026 1352 1082.5 1266 c 128,-1,4
 1139 1180 1139 1180 1139 1061 c 0,5,6
 1139 946 1139 946 1077.5 869.5 c 128,-1,7
 1016 793 1016 793 905 766 c 1,8,-1
 905 750 l 1,9,10
 1032 730 1032 730 1105 638.5 c 128,-1,11
 1178 547 1178 547 1178 408 c 0,12,13
 1178 215 1178 215 1053 107.5 c 128,-1,14
 928 0 928 0 707 0 c 2,15,-1
 129 0 l 1,16,-1
 129 1444 l 1,0,-1
766 324 m 128,-1,18
 809 367 809 367 809 442 c 0,19,20
 809 516 809 516 767 559 c 128,-1,21
 725 602 725 602 651 602 c 2,22,-1
 465 602 l 1,23,-1
 465 866 l 1,24,-1
 625 866 l 2,25,26
 695 866 695 866 733.5 906 c 128,-1,27
 772 946 772 946 772 1016 c 0,28,29
 772 1084 772 1084 732 1123.5 c 128,-1,30
 692 1163 692 1163 625 1163 c 2,31,-1
 506 1163 l 1,32,-1
 506 281 l 1,33,-1
 651 281 l 2,34,17
 723 281 723 281 766 324 c 128,-1,18
EndSplineSet
EndChar

StartChar: C
Encoding: 67 67 5
Width: 1228
GlyphClass: 2
Flags: W
AnchorPoint: "Anchor-1" 643 1444 basechar 0
AnchorPoint: "Anchor-0" 614 0 basechar 0
LayerCount: 2
Fore
SplineSet
334 59.5 m 128,-1,1
 207 150 207 150 139.5 318.5 c 128,-1,2
 72 487 72 487 72 723 c 0,3,4
 72 956 72 956 139.5 1125 c 128,-1,5
 207 1294 207 1294 334 1384.5 c 128,-1,6
 461 1475 461 1475 637 1475 c 0,7,8
 793 1475 793 1475 913.5 1407 c 128,-1,9
 1034 1339 1034 1339 1104 1214.5 c 128,-1,10
 1174 1090 1174 1090 1182 922 c 1,11,-1
 801 922 l 1,12,13
 793 1022 793 1022 752 1076 c 128,-1,14
 711 1130 711 1130 643 1130 c 0,15,16
 545 1130 545 1130 501 1034 c 128,-1,17
 457 938 457 938 457 723 c 0,18,19
 457 506 457 506 501 409.5 c 128,-1,20
 545 313 545 313 643 313 c 0,21,22
 711 313 711 313 752 367.5 c 128,-1,23
 793 422 793 422 801 522 c 1,24,-1
 1182 522 l 1,25,26
 1174 354 1174 354 1104 229 c 128,-1,27
 1034 104 1034 104 913.5 36.5 c 128,-1,28
 793 -31 793 -31 637 -31 c 0,29,0
 461 -31 461 -31 334 59.5 c 128,-1,1
EndSplineSet
EndChar

StartChar: D
Encoding: 68 68 6
Width: 1228
GlyphClass: 2
Flags: W
AnchorPoint: "Anchor-1" 614 1444 basechar 0
AnchorPoint: "Anchor-0" 614 0 basechar 0
LayerCount: 2
Fore
SplineSet
106 1444 m 1,0,-1
 612 1444 l 2,1,2
 788 1444 788 1444 918.5 1356 c 128,-1,3
 1049 1268 1049 1268 1118.5 1105 c 128,-1,4
 1188 942 1188 942 1188 721 c 256,5,6
 1188 500 1188 500 1118.5 337 c 128,-1,7
 1049 174 1049 174 918.5 87 c 128,-1,8
 788 0 788 0 612 0 c 2,9,-1
 106 0 l 1,10,-1
 106 1444 l 1,0,-1
698.5 340 m 128,-1,12
 750 389 750 389 776.5 485.5 c 128,-1,13
 803 582 803 582 803 721 c 0,14,15
 803 862 803 862 777.5 958.5 c 128,-1,16
 752 1055 752 1055 700.5 1104 c 128,-1,17
 649 1153 649 1153 573 1153 c 2,18,-1
 483 1153 l 1,19,-1
 483 291 l 1,20,-1
 573 291 l 2,21,11
 647 291 647 291 698.5 340 c 128,-1,12
EndSplineSet
EndChar

StartChar: E
Encoding: 69 69 7
Width: 1228
GlyphClass: 2
Flags: W
AnchorPoint: "Anchor-2" 942 0 basechar 0
AnchorPoint: "Anchor-1" 614 1444 basechar 0
AnchorPoint: "Anchor-0" 614 0 basechar 0
LayerCount: 2
Fore
SplineSet
172 1444 m 1,0,-1
 549 1239 l 1,1,-1
 549 205 l 1,2,-1
 172 0 l 1,3,-1
 172 1444 l 1,0,-1
377 315 m 1,4,-1
 1094 315 l 1,5,-1
 1094 0 l 1,6,-1
 172 0 l 1,7,-1
 377 315 l 1,4,-1
377 881 m 1,8,-1
 1047 881 l 1,9,-1
 1047 578 l 1,10,-1
 377 578 l 1,11,-1
 377 881 l 1,8,-1
172 1444 m 1,12,-1
 1094 1444 l 1,13,-1
 1094 1128 l 1,14,-1
 377 1128 l 1,15,-1
 172 1444 l 1,12,-1
EndSplineSet
EndChar

StartChar: F
Encoding: 70 70 8
Width: 1228
GlyphClass: 2
Flags: W
AnchorPoint: "Anchor-1" 614 1444 basechar 0
AnchorPoint: "Anchor-0" 614 0 basechar 0
LayerCount: 2
Fore
SplineSet
176 1444 m 1,0,-1
 553 1239 l 1,1,-1
 553 0 l 1,2,-1
 176 0 l 1,3,-1
 176 1444 l 1,0,-1
381 801 m 1,4,-1
 1061 801 l 1,5,-1
 1061 481 l 1,6,-1
 381 481 l 1,7,-1
 381 801 l 1,4,-1
176 1444 m 1,8,-1
 1108 1444 l 1,9,-1
 1108 1114 l 1,10,-1
 381 1114 l 1,11,-1
 176 1444 l 1,8,-1
EndSplineSet
EndChar

StartChar: G
Encoding: 71 71 9
Width: 1228
GlyphClass: 2
Flags: W
AnchorPoint: "Anchor-1" 639 1444 basechar 0
AnchorPoint: "Anchor-0" 639 0 basechar 0
LayerCount: 2
Fore
SplineSet
278.5 55 m 128,-1,1
 172 141 172 141 116.5 310 c 128,-1,2
 61 479 61 479 61 723 c 0,3,4
 61 969 61 969 127 1137 c 128,-1,5
 193 1305 193 1305 322 1390 c 128,-1,6
 451 1475 451 1475 639 1475 c 0,7,8
 791 1475 791 1475 907.5 1417.5 c 128,-1,9
 1024 1360 1024 1360 1091.5 1253.5 c 128,-1,10
 1159 1147 1159 1147 1167 1004 c 1,11,-1
 784 1004 l 1,12,13
 782 1051 782 1051 762.5 1086.5 c 128,-1,14
 743 1122 743 1122 711.5 1141.5 c 128,-1,15
 680 1161 680 1161 639 1161 c 0,16,17
 537 1161 537 1161 491.5 1057.5 c 128,-1,18
 446 954 446 954 446 723 c 256,19,20
 446 492 446 492 497.5 387.5 c 128,-1,21
 549 283 549 283 664 283 c 0,22,23
 744 283 744 283 794 347.5 c 128,-1,24
 844 412 844 412 852 528 c 1,25,-1
 643 528 l 1,26,-1
 643 813 l 1,27,-1
 1155 813 l 1,28,-1
 1155 0 l 1,29,-1
 864 0 l 1,30,-1
 864 193 l 1,31,-1
 848 193 l 1,32,33
 809 80 809 80 732 24.5 c 128,-1,34
 655 -31 655 -31 541 -31 c 0,35,0
 385 -31 385 -31 278.5 55 c 128,-1,1
EndSplineSet
EndChar

StartChar: H
Encoding: 72 72 10
Width: 1228
GlyphClass: 2
Flags: W
AnchorPoint: "Anchor-1" 614 1444 basechar 0
AnchorPoint: "Anchor-0" 614 0 basechar 0
LayerCount: 2
Fore
SplineSet
98 1444 m 1,0,-1
 475 1444 l 1,1,-1
 475 891 l 1,2,-1
 754 891 l 1,3,-1
 754 1444 l 1,4,-1
 1130 1444 l 1,5,-1
 1130 0 l 1,6,-1
 754 0 l 1,7,-1
 754 561 l 1,8,-1
 475 561 l 1,9,-1
 475 0 l 1,10,-1
 98 0 l 1,11,-1
 98 1444 l 1,0,-1
EndSplineSet
EndChar

StartChar: I
Encoding: 73 73 11
Width: 1228
GlyphClass: 2
Flags: W
AnchorPoint: "Anchor-2" 868 0 basechar 0
AnchorPoint: "Anchor-1" 614 1444 basechar 0
AnchorPoint: "Anchor-0" 614 0 basechar 0
LayerCount: 2
Fore
SplineSet
426 1341 m 1,0,-1
 803 1341 l 1,1,-1
 803 102 l 1,2,-1
 426 102 l 1,3,-1
 426 1341 l 1,0,-1
160 315 m 1,4,-1
 1069 315 l 1,5,-1
 1069 0 l 1,6,-1
 160 0 l 1,7,-1
 160 315 l 1,4,-1
160 1444 m 1,8,-1
 1069 1444 l 1,9,-1
 1069 1128 l 1,10,-1
 160 1128 l 1,11,-1
 160 1444 l 1,8,-1
EndSplineSet
EndChar

StartChar: J
Encoding: 74 74 12
Width: 1228
GlyphClass: 2
Flags: W
AnchorPoint: "Anchor-1" 655 1444 basechar 0
AnchorPoint: "Anchor-0" 614 0 basechar 0
LayerCount: 2
Fore
SplineSet
329.5 25.5 m 128,-1,1
 217 82 217 82 155.5 186.5 c 128,-1,2
 94 291 94 291 94 430 c 2,3,-1
 94 604 l 1,4,-1
 455 604 l 1,5,-1
 455 457 l 2,6,7
 455 394 455 394 489.5 355.5 c 128,-1,8
 524 317 524 317 584 317 c 256,9,10
 643 317 643 317 679 355 c 128,-1,11
 715 393 715 393 715 457 c 2,12,-1
 715 1126 l 1,13,-1
 715 1444 l 1,14,-1
 1092 1444 l 1,15,-1
 1092 430 l 2,16,17
 1092 291 1092 291 1030.5 186.5 c 128,-1,18
 969 82 969 82 855 25.5 c 128,-1,19
 741 -31 741 -31 592 -31 c 256,20,0
 442 -31 442 -31 329.5 25.5 c 128,-1,1
EndSplineSet
Substitution2: "Single Substitution lookup 33 subtable" uni004A0301
Substitution2: "'aalt' Access All Alternates in Latin lookup 0 subtable" uni004A0301
EndChar

StartChar: K
Encoding: 75 75 13
Width: 1228
GlyphClass: 2
Flags: W
AnchorPoint: "Anchor-1" 614 1444 basechar 0
AnchorPoint: "Anchor-0" 614 0 basechar 0
LayerCount: 2
Fore
SplineSet
102 1444 m 1,0,-1
 475 1444 l 1,1,-1
 475 1116 l 2,2,3
 475 981 475 981 467 887 c 1,4,-1
 483 887 l 1,5,-1
 788 1444 l 1,6,-1
 1219 1444 l 1,7,-1
 743 727 l 1,8,-1
 770 1018 l 1,9,-1
 1208 0 l 1,10,-1
 803 0 l 1,11,-1
 518 756 l 1,12,-1
 666 737 l 1,13,-1
 475 453 l 1,14,-1
 475 0 l 1,15,-1
 102 0 l 1,16,-1
 102 1444 l 1,0,-1
EndSplineSet
EndChar

StartChar: L
Encoding: 76 76 14
Width: 1228
GlyphClass: 2
Flags: W
AnchorPoint: "Anchor-1" 389 1444 basechar 0
AnchorPoint: "Anchor-0" 614 0 basechar 0
LayerCount: 2
Fore
SplineSet
201 1444 m 1,0,-1
 578 1444 l 1,1,-1
 578 184 l 1,2,-1
 201 0 l 1,3,-1
 201 1444 l 1,0,-1
406 330 m 1,4,-1
 1143 330 l 1,5,-1
 1143 0 l 1,6,-1
 201 0 l 1,7,-1
 406 330 l 1,4,-1
EndSplineSet
EndChar

StartChar: M
Encoding: 77 77 15
Width: 1228
GlyphClass: 2
Flags: W
AnchorPoint: "Anchor-1" 614 1444 basechar 0
AnchorPoint: "Anchor-0" 614 0 basechar 0
LayerCount: 2
Fore
SplineSet
72 1444 m 1,0,-1
 530 1444 l 1,1,-1
 580 1004 l 2,2,3
 590 910 590 910 596 830 c 128,-1,4
 602 750 602 750 604 672 c 1,5,-1
 625 672 l 1,6,7
 629 799 629 799 637 872 c 0,8,9
 639 929 639 929 649 1004 c 2,10,-1
 698 1444 l 1,11,-1
 1157 1444 l 1,12,-1
 1157 0 l 1,13,-1
 866 0 l 1,14,-1
 866 791 l 2,15,16
 866 881 866 881 868 954.5 c 128,-1,17
 870 1028 870 1028 879 1116 c 1,18,-1
 858 1116 l 1,19,20
 842 993 842 993 825 868 c 2,21,-1
 748 324 l 1,22,-1
 481 324 l 1,23,-1
 403 868 l 2,24,25
 387 993 387 993 371 1116 c 1,26,-1
 350 1116 l 1,27,28
 356 1042 356 1042 359 977.5 c 128,-1,29
 362 913 362 913 362 844 c 0,30,31
 362 817 362 817 362 791 c 2,32,-1
 362 0 l 1,33,-1
 72 0 l 1,34,-1
 72 1444 l 1,0,-1
EndSplineSet
EndChar

StartChar: N
Encoding: 78 78 16
Width: 1228
GlyphClass: 2
Flags: W
AnchorPoint: "Anchor-1" 614 1444 basechar 0
AnchorPoint: "Anchor-0" 614 0 basechar 0
LayerCount: 2
Fore
SplineSet
98 1444 m 1,0,-1
 489 1444 l 1,1,-1
 721 823 l 2,2,3
 772 686 772 686 829 430 c 1,4,-1
 846 430 l 1,5,6
 819 661 819 661 819 815 c 2,7,-1
 819 1444 l 1,8,-1
 1130 1444 l 1,9,-1
 1130 0 l 1,10,-1
 739 0 l 1,11,-1
 508 621 l 2,12,13
 457 758 457 758 399 1014 c 1,14,-1
 383 1014 l 1,15,16
 410 783 410 783 410 629 c 2,17,-1
 410 0 l 1,18,-1
 98 0 l 1,19,-1
 98 1444 l 1,0,-1
EndSplineSet
EndChar

StartChar: O
Encoding: 79 79 17
Width: 1228
GlyphClass: 2
Flags: W
AnchorPoint: "Anchor-2" 1106 0 basechar 0
AnchorPoint: "Anchor-1" 614 1444 basechar 0
AnchorPoint: "Anchor-0" 614 0 basechar 0
LayerCount: 2
Fore
SplineSet
306 58 m 128,-1,1
 178 147 178 147 109.5 317 c 128,-1,2
 41 487 41 487 41 723 c 256,3,4
 41 959 41 959 109.5 1127.5 c 128,-1,5
 178 1296 178 1296 307 1385.5 c 128,-1,6
 436 1475 436 1475 614 1475 c 256,7,8
 792 1475 792 1475 921.5 1385.5 c 128,-1,9
 1051 1296 1051 1296 1119.5 1127 c 128,-1,10
 1188 958 1188 958 1188 723 c 256,11,12
 1188 487 1188 487 1119.5 317 c 128,-1,13
 1051 147 1051 147 923 58 c 128,-1,14
 795 -31 795 -31 614 -31 c 256,15,0
 434 -31 434 -31 306 58 c 128,-1,1
759 409.5 m 128,-1,17
 803 506 803 506 803 723 c 0,18,19
 803 938 803 938 759 1034 c 128,-1,20
 715 1130 715 1130 614 1130 c 256,21,22
 514 1130 514 1130 470 1034 c 128,-1,23
 426 938 426 938 426 723 c 0,24,25
 426 506 426 506 470 409.5 c 128,-1,26
 514 313 514 313 614 313 c 256,27,16
 715 313 715 313 759 409.5 c 128,-1,17
EndSplineSet
Substitution2: "Single Substitution lookup 35 subtable" ordmasculine
Substitution2: "'aalt' Access All Alternates in Latin lookup 0 subtable" ordmasculine
EndChar

StartChar: P
Encoding: 80 80 18
Width: 1228
GlyphClass: 2
Flags: W
AnchorPoint: "Anchor-1" 614 1444 basechar 0
AnchorPoint: "Anchor-0" 614 0 basechar 0
LayerCount: 2
Fore
SplineSet
113 1444 m 1,0,-1
 653 1444 l 2,1,2
 813 1444 813 1444 932 1385.5 c 128,-1,3
 1051 1327 1051 1327 1114.5 1218.5 c 128,-1,4
 1178 1110 1178 1110 1178 963 c 0,5,6
 1178 813 1178 813 1114.5 700.5 c 128,-1,7
 1051 588 1051 588 932 527.5 c 128,-1,8
 813 467 813 467 653 467 c 2,9,-1
 457 467 l 1,10,-1
 457 758 l 1,11,-1
 616 758 l 2,12,13
 704 758 704 758 753.5 810 c 128,-1,14
 803 862 803 862 803 956 c 0,15,16
 803 1046 803 1046 751.5 1099.5 c 128,-1,17
 700 1153 700 1153 616 1153 c 2,18,-1
 489 1153 l 1,19,-1
 489 0 l 1,20,-1
 113 0 l 1,21,-1
 113 1444 l 1,0,-1
EndSplineSet
EndChar

StartChar: Q
Encoding: 81 81 19
Width: 1228
GlyphClass: 2
Flags: W
AnchorPoint: "Anchor-1" 614 1444 basechar 0
AnchorPoint: "Anchor-0" 614 0 basechar 0
LayerCount: 2
Fore
SplineSet
530 156 m 1,0,-1
 758 356 l 1,1,-1
 1192 -170 l 1,2,-1
 764 -170 l 1,3,-1
 530 156 l 1,0,-1
306 58 m 128,-1,5
 178 147 178 147 109.5 317 c 128,-1,6
 41 487 41 487 41 723 c 256,7,8
 41 959 41 959 109.5 1127.5 c 128,-1,9
 178 1296 178 1296 307 1385.5 c 128,-1,10
 436 1475 436 1475 614 1475 c 256,11,12
 792 1475 792 1475 921.5 1385.5 c 128,-1,13
 1051 1296 1051 1296 1119.5 1127 c 128,-1,14
 1188 958 1188 958 1188 723 c 256,15,16
 1188 487 1188 487 1119.5 317 c 128,-1,17
 1051 147 1051 147 923 58 c 128,-1,18
 795 -31 795 -31 614 -31 c 256,19,4
 434 -31 434 -31 306 58 c 128,-1,5
759 409.5 m 128,-1,21
 803 506 803 506 803 723 c 0,22,23
 803 938 803 938 759 1034 c 128,-1,24
 715 1130 715 1130 614 1130 c 256,25,26
 514 1130 514 1130 470 1034 c 128,-1,27
 426 938 426 938 426 723 c 0,28,29
 426 506 426 506 470 409.5 c 128,-1,30
 514 313 514 313 614 313 c 256,31,20
 715 313 715 313 759 409.5 c 128,-1,21
EndSplineSet
Substitution2: "'ss04' Style Set 4 in Latin lookup 27 subtable" Q.ss04
Substitution2: "'aalt' Access All Alternates in Latin lookup 0 subtable" Q.ss04
EndChar

StartChar: R
Encoding: 82 82 20
Width: 1228
GlyphClass: 2
Flags: W
AnchorPoint: "Anchor-1" 614 1444 basechar 0
AnchorPoint: "Anchor-0" 614 0 basechar 0
LayerCount: 2
Fore
SplineSet
96 1444 m 1,0,-1
 649 1444 l 2,1,2
 874 1444 874 1444 996 1336.5 c 128,-1,3
 1118 1229 1118 1229 1118 1030 c 0,4,5
 1118 893 1118 893 1053.5 801 c 128,-1,6
 989 709 989 709 870 678 c 1,7,-1
 870 662 l 1,8,9
 972 652 972 652 1029.5 589 c 128,-1,10
 1087 526 1087 526 1102 410 c 2,11,-1
 1133 164 l 2,12,13
 1147 82 1147 82 1161 0 c 1,14,-1
 786 0 l 1,15,16
 782 16 782 16 778 33.5 c 128,-1,17
 774 51 774 51 770 72 c 0,18,19
 766 109 766 109 762 143 c 2,20,-1
 743 348 l 2,21,22
 735 430 735 430 698.5 468 c 128,-1,23
 662 506 662 506 588 506 c 2,24,-1
 440 506 l 1,25,-1
 440 795 l 1,26,-1
 567 795 l 2,27,28
 663 795 663 795 709.5 839 c 128,-1,29
 756 883 756 883 756 975 c 0,30,31
 756 1065 756 1065 710 1109 c 128,-1,32
 664 1153 664 1153 567 1153 c 2,33,-1
 473 1153 l 1,34,-1
 473 0 l 1,35,-1
 96 0 l 1,36,-1
 96 1444 l 1,0,-1
EndSplineSet
EndChar

StartChar: S
Encoding: 83 83 21
Width: 1228
GlyphClass: 2
Flags: W
AnchorPoint: "Anchor-1" 614 1444 basechar 0
AnchorPoint: "Anchor-0" 614 0 basechar 0
LayerCount: 2
Fore
SplineSet
333 25.5 m 128,-1,1
 209 82 209 82 138.5 186.5 c 128,-1,2
 68 291 68 291 61 430 c 1,3,-1
 451 430 l 1,4,5
 457 354 457 354 507 310 c 128,-1,6
 557 266 557 266 635 266 c 0,7,8
 701 266 701 266 738.5 302 c 128,-1,9
 776 338 776 338 776 401 c 0,10,11
 776 456 776 456 748.5 490 c 128,-1,12
 721 524 721 524 662 541 c 2,13,-1
 408 614 l 2,14,15
 254 657 254 657 172 762.5 c 128,-1,16
 90 868 90 868 90 1024 c 0,17,18
 90 1155 90 1155 155.5 1257.5 c 128,-1,19
 221 1360 221 1360 338 1417.5 c 128,-1,20
 455 1475 455 1475 606 1475 c 0,21,22
 856 1475 856 1475 1005.5 1353 c 128,-1,23
 1155 1231 1155 1231 1165 1018 c 1,24,-1
 776 1018 l 1,25,26
 772 1096 772 1096 730 1137 c 128,-1,27
 688 1178 688 1178 616 1178 c 0,28,29
 555 1178 555 1178 516 1143 c 128,-1,30
 477 1108 477 1108 477 1053 c 0,31,32
 477 1020 477 1020 488.5 997.5 c 128,-1,33
 500 975 500 975 523.5 959.5 c 128,-1,34
 547 944 547 944 588 932 c 2,35,-1
 842 856 l 2,36,37
 1006 809 1006 809 1084.5 706.5 c 128,-1,38
 1163 604 1163 604 1163 442 c 0,39,40
 1163 303 1163 303 1094.5 195.5 c 128,-1,41
 1026 88 1026 88 902 28.5 c 128,-1,42
 778 -31 778 -31 616 -31 c 0,43,0
 457 -31 457 -31 333 25.5 c 128,-1,1
EndSplineSet
EndChar

StartChar: T
Encoding: 84 84 22
Width: 1228
GlyphClass: 2
Flags: W
AnchorPoint: "Anchor-1" 614 1444 basechar 0
AnchorPoint: "Anchor-0" 614 0 basechar 0
LayerCount: 2
Fore
SplineSet
426 1280 m 1,0,-1
 803 1280 l 1,1,-1
 803 0 l 1,2,-1
 426 0 l 1,3,-1
 426 1280 l 1,0,-1
43 1444 m 1,4,-1
 1186 1444 l 1,5,-1
 1186 1126 l 1,6,-1
 43 1126 l 1,7,-1
 43 1444 l 1,4,-1
EndSplineSet
EndChar

StartChar: U
Encoding: 85 85 23
Width: 1228
GlyphClass: 2
Flags: W
AnchorPoint: "Anchor-2" 819 0 basechar 0
AnchorPoint: "Anchor-1" 614 1444 basechar 0
AnchorPoint: "Anchor-0" 614 0 basechar 0
LayerCount: 2
Fore
SplineSet
233.5 109.5 m 128,-1,1
 98 250 98 250 98 504 c 2,2,-1
 98 1444 l 1,3,-1
 483 1444 l 1,4,-1
 483 520 l 2,5,6
 483 418 483 418 514 374 c 128,-1,7
 545 330 545 330 614 330 c 256,8,9
 684 330 684 330 714.5 374 c 128,-1,10
 745 418 745 418 745 520 c 2,11,-1
 745 1444 l 1,12,-1
 1130 1444 l 1,13,-1
 1130 504 l 2,14,15
 1130 250 1130 250 995 109.5 c 128,-1,16
 860 -31 860 -31 614 -31 c 256,17,0
 369 -31 369 -31 233.5 109.5 c 128,-1,1
EndSplineSet
EndChar

StartChar: V
Encoding: 86 86 24
Width: 1228
GlyphClass: 2
Flags: W
AnchorPoint: "Anchor-1" 614 1444 basechar 0
AnchorPoint: "Anchor-0" 614 0 basechar 0
LayerCount: 2
Fore
SplineSet
20 1444 m 1,0,-1
 416 1444 l 1,1,-1
 561 645 l 2,2,3
 596 448 596 448 606 362 c 1,4,-1
 623 362 l 1,5,6
 633 448 633 448 668 645 c 2,7,-1
 813 1444 l 1,8,-1
 1208 1444 l 1,9,-1
 856 0 l 1,10,-1
 371 0 l 1,11,-1
 20 1444 l 1,0,-1
EndSplineSet
EndChar

StartChar: W
Encoding: 87 87 25
Width: 1228
GlyphClass: 2
Flags: W
AnchorPoint: "Anchor-1" 614 1444 basechar 0
AnchorPoint: "Anchor-0" 614 0 basechar 0
LayerCount: 2
Fore
SplineSet
20 1444 m 1,0,-1
 334 1444 l 1,1,-1
 362 643 l 2,2,3
 366 541 366 541 371 358 c 1,4,-1
 391 358 l 1,5,6
 395 417 395 417 400.5 471.5 c 128,-1,7
 406 526 406 526 410 575 c 0,8,9
 414 610 414 610 416 643 c 2,10,-1
 465 1120 l 1,11,-1
 764 1120 l 1,12,-1
 813 643 l 2,13,14
 817 606 817 606 817 590 c 0,15,16
 823 537 823 537 828.5 478.5 c 128,-1,17
 834 420 834 420 836 358 c 1,18,-1
 856 358 l 1,19,20
 860 440 860 440 862 522 c 0,21,22
 862 565 862 565 866 643 c 2,23,-1
 895 1444 l 1,24,-1
 1208 1444 l 1,25,-1
 1081 0 l 1,26,-1
 688 0 l 1,27,-1
 647 428 l 2,28,29
 643 467 643 467 639 506 c 0,30,31
 629 633 629 633 625 731 c 1,32,-1
 604 731 l 1,33,34
 600 620 600 620 582 428 c 2,35,-1
 539 0 l 1,36,-1
 145 0 l 1,37,-1
 20 1444 l 1,0,-1
EndSplineSet
EndChar

StartChar: X
Encoding: 88 88 26
Width: 1228
GlyphClass: 2
Flags: W
AnchorPoint: "Anchor-1" 614 1444 basechar 0
AnchorPoint: "Anchor-0" 614 0 basechar 0
LayerCount: 2
Fore
SplineSet
369 731 m 1,0,-1
 16 1444 l 1,1,-1
 408 1444 l 1,2,-1
 557 1098 l 2,3,4
 594 1016 594 1016 606 948 c 1,5,-1
 623 948 l 1,6,7
 635 1016 635 1016 672 1098 c 2,8,-1
 821 1444 l 1,9,-1
 1212 1444 l 1,10,-1
 860 731 l 1,11,-1
 1221 0 l 1,12,-1
 829 0 l 1,13,-1
 670 373 l 2,14,15
 635 451 635 451 623 514 c 1,16,-1
 606 514 l 1,17,18
 594 451 594 451 559 373 c 2,19,-1
 399 0 l 1,20,-1
 8 0 l 1,21,-1
 369 731 l 1,0,-1
EndSplineSet
EndChar

StartChar: Y
Encoding: 89 89 27
Width: 1228
GlyphClass: 2
Flags: W
AnchorPoint: "Anchor-1" 614 1444 basechar 0
AnchorPoint: "Anchor-0" 614 0 basechar 0
LayerCount: 2
Fore
SplineSet
426 494 m 1,0,-1
 20 1444 l 1,1,-1
 430 1444 l 1,2,-1
 547 1042 l 2,3,4
 598 866 598 866 606 774 c 1,5,-1
 623 774 l 1,6,7
 625 801 625 801 637 868 c 0,8,9
 647 915 647 915 682 1042 c 2,10,-1
 799 1444 l 1,11,-1
 1208 1444 l 1,12,-1
 803 494 l 1,13,-1
 803 0 l 1,14,-1
 426 0 l 1,15,-1
 426 494 l 1,0,-1
EndSplineSet
EndChar

StartChar: Z
Encoding: 90 90 28
Width: 1228
GlyphClass: 2
Flags: W
AnchorPoint: "Anchor-1" 614 1444 basechar 0
AnchorPoint: "Anchor-0" 614 0 basechar 0
LayerCount: 2
Fore
SplineSet
98 317 m 1,0,-1
 696 1120 l 1,1,-1
 696 1137 l 1,2,3
 579 1127 579 1127 432 1126 c 2,4,-1
 127 1126 l 1,5,-1
 127 1444 l 1,6,-1
 1120 1444 l 1,7,-1
 1120 1122 l 1,8,-1
 528 324 l 1,9,-1
 528 307 l 1,10,11
 659 317 659 317 825 317 c 2,12,-1
 1163 317 l 1,13,-1
 1163 0 l 1,14,-1
 98 0 l 1,15,-1
 98 317 l 1,0,-1
EndSplineSet
EndChar

StartChar: AE
Encoding: 198 198 34
Width: 1228
GlyphClass: 2
Flags: W
AnchorPoint: "Anchor-1" 737 1444 basechar 0
LayerCount: 2
Fore
SplineSet
338 1444 m 1,0,-1
 641 1444 l 1,1,-1
 586 1192 l 1,2,-1
 569 1192 l 1,3,4
 565 1137 565 1137 556 1073.5 c 128,-1,5
 547 1010 547 1010 537 954 c 0,6,7
 535 938 535 938 530 922 c 2,8,-1
 369 0 l 1,9,-1
 0 0 l 1,10,-1
 338 1444 l 1,0,-1
729 315 m 1,11,-1
 1180 315 l 1,12,-1
 1180 0 l 1,13,-1
 729 0 l 1,14,-1
 729 315 l 1,11,-1
317 578 m 1,15,-1
 709 578 l 1,16,-1
 709 311 l 1,17,-1
 317 311 l 1,18,-1
 317 578 l 1,15,-1
586 1444 m 1,19,-1
 903 1444 l 1,20,-1
 903 0 l 1,21,-1
 586 0 l 1,22,-1
 586 1444 l 1,19,-1
729 893 m 1,23,-1
 1149 893 l 1,24,-1
 1149 578 l 1,25,-1
 729 578 l 1,26,-1
 729 893 l 1,23,-1
709 1444 m 1,27,-1
 1180 1444 l 1,28,-1
 1180 1128 l 1,29,-1
 709 1128 l 1,30,-1
 709 1444 l 1,27,-1
EndSplineSet
EndChar

StartChar: Dcroat
Encoding: 272 272 47
Width: 1228
GlyphClass: 2
Flags: W
AnchorPoint: "Anchor-1" 614 1444 basechar 0
AnchorPoint: "Anchor-0" 614 0 basechar 0
LayerCount: 2
Fore
SplineSet
106 1444 m 1,0,-1
 612 1444 l 2,1,2
 788 1444 788 1444 918.5 1356 c 128,-1,3
 1049 1268 1049 1268 1118.5 1105 c 128,-1,4
 1188 942 1188 942 1188 721 c 256,5,6
 1188 500 1188 500 1118.5 337 c 128,-1,7
 1049 174 1049 174 918.5 87 c 128,-1,8
 788 0 788 0 612 0 c 2,9,-1
 106 0 l 1,10,-1
 106 1444 l 1,0,-1
698.5 340 m 128,-1,12
 750 389 750 389 776.5 485.5 c 128,-1,13
 803 582 803 582 803 721 c 0,14,15
 803 862 803 862 777.5 958.5 c 128,-1,16
 752 1055 752 1055 700.5 1104 c 128,-1,17
 649 1153 649 1153 573 1153 c 2,18,-1
 483 1153 l 1,19,-1
 483 291 l 1,20,-1
 573 291 l 2,21,11
 647 291 647 291 698.5 340 c 128,-1,12
6 836 m 1,22,-1
 723 836 l 1,23,-1
 723 612 l 1,24,-1
 6 612 l 1,25,-1
 6 836 l 1,22,-1
EndSplineSet
EndChar

StartChar: Eth
Encoding: 208 208 59
Width: 1228
GlyphClass: 2
Flags: W
AnchorPoint: "Anchor-1" 614 1444 basechar 0
AnchorPoint: "Anchor-0" 614 0 basechar 0
LayerCount: 2
Fore
SplineSet
106 1444 m 1,0,-1
 612 1444 l 2,1,2
 788 1444 788 1444 918.5 1356 c 128,-1,3
 1049 1268 1049 1268 1118.5 1105 c 128,-1,4
 1188 942 1188 942 1188 721 c 256,5,6
 1188 500 1188 500 1118.5 337 c 128,-1,7
 1049 174 1049 174 918.5 87 c 128,-1,8
 788 0 788 0 612 0 c 2,9,-1
 106 0 l 1,10,-1
 106 1444 l 1,0,-1
698.5 340 m 128,-1,12
 750 389 750 389 776.5 485.5 c 128,-1,13
 803 582 803 582 803 721 c 0,14,15
 803 862 803 862 777.5 958.5 c 128,-1,16
 752 1055 752 1055 700.5 1104 c 128,-1,17
 649 1153 649 1153 573 1153 c 2,18,-1
 483 1153 l 1,19,-1
 483 291 l 1,20,-1
 573 291 l 2,21,11
 647 291 647 291 698.5 340 c 128,-1,12
6 836 m 1,22,-1
 723 836 l 1,23,-1
 723 612 l 1,24,-1
 6 612 l 1,25,-1
 6 836 l 1,22,-1
EndSplineSet
EndChar

StartChar: Hbar
Encoding: 294 294 65
Width: 1228
GlyphClass: 2
Flags: W
AnchorPoint: "Anchor-1" 614 1444 basechar 0
AnchorPoint: "Anchor-0" 614 0 basechar 0
LayerCount: 2
Fore
SplineSet
98 1444 m 1,0,-1
 475 1444 l 1,1,-1
 475 891 l 1,2,-1
 754 891 l 1,3,-1
 754 1444 l 1,4,-1
 1130 1444 l 1,5,-1
 1130 0 l 1,6,-1
 754 0 l 1,7,-1
 754 561 l 1,8,-1
 475 561 l 1,9,-1
 475 0 l 1,10,-1
 98 0 l 1,11,-1
 98 1444 l 1,0,-1
0 1243 m 1,12,-1
 1229 1243 l 1,13,-1
 1229 1038 l 1,14,-1
 0 1038 l 1,15,-1
 0 1243 l 1,12,-1
EndSplineSet
EndChar

StartChar: Lcaron
Encoding: 317 317 82
Width: 1228
GlyphClass: 2
Flags: W
AnchorPoint: "Anchor-1" 389 1444 basechar 0
AnchorPoint: "Anchor-0" 614 0 basechar 0
LayerCount: 2
Fore
SplineSet
201 1444 m 1,0,-1
 578 1444 l 1,1,-1
 578 184 l 1,2,-1
 201 0 l 1,3,-1
 201 1444 l 1,0,-1
406 330 m 1,4,-1
 1143 330 l 1,5,-1
 1143 0 l 1,6,-1
 201 0 l 1,7,-1
 406 330 l 1,4,-1
829 1444 m 1,8,-1
 1161 1444 l 1,9,-1
 1034 1116 l 1,10,-1
 758 1116 l 1,11,-1
 829 1444 l 1,8,-1
EndSplineSet
EndChar

StartChar: Ldot
Encoding: 319 319 84
Width: 1228
GlyphClass: 2
Flags: W
AnchorPoint: "Anchor-1" 389 1444 basechar 0
AnchorPoint: "Anchor-0" 614 0 basechar 0
LayerCount: 2
Fore
SplineSet
201 1444 m 1,0,-1
 578 1444 l 1,1,-1
 578 184 l 1,2,-1
 201 0 l 1,3,-1
 201 1444 l 1,0,-1
406 330 m 1,4,-1
 1143 330 l 1,5,-1
 1143 0 l 1,6,-1
 201 0 l 1,7,-1
 406 330 l 1,4,-1
736.5 655.5 m 128,-1,9
 678 711 678 711 678 803 c 0,10,11
 678 897 678 897 736.5 951.5 c 128,-1,12
 795 1006 795 1006 881 1006 c 256,13,14
 967 1006 967 1006 1025 951.5 c 128,-1,15
 1083 897 1083 897 1083 803 c 0,16,17
 1083 711 1083 711 1025 655.5 c 128,-1,18
 967 600 967 600 881 600 c 256,19,8
 795 600 795 600 736.5 655.5 c 128,-1,9
EndSplineSet
Ligature2: "Ligature Substitution lookup 32 subtable" L periodcentered
Substitution2: "'ss06' Style Set 6 in Latin lookup 28 subtable" Ldot.ss06
Substitution2: "'aalt' Access All Alternates in Latin lookup 0 subtable" Ldot.ss06
EndChar

StartChar: Lslash
Encoding: 321 321 85
Width: 1228
GlyphClass: 2
Flags: W
AnchorPoint: "Anchor-1" 389 1444 basechar 0
AnchorPoint: "Anchor-0" 614 0 basechar 0
LayerCount: 2
Fore
SplineSet
201 1444 m 1,0,-1
 578 1444 l 1,1,-1
 578 184 l 1,2,-1
 201 0 l 1,3,-1
 201 1444 l 1,0,-1
406 330 m 1,4,-1
 1143 330 l 1,5,-1
 1143 0 l 1,6,-1
 201 0 l 1,7,-1
 406 330 l 1,4,-1
31 711 m 1,8,-1
 952 975 l 1,9,-1
 952 717 l 1,10,-1
 31 451 l 1,11,-1
 31 711 l 1,8,-1
EndSplineSet
EndChar

StartChar: Eng
Encoding: 330 330 90
Width: 1228
GlyphClass: 2
Flags: W
AnchorPoint: "Anchor-1" 614 1444 basechar 0
AnchorPoint: "Anchor-0" 614 0 basechar 0
LayerCount: 2
Fore
SplineSet
98 1444 m 1,0,-1
 489 1444 l 1,1,-1
 721 823 l 2,2,3
 772 686 772 686 829 430 c 1,4,-1
 846 430 l 1,5,6
 819 661 819 661 819 815 c 2,7,-1
 819 1444 l 1,8,-1
 1130 1444 l 1,9,-1
 1130 0 l 1,10,-1
 739 0 l 1,11,-1
 508 621 l 2,12,13
 457 758 457 758 399 1014 c 1,14,-1
 383 1014 l 1,15,16
 410 783 410 783 410 629 c 2,17,-1
 410 0 l 1,18,-1
 98 0 l 1,19,-1
 98 1444 l 1,0,-1
668 -354 m 1,21,-1
 668 -106 l 1,22,23
 693 -114 693 -114 727 -115 c 0,24,25
 772 -115 772 -115 795.5 -96.5 c 128,-1,26
 819 -78 819 -78 819 -39 c 2,27,-1
 819 29 l 1,28,-1
 1130 29 l 1,29,-1
 1130 -78 l 2,30,31
 1130 -234 1130 -234 1045.5 -301.5 c 128,-1,32
 961 -369 961 -369 809 -369 c 0,33,20
 740 -368 740 -368 668 -354 c 1,21,-1
EndSplineSet
EndChar

StartChar: uni019D
Encoding: 413 413 91
Width: 1228
GlyphClass: 2
Flags: W
AnchorPoint: "Anchor-1" 614 1444 basechar 0
AnchorPoint: "Anchor-0" 614 0 basechar 0
LayerCount: 2
Fore
SplineSet
98 1444 m 1,0,-1
 489 1444 l 1,1,-1
 721 823 l 2,2,3
 772 686 772 686 829 430 c 1,4,-1
 846 430 l 1,5,6
 819 661 819 661 819 815 c 2,7,-1
 819 1444 l 1,8,-1
 1130 1444 l 1,9,-1
 1130 0 l 1,10,-1
 739 0 l 1,11,-1
 508 621 l 2,12,13
 457 758 457 758 399 1014 c 1,14,-1
 383 1014 l 1,15,16
 410 783 410 783 410 629 c 2,17,-1
 410 0 l 1,18,-1
 98 0 l 1,19,-1
 98 1444 l 1,0,-1
-53 -354 m 1,21,-1
 -53 -106 l 1,22,23
 -28 -114 -28 -114 6 -115 c 0,24,25
 51 -115 51 -115 74.5 -96.5 c 128,-1,26
 98 -78 98 -78 98 -39 c 2,27,-1
 98 29 l 1,28,-1
 410 29 l 1,29,-1
 410 -78 l 2,30,31
 410 -234 410 -234 325 -301.5 c 128,-1,32
 240 -369 240 -369 88 -369 c 0,33,20
 19 -368 19 -368 -53 -354 c 1,21,-1
EndSplineSet
EndChar

StartChar: OE
Encoding: 338 338 97
Width: 1228
GlyphClass: 2
Flags: W
AnchorPoint: "Anchor-1" 614 1444 basechar 0
AnchorPoint: "Anchor-0" 614 0 basechar 0
LayerCount: 2
Fore
SplineSet
279 89 m 128,-1,1
 150 178 150 178 86.5 341 c 128,-1,2
 23 504 23 504 23 723 c 256,3,4
 23 942 23 942 86.5 1104 c 128,-1,5
 150 1266 150 1266 279 1355 c 128,-1,6
 408 1444 408 1444 596 1444 c 2,7,-1
 616 1444 l 1,8,-1
 616 1137 l 1,9,-1
 604 1137 l 2,10,11
 483 1137 483 1137 427 1039.5 c 128,-1,12
 371 942 371 942 371 723 c 256,13,14
 371 504 371 504 427 405.5 c 128,-1,15
 483 307 483 307 604 307 c 2,16,-1
 616 307 l 1,17,-1
 616 0 l 1,18,-1
 596 0 l 2,19,0
 408 0 408 0 279 89 c 128,-1,1
711 307 m 1,20,-1
 1182 307 l 1,21,-1
 1182 0 l 1,22,-1
 711 0 l 1,23,-1
 711 307 l 1,20,-1
588 1444 m 1,24,-1
 905 1444 l 1,25,-1
 905 0 l 1,26,-1
 588 0 l 1,27,-1
 588 1444 l 1,24,-1
711 889 m 1,28,-1
 1151 889 l 1,29,-1
 1151 582 l 1,30,-1
 711 582 l 1,31,-1
 711 889 l 1,28,-1
711 1444 m 1,32,-1
 1182 1444 l 1,33,-1
 1182 1137 l 1,34,-1
 711 1137 l 1,35,-1
 711 1444 l 1,32,-1
EndSplineSet
EndChar

StartChar: Oslash
Encoding: 216 216 101
Width: 1228
GlyphClass: 2
Flags: W
AnchorPoint: "Anchor-2" 1106 0 basechar 0
AnchorPoint: "Anchor-1" 614 1444 basechar 0
AnchorPoint: "Anchor-0" 614 0 basechar 0
LayerCount: 2
Fore
SplineSet
306 58 m 128,-1,1
 178 147 178 147 109.5 317 c 128,-1,2
 41 487 41 487 41 723 c 256,3,4
 41 959 41 959 109.5 1127.5 c 128,-1,5
 178 1296 178 1296 307 1385.5 c 128,-1,6
 436 1475 436 1475 614 1475 c 256,7,8
 792 1475 792 1475 921.5 1385.5 c 128,-1,9
 1051 1296 1051 1296 1119.5 1127 c 128,-1,10
 1188 958 1188 958 1188 723 c 256,11,12
 1188 487 1188 487 1119.5 317 c 128,-1,13
 1051 147 1051 147 923 58 c 128,-1,14
 795 -31 795 -31 614 -31 c 256,15,0
 434 -31 434 -31 306 58 c 128,-1,1
759 409.5 m 128,-1,17
 803 506 803 506 803 723 c 0,18,19
 803 938 803 938 759 1034 c 128,-1,20
 715 1130 715 1130 614 1130 c 256,21,22
 514 1130 514 1130 470 1034 c 128,-1,23
 426 938 426 938 426 723 c 0,24,25
 426 506 426 506 470 409.5 c 128,-1,26
 514 313 514 313 614 313 c 256,27,16
 715 313 715 313 759 409.5 c 128,-1,17
967 1470 m 1,28,-1
 1188 1470 l 1,29,-1
 262 -25 l 1,30,-1
 41 -25 l 1,31,-1
 967 1470 l 1,28,-1
EndSplineSet
EndChar

StartChar: Oslashacute
Encoding: 510 510 102
Width: 1228
GlyphClass: 2
Flags: W
AnchorPoint: "Anchor-2" 1106 0 basechar 0
AnchorPoint: "Anchor-1" 614 1444 basechar 0
AnchorPoint: "Anchor-0" 614 0 basechar 0
LayerCount: 2
Fore
SplineSet
306 58 m 128,-1,1
 178 147 178 147 109.5 317 c 128,-1,2
 41 487 41 487 41 723 c 256,3,4
 41 959 41 959 109.5 1127.5 c 128,-1,5
 178 1296 178 1296 307 1385.5 c 128,-1,6
 436 1475 436 1475 614 1475 c 256,7,8
 792 1475 792 1475 921.5 1385.5 c 128,-1,9
 1051 1296 1051 1296 1119.5 1127 c 128,-1,10
 1188 958 1188 958 1188 723 c 256,11,12
 1188 487 1188 487 1119.5 317 c 128,-1,13
 1051 147 1051 147 923 58 c 128,-1,14
 795 -31 795 -31 614 -31 c 256,15,0
 434 -31 434 -31 306 58 c 128,-1,1
759 409.5 m 128,-1,17
 803 506 803 506 803 723 c 0,18,19
 803 938 803 938 759 1034 c 128,-1,20
 715 1130 715 1130 614 1130 c 256,21,22
 514 1130 514 1130 470 1034 c 128,-1,23
 426 938 426 938 426 723 c 0,24,25
 426 506 426 506 470 409.5 c 128,-1,26
 514 313 514 313 614 313 c 256,27,16
 715 313 715 313 759 409.5 c 128,-1,17
967 1470 m 1,28,-1
 1188 1470 l 1,29,-1
 262 -25 l 1,30,-1
 41 -25 l 1,31,-1
 967 1470 l 1,28,-1
651 1905 m 1,32,-1
 1016 1905 l 1,33,-1
 760 1587 l 1,34,-1
 469 1587 l 1,35,-1
 651 1905 l 1,32,-1
EndSplineSet
EndChar

StartChar: Tbar
Encoding: 358 358 112
Width: 1228
GlyphClass: 2
Flags: W
AnchorPoint: "Anchor-1" 614 1444 basechar 0
AnchorPoint: "Anchor-0" 614 0 basechar 0
LayerCount: 2
Fore
SplineSet
426 1280 m 1,0,-1
 803 1280 l 1,1,-1
 803 0 l 1,2,-1
 426 0 l 1,3,-1
 426 1280 l 1,0,-1
43 1444 m 1,4,-1
 1186 1444 l 1,5,-1
 1186 1126 l 1,6,-1
 43 1126 l 1,7,-1
 43 1444 l 1,4,-1
162 836 m 1,8,-1
 1059 836 l 1,9,-1
 1059 612 l 1,10,-1
 162 612 l 1,11,-1
 162 836 l 1,8,-1
EndSplineSet
EndChar

StartChar: Thorn
Encoding: 222 222 116
Width: 1228
GlyphClass: 2
Flags: W
AnchorPoint: "Anchor-1" 614 1444 basechar 0
AnchorPoint: "Anchor-0" 614 0 basechar 0
LayerCount: 2
Fore
SplineSet
88 1444 m 1,0,-1
 463 1444 l 1,1,-1
 463 1219 l 1,2,-1
 618 1219 l 2,3,4
 759 1219 759 1219 878 1169.5 c 128,-1,5
 997 1120 997 1120 1070 1010.5 c 128,-1,6
 1143 901 1143 901 1143 731 c 256,7,8
 1143 561 1143 561 1070 451.5 c 128,-1,9
 997 342 997 342 878.5 293 c 128,-1,10
 760 244 760 244 618 244 c 2,11,-1
 463 244 l 1,12,-1
 463 0 l 1,13,-1
 88 0 l 1,14,-1
 88 1444 l 1,0,-1
713.5 583 m 128,-1,16
 768 631 768 631 768 731 c 256,17,18
 768 831 768 831 713.5 879.5 c 128,-1,19
 659 928 659 928 582 928 c 2,20,-1
 463 928 l 1,21,-1
 463 535 l 1,22,-1
 582 535 l 2,23,15
 659 535 659 535 713.5 583 c 128,-1,16
EndSplineSet
EndChar

StartChar: uni1E9E
Encoding: 7838 7838 142
Width: 1228
GlyphClass: 1
Flags: W
LayerCount: 2
Fore
SplineSet
656.5 -24.5 m 128,-1,1
 604 -18 604 -18 563 -6 c 1,2,-1
 563 305 l 1,3,4
 594 295 594 295 621.5 291 c 128,-1,5
 649 287 649 287 680 287 c 0,6,7
 750 287 750 287 787.5 329 c 128,-1,8
 825 371 825 371 825 446 c 256,9,10
 825 522 825 522 782 562 c 128,-1,11
 739 602 739 602 659 602 c 2,12,-1
 563 602 l 1,13,-1
 563 874 l 1,14,-1
 748 1124 l 1,15,-1
 748 1137 l 1,16,-1
 430 1137 l 1,17,-1
 430 0 l 1,18,-1
 68 0 l 1,19,-1
 68 1444 l 1,20,-1
 1075 1444 l 1,21,-1
 1075 1104 l 1,22,-1
 909 885 l 1,23,-1
 909 872 l 1,24,-1
 909 872 l 1,25,26
 1046 831 1046 831 1117 724.5 c 128,-1,27
 1188 618 1188 618 1188 453 c 0,28,29
 1188 310 1188 310 1135.5 200 c 128,-1,30
 1083 90 1083 90 987 29.5 c 128,-1,31
 891 -31 891 -31 766 -31 c 0,32,0
 709 -31 709 -31 656.5 -24.5 c 128,-1,1
EndSplineSet
EndChar

StartChar: uni018F
Encoding: 399 399 143
Width: 1228
GlyphClass: 1
Flags: W
LayerCount: 2
Fore
SplineSet
299 63.5 m 128,-1,1
 170 158 170 158 105.5 327 c 128,-1,2
 41 496 41 496 41 723 c 0,3,4
 41 756 41 756 45 813 c 1,5,-1
 983 813 l 1,6,-1
 983 547 l 1,7,-1
 418 547 l 1,8,9
 428 438 428 438 477 383 c 128,-1,10
 526 328 526 328 610 328 c 0,11,12
 712 328 712 328 760.5 424 c 128,-1,13
 809 520 809 520 809 723 c 0,14,15
 809 924 809 924 762 1017 c 128,-1,16
 715 1110 715 1110 612 1110 c 0,17,18
 553 1110 553 1110 512 1079.5 c 128,-1,19
 471 1049 471 1049 457 997 c 1,20,-1
 68 997 l 1,21,22
 107 1214 107 1214 249 1344.5 c 128,-1,23
 391 1475 391 1475 614 1475 c 0,24,25
 800 1475 800 1475 929.5 1380.5 c 128,-1,26
 1059 1286 1059 1286 1123.5 1117 c 128,-1,27
 1188 948 1188 948 1188 723 c 0,28,29
 1188 496 1188 496 1123.5 327 c 128,-1,30
 1059 158 1059 158 930 63.5 c 128,-1,31
 801 -31 801 -31 614 -31 c 256,32,0
 428 -31 428 -31 299 63.5 c 128,-1,1
EndSplineSet
EndChar

StartChar: a
Encoding: 97 97 144
Width: 1228
GlyphClass: 2
Flags: W
AnchorPoint: "Anchor-2" 1006 0 basechar 0
AnchorPoint: "Anchor-1" 614 1055 basechar 0
AnchorPoint: "Anchor-0" 614 0 basechar 0
LayerCount: 2
Fore
SplineSet
257 11 m 128,-1,1
 176 53 176 53 131 127 c 128,-1,2
 86 201 86 201 86 293 c 0,3,4
 86 428 86 428 169 509 c 128,-1,5
 252 590 252 590 424 623 c 2,6,-1
 639 664 l 2,7,8
 686 674 686 674 705.5 693.5 c 128,-1,9
 725 713 725 713 725 750 c 0,10,11
 725 793 725 793 693.5 817.5 c 128,-1,12
 662 842 662 842 606 842 c 0,13,14
 553 842 553 842 518 813 c 128,-1,15
 483 784 483 784 479 737 c 1,16,-1
 111 737 l 1,17,18
 111 835 111 835 175.5 915 c 128,-1,19
 240 995 240 995 353.5 1040 c 128,-1,20
 467 1085 467 1085 606 1085 c 0,21,22
 835 1085 835 1085 963.5 992 c 128,-1,23
 1092 899 1092 899 1092 733 c 2,24,-1
 1092 336 l 2,25,26
 1092 313 1092 313 1104 301 c 128,-1,27
 1116 289 1116 289 1139 289 c 0,28,29
 1164 289 1164 289 1169 291 c 1,30,-1
 1169 10 l 1,31,32
 1132 -6 1132 -6 1090.5 -13 c 128,-1,33
 1049 -20 1049 -20 983 -20 c 0,34,35
 893 -20 893 -20 833.5 18.5 c 128,-1,36
 774 57 774 57 754 127 c 1,37,-1
 737 127 l 1,38,39
 698 53 698 53 619.5 11 c 128,-1,40
 541 -31 541 -31 438 -31 c 0,41,0
 338 -31 338 -31 257 11 c 128,-1,1
648 235.5 m 128,-1,43
 684 256 684 256 702.5 296 c 128,-1,44
 721 336 721 336 721 391 c 2,45,-1
 721 502 l 1,46,47
 703 486 703 486 645 471 c 2,48,-1
 547 446 l 2,49,50
 496 432 496 432 468 402.5 c 128,-1,51
 440 373 440 373 440 330 c 0,52,53
 440 279 440 279 474 247 c 128,-1,54
 508 215 508 215 561 215 c 0,55,42
 612 215 612 215 648 235.5 c 128,-1,43
EndSplineSet
Substitution2: "Single Substitution lookup 35 subtable" ordfeminine
Substitution2: "'ss01' Style Set 1 in Latin lookup 24 subtable" a.ss01
AlternateSubs2: "'aalt' Access All Alternates in Latin lookup 1 subtable" ordfeminine a.ss01
EndChar

StartChar: b
Encoding: 98 98 145
Width: 1228
GlyphClass: 2
Flags: W
AnchorPoint: "Anchor-1" 596 1055 basechar 0
AnchorPoint: "Anchor-0" 596 0 basechar 0
LayerCount: 2
Fore
SplineSet
568.5 14 m 128,-1,1
 498 59 498 59 457 154 c 1,2,-1
 440 154 l 1,3,-1
 440 0 l 1,4,-1
 92 0 l 1,5,-1
 92 1444 l 1,6,-1
 461 1444 l 1,7,-1
 461 901 l 1,8,-1
 477 901 l 1,9,10
 518 995 518 995 590 1040 c 128,-1,11
 662 1085 662 1085 766 1085 c 0,12,13
 887 1085 887 1085 974 1019.5 c 128,-1,14
 1061 954 1061 954 1107 830.5 c 128,-1,15
 1153 707 1153 707 1153 532 c 256,16,17
 1153 358 1153 358 1104 231 c 128,-1,18
 1055 104 1055 104 961.5 36.5 c 128,-1,19
 868 -31 868 -31 741 -31 c 0,20,0
 639 -31 639 -31 568.5 14 c 128,-1,1
731 334.5 m 128,-1,22
 776 403 776 403 776 528 c 0,23,24
 776 651 776 651 731 719.5 c 128,-1,25
 686 788 686 788 606 788 c 256,26,27
 526 788 526 788 481 719.5 c 128,-1,28
 436 651 436 651 436 528 c 0,29,30
 436 403 436 403 480 334.5 c 128,-1,31
 524 266 524 266 606 266 c 0,32,21
 686 266 686 266 731 334.5 c 128,-1,22
EndSplineSet
EndChar

StartChar: c
Encoding: 99 99 146
Width: 1228
GlyphClass: 2
Flags: W
AnchorPoint: "Anchor-1" 614 1055 basechar 0
AnchorPoint: "Anchor-0" 614 0 basechar 0
LayerCount: 2
Fore
SplineSet
337 40 m 128,-1,1
 213 111 213 111 144.5 238 c 128,-1,2
 76 365 76 365 76 528 c 256,3,4
 76 692 76 692 144.5 819 c 128,-1,5
 213 946 213 946 337 1015.5 c 128,-1,6
 461 1085 461 1085 623 1085 c 0,7,8
 838 1085 838 1085 978 965.5 c 128,-1,9
 1118 846 1118 846 1139 641 c 1,10,-1
 768 641 l 1,11,12
 756 711 756 711 718 749.5 c 128,-1,13
 680 788 680 788 623 788 c 0,14,15
 543 788 543 788 498 718.5 c 128,-1,16
 453 649 453 649 453 528 c 0,17,18
 453 405 453 405 498 335.5 c 128,-1,19
 543 266 543 266 623 266 c 0,20,21
 680 266 680 266 718 305 c 128,-1,22
 756 344 756 344 768 414 c 1,23,-1
 1139 414 l 1,24,25
 1119 209 1119 209 978.5 89 c 128,-1,26
 838 -31 838 -31 623 -31 c 0,27,0
 461 -31 461 -31 337 40 c 128,-1,1
EndSplineSet
EndChar

StartChar: d
Encoding: 100 100 147
Width: 1228
GlyphClass: 2
Flags: W
AnchorPoint: "Anchor-1" 614 1444 basechar 0
AnchorPoint: "Anchor-0" 614 0 basechar 0
LayerCount: 2
Fore
SplineSet
267 36.5 m 128,-1,1
 174 104 174 104 125 231 c 128,-1,2
 76 358 76 358 76 532 c 256,3,4
 76 706 76 706 122 830 c 128,-1,5
 168 954 168 954 255 1019.5 c 128,-1,6
 342 1085 342 1085 463 1085 c 0,7,8
 567 1085 567 1085 639 1040 c 128,-1,9
 711 995 711 995 752 901 c 1,10,-1
 768 901 l 1,11,-1
 768 1444 l 1,12,-1
 1137 1444 l 1,13,-1
 1137 0 l 1,14,-1
 788 0 l 1,15,-1
 788 154 l 1,16,-1
 772 154 l 1,17,18
 731 60 731 60 660.5 14.5 c 128,-1,19
 590 -31 590 -31 487 -31 c 0,20,0
 360 -31 360 -31 267 36.5 c 128,-1,1
749 334.5 m 128,-1,22
 793 403 793 403 793 528 c 0,23,24
 793 651 793 651 747.5 719.5 c 128,-1,25
 702 788 702 788 623 788 c 256,26,27
 543 788 543 788 498 719.5 c 128,-1,28
 453 651 453 651 453 528 c 0,29,30
 453 403 453 403 498 334.5 c 128,-1,31
 543 266 543 266 623 266 c 0,32,21
 705 266 705 266 749 334.5 c 128,-1,22
EndSplineSet
EndChar

StartChar: e
Encoding: 101 101 148
Width: 1228
GlyphClass: 2
Flags: W
AnchorPoint: "Anchor-2" 735 0 basechar 0
AnchorPoint: "Anchor-1" 614 1055 basechar 0
AnchorPoint: "Anchor-0" 614 0 basechar 0
LayerCount: 2
Fore
SplineSet
341 37.5 m 128,-1,1
 219 106 219 106 152.5 233 c 128,-1,2
 86 360 86 360 86 530 c 0,3,4
 86 692 86 692 152.5 818 c 128,-1,5
 219 944 219 944 339 1014.5 c 128,-1,6
 459 1085 459 1085 612 1085 c 0,7,8
 772 1085 772 1085 892 1020.5 c 128,-1,9
 1012 956 1012 956 1077.5 838.5 c 128,-1,10
 1143 721 1143 721 1143 563 c 0,11,12
 1143 518 1143 518 1139 465 c 2,13,-1
 1133 424 l 1,14,-1
 297 424 l 1,15,-1
 297 633 l 1,16,-1
 791 633 l 1,17,18
 789 737 789 737 742.5 794.5 c 128,-1,19
 696 852 696 852 614 852 c 256,20,21
 532 852 532 852 488 786.5 c 128,-1,22
 444 721 444 721 444 602 c 2,23,-1
 444 459 l 2,24,25
 444 346 444 346 491.5 284.5 c 128,-1,26
 539 223 539 223 627 223 c 0,27,28
 672 223 672 223 704.5 244.5 c 128,-1,29
 737 266 737 266 754 305 c 1,30,-1
 1124 305 l 1,31,32
 1077 145 1077 145 947 57 c 128,-1,33
 817 -31 817 -31 627 -31 c 0,34,0
 463 -31 463 -31 341 37.5 c 128,-1,1
EndSplineSet
EndChar

StartChar: f
Encoding: 102 102 149
Width: 1228
GlyphClass: 2
Flags: W
AnchorPoint: "Anchor-1" 614 1444 basechar 0
AnchorPoint: "Anchor-0" 614 0 basechar 0
LayerCount: 2
Fore
SplineSet
464 1300 m 128,-1,1
 518 1386 518 1386 609 1430.5 c 128,-1,2
 700 1475 700 1475 811 1475 c 2,3,-1
 1092 1475 l 1,4,-1
 1092 1186 l 1,5,-1
 877 1186 l 2,6,7
 824 1186 824 1186 801 1157 c 128,-1,8
 778 1128 778 1128 778 1069 c 2,9,-1
 778 0 l 1,10,-1
 410 0 l 1,11,-1
 410 1090 l 2,12,0
 410 1214 410 1214 464 1300 c 128,-1,1
139 1055 m 1,13,-1
 1092 1055 l 1,14,-1
 1092 758 l 1,15,-1
 139 758 l 1,16,-1
 139 1055 l 1,13,-1
EndSplineSet
EndChar

StartChar: g
Encoding: 103 103 150
Width: 1228
GlyphClass: 2
Flags: W
AnchorPoint: "Anchor-1" 614 1055 basechar 0
AnchorPoint: "Anchor-0" 614 -338 basechar 0
LayerCount: 2
Fore
SplineSet
353.5 -325 m 128,-1,1
 240 -281 240 -281 174.5 -202 c 128,-1,2
 109 -123 109 -123 106 -25 c 1,3,-1
 469 -25 l 1,4,5
 483 -68 483 -68 516 -88.5 c 128,-1,6
 549 -109 549 -109 602 -109 c 0,7,8
 674 -109 674 -109 713 -63.5 c 128,-1,9
 752 -18 752 -18 752 66 c 2,10,-1
 752 236 l 1,11,-1
 735 236 l 1,12,13
 696 154 696 154 627.5 112 c 128,-1,14
 559 70 559 70 463 70 c 0,15,16
 344 70 344 70 253 133.5 c 128,-1,17
 162 197 162 197 111.5 312.5 c 128,-1,18
 61 428 61 428 61 580 c 256,19,20
 61 732 61 732 112.5 846.5 c 128,-1,21
 164 961 164 961 258 1023 c 128,-1,22
 352 1085 352 1085 475 1085 c 0,23,24
 571 1085 571 1085 644 1042 c 128,-1,25
 717 999 717 999 756 920 c 1,26,-1
 772 920 l 1,27,-1
 772 1055 l 1,28,-1
 1120 1055 l 1,29,-1
 1120 82 l 2,30,31
 1120 -133 1120 -133 986 -251 c 128,-1,32
 852 -369 852 -369 608 -369 c 0,33,0
 467 -369 467 -369 353.5 -325 c 128,-1,1
724 408.5 m 128,-1,35
 770 473 770 473 770 578 c 256,36,37
 770 682 770 682 724 746.5 c 128,-1,38
 678 811 678 811 602 811 c 256,39,40
 526 811 526 811 480 746.5 c 128,-1,41
 434 682 434 682 434 578 c 0,42,43
 434 476 434 476 481 410 c 128,-1,44
 528 344 528 344 602 344 c 0,45,34
 678 344 678 344 724 408.5 c 128,-1,35
EndSplineSet
Substitution2: "'ss02' Style Set 2 in Latin lookup 25 subtable" g.ss02
Substitution2: "'aalt' Access All Alternates in Latin lookup 0 subtable" g.ss02
EndChar

StartChar: h
Encoding: 104 104 151
Width: 1228
GlyphClass: 2
Flags: W
AnchorPoint: "Anchor-1" 614 1444 basechar 0
AnchorPoint: "Anchor-0" 614 0 basechar 0
LayerCount: 2
Fore
SplineSet
98 1444 m 1,0,-1
 467 1444 l 1,1,-1
 467 901 l 1,2,-1
 483 901 l 1,3,4
 518 991 518 991 595 1038 c 128,-1,5
 672 1085 672 1085 780 1085 c 0,6,7
 948 1085 948 1085 1042.5 981 c 128,-1,8
 1137 877 1137 877 1137 690 c 2,9,-1
 1137 0 l 1,10,-1
 768 0 l 1,11,-1
 768 588 l 2,12,13
 768 666 768 666 730 708 c 128,-1,14
 692 750 692 750 623 750 c 0,15,16
 547 750 547 750 507 703.5 c 128,-1,17
 467 657 467 657 467 569 c 2,18,-1
 467 0 l 1,19,-1
 98 0 l 1,20,-1
 98 1444 l 1,0,-1
EndSplineSet
EndChar

StartChar: k
Encoding: 107 107 154
Width: 1228
GlyphClass: 2
Flags: W
AnchorPoint: "Anchor-1" 614 1444 basechar 0
AnchorPoint: "Anchor-0" 614 0 basechar 0
LayerCount: 2
Fore
SplineSet
109 1444 m 1,0,-1
 477 1444 l 1,1,-1
 477 1055 l 1,2,-1
 477 961 l 2,3,4
 473 785 473 785 469 696 c 1,5,-1
 485 696 l 1,6,-1
 735 1055 l 1,7,-1
 1184 1055 l 1,8,-1
 811 641 l 1,9,-1
 1217 0 l 1,10,-1
 809 0 l 1,11,-1
 578 385 l 1,12,-1
 477 260 l 1,13,-1
 477 0 l 1,14,-1
 109 0 l 1,15,-1
 109 1444 l 1,0,-1
EndSplineSet
EndChar

StartChar: l
Encoding: 108 108 155
Width: 1228
GlyphClass: 2
Flags: W
AnchorPoint: "Anchor-1" 614 1444 basechar 0
AnchorPoint: "Anchor-0" 614 0 basechar 0
LayerCount: 2
Fore
SplineSet
463 1298 m 1,0,-1
 831 1444 l 1,1,-1
 831 143 l 1,2,-1
 463 143 l 1,3,-1
 463 1298 l 1,0,-1
145 297 m 1,4,-1
 1139 297 l 1,5,-1
 1139 0 l 1,6,-1
 145 0 l 1,7,-1
 145 297 l 1,4,-1
170 1444 m 1,8,-1
 831 1444 l 1,9,-1
 649 1147 l 1,10,-1
 170 1147 l 1,11,-1
 170 1444 l 1,8,-1
EndSplineSet
EndChar

StartChar: m
Encoding: 109 109 156
Width: 1228
GlyphClass: 2
Flags: W
AnchorPoint: "Anchor-1" 600 1055 basechar 0
AnchorPoint: "Anchor-0" 600 0 basechar 0
LayerCount: 2
Fore
SplineSet
43 1055 m 1,0,-1
 293 1055 l 1,1,-1
 293 899 l 1,2,-1
 309 899 l 1,3,4
 325 983 325 983 383.5 1034 c 128,-1,5
 442 1085 442 1085 522 1085 c 0,6,7
 612 1085 612 1085 664.5 1040 c 128,-1,8
 717 995 717 995 735 899 c 1,9,-1
 752 899 l 1,10,11
 766 985 766 985 826.5 1035 c 128,-1,12
 887 1085 887 1085 973 1085 c 0,13,14
 1075 1085 1075 1085 1130.5 1021.5 c 128,-1,15
 1186 958 1186 958 1186 840 c 2,16,-1
 1186 0 l 1,17,-1
 887 0 l 1,18,-1
 887 688 l 2,19,20
 887 733 887 733 872.5 754.5 c 128,-1,21
 858 776 858 776 829 776 c 0,22,23
 796 776 796 776 780 752.5 c 128,-1,24
 764 729 764 729 764 680 c 2,25,-1
 764 0 l 1,26,-1
 465 0 l 1,27,-1
 465 688 l 2,28,29
 465 733 465 733 449.5 754.5 c 128,-1,30
 434 776 434 776 403 776 c 0,31,32
 370 776 370 776 356 752.5 c 128,-1,33
 342 729 342 729 342 680 c 2,34,-1
 342 0 l 1,35,-1
 43 0 l 1,36,-1
 43 1055 l 1,0,-1
EndSplineSet
EndChar

StartChar: n
Encoding: 110 110 157
Width: 1228
GlyphClass: 2
Flags: W
AnchorPoint: "Anchor-1" 614 1055 basechar 0
AnchorPoint: "Anchor-0" 614 0 basechar 0
LayerCount: 2
Fore
SplineSet
106 1055 m 1,0,-1
 455 1055 l 1,1,-1
 455 901 l 1,2,-1
 471 901 l 1,3,4
 506 985 506 985 589 1035 c 128,-1,5
 672 1085 672 1085 776 1085 c 0,6,7
 944 1085 944 1085 1038.5 981 c 128,-1,8
 1133 877 1133 877 1133 690 c 2,9,-1
 1133 0 l 1,10,-1
 764 0 l 1,11,-1
 764 592 l 2,12,13
 764 670 764 670 727 713 c 128,-1,14
 690 756 690 756 623 756 c 0,15,16
 551 756 551 756 513 710 c 128,-1,17
 475 664 475 664 475 573 c 2,18,-1
 475 0 l 1,19,-1
 106 0 l 1,20,-1
 106 1055 l 1,0,-1
EndSplineSet
EndChar

StartChar: o
Encoding: 111 111 158
Width: 1228
GlyphClass: 2
Flags: W
AnchorPoint: "Anchor-2" 831 0 basechar 0
AnchorPoint: "Anchor-1" 614 1055 basechar 0
AnchorPoint: "Anchor-0" 614 0 basechar 0
LayerCount: 2
Fore
SplineSet
329 39 m 128,-1,1
 205 109 205 109 136.5 235.5 c 128,-1,2
 68 362 68 362 68 528 c 0,3,4
 68 692 68 692 136.5 819 c 128,-1,5
 205 946 205 946 329 1015.5 c 128,-1,6
 453 1085 453 1085 614 1085 c 256,7,8
 776 1085 776 1085 900 1015.5 c 128,-1,9
 1024 946 1024 946 1092.5 819 c 128,-1,10
 1161 692 1161 692 1161 528 c 0,11,12
 1161 362 1161 362 1092.5 235.5 c 128,-1,13
 1024 109 1024 109 900 39 c 128,-1,14
 776 -31 776 -31 614 -31 c 256,15,0
 453 -31 453 -31 329 39 c 128,-1,1
738 338 m 128,-1,17
 784 408 784 408 784 528 c 256,18,19
 784 649 784 649 738 718.5 c 128,-1,20
 692 788 692 788 614 788 c 256,21,22
 536 788 536 788 490 718.5 c 128,-1,23
 444 649 444 649 444 528 c 256,24,25
 444 407 444 407 490.5 337.5 c 128,-1,26
 537 268 537 268 614 268 c 256,27,16
 692 268 692 268 738 338 c 128,-1,17
EndSplineSet
Substitution2: "Single Substitution lookup 35 subtable" ordmasculine
Substitution2: "'aalt' Access All Alternates in Latin lookup 0 subtable" ordmasculine
EndChar

StartChar: p
Encoding: 112 112 159
Width: 1228
GlyphClass: 2
Flags: W
AnchorPoint: "Anchor-1" 614 1055 basechar 0
AnchorPoint: "Anchor-0" 614 0 basechar 0
LayerCount: 2
Fore
SplineSet
92 1055 m 1,0,-1
 440 1055 l 1,1,-1
 440 901 l 1,2,-1
 457 901 l 1,3,4
 498 995 498 995 568.5 1040 c 128,-1,5
 639 1085 639 1085 741 1085 c 0,6,7
 868 1085 868 1085 961.5 1017.5 c 128,-1,8
 1055 950 1055 950 1104 823 c 128,-1,9
 1153 696 1153 696 1153 522 c 0,10,11
 1153 350 1153 350 1107 225 c 128,-1,12
 1061 100 1061 100 974 34.5 c 128,-1,13
 887 -31 887 -31 766 -31 c 0,14,15
 662 -31 662 -31 590 14 c 128,-1,16
 518 59 518 59 477 154 c 1,17,-1
 461 154 l 1,18,-1
 461 -338 l 1,19,-1
 92 -338 l 1,20,-1
 92 1055 l 1,0,-1
731 334.5 m 128,-1,22
 776 403 776 403 776 526 c 0,23,24
 776 651 776 651 731 719.5 c 128,-1,25
 686 788 686 788 606 788 c 0,26,27
 524 788 524 788 480 719.5 c 128,-1,28
 436 651 436 651 436 526 c 0,29,30
 436 403 436 403 481 334.5 c 128,-1,31
 526 266 526 266 606 266 c 256,32,21
 686 266 686 266 731 334.5 c 128,-1,22
EndSplineSet
EndChar

StartChar: q
Encoding: 113 113 160
Width: 1228
GlyphClass: 2
Flags: W
AnchorPoint: "Anchor-1" 614 1055 basechar 0
AnchorPoint: "Anchor-0" 614 0 basechar 0
LayerCount: 2
Fore
SplineSet
768 154 m 1,0,-1
 752 154 l 1,1,2
 711 60 711 60 639 14.5 c 128,-1,3
 567 -31 567 -31 463 -31 c 0,4,5
 342 -31 342 -31 255 34.5 c 128,-1,6
 168 100 168 100 122 225 c 128,-1,7
 76 350 76 350 76 522 c 0,8,9
 76 696 76 696 125 823 c 128,-1,10
 174 950 174 950 267 1017.5 c 128,-1,11
 360 1085 360 1085 487 1085 c 0,12,13
 589 1085 589 1085 660 1040 c 128,-1,14
 731 995 731 995 772 901 c 1,15,-1
 788 901 l 1,16,-1
 788 1055 l 1,17,-1
 1137 1055 l 1,18,-1
 1137 -338 l 1,19,-1
 768 -338 l 1,20,-1
 768 154 l 1,0,-1
747.5 334.5 m 128,-1,22
 793 403 793 403 793 526 c 0,23,24
 793 651 793 651 749 719.5 c 128,-1,25
 705 788 705 788 623 788 c 0,26,27
 543 788 543 788 498 719.5 c 128,-1,28
 453 651 453 651 453 526 c 0,29,30
 453 403 453 403 498 334.5 c 128,-1,31
 543 266 543 266 623 266 c 256,32,21
 702 266 702 266 747.5 334.5 c 128,-1,22
EndSplineSet
EndChar

StartChar: r
Encoding: 114 114 161
Width: 1228
GlyphClass: 2
Flags: W
AnchorPoint: "Anchor-1" 614 1055 basechar 0
AnchorPoint: "Anchor-0" 336 0 basechar 0
LayerCount: 2
Fore
SplineSet
152 1055 m 1,0,-1
 500 1055 l 1,1,-1
 500 891 l 1,2,-1
 516 891 l 1,3,4
 551 981 551 981 631 1033 c 128,-1,5
 711 1085 711 1085 811 1085 c 0,6,7
 973 1085 973 1085 1065 981 c 128,-1,8
 1157 877 1157 877 1157 690 c 2,9,-1
 1157 573 l 1,10,-1
 819 573 l 1,11,-1
 819 623 l 2,12,13
 819 697 819 697 782 735.5 c 128,-1,14
 745 774 745 774 674 774 c 0,15,16
 598 774 598 774 559 728 c 128,-1,17
 520 682 520 682 520 594 c 2,18,-1
 520 0 l 1,19,-1
 152 0 l 1,20,-1
 152 1055 l 1,0,-1
EndSplineSet
EndChar

StartChar: s
Encoding: 115 115 162
Width: 1228
GlyphClass: 2
Flags: W
AnchorPoint: "Anchor-1" 614 1055 basechar 0
AnchorPoint: "Anchor-0" 614 0 basechar 0
LayerCount: 2
Fore
SplineSet
361.5 13 m 128,-1,1
 248 57 248 57 179.5 136 c 128,-1,2
 111 215 111 215 104 315 c 1,3,-1
 485 315 l 1,4,5
 493 262 493 262 532 231.5 c 128,-1,6
 571 201 571 201 631 201 c 0,7,8
 694 201 694 201 731 228.5 c 128,-1,9
 768 256 768 256 768 303 c 0,10,11
 768 332 768 332 746.5 347 c 128,-1,12
 725 362 725 362 666 373 c 2,13,-1
 397 420 l 2,14,15
 270 443 270 443 199.5 523.5 c 128,-1,16
 129 604 129 604 129 727 c 0,17,18
 129 829 129 829 192.5 911 c 128,-1,19
 256 993 256 993 368.5 1039 c 128,-1,20
 481 1085 481 1085 623 1085 c 0,21,22
 840 1085 840 1085 976 994 c 128,-1,23
 1112 903 1112 903 1126 750 c 1,24,-1
 745 750 l 1,25,26
 735 799 735 799 700.5 825.5 c 128,-1,27
 666 852 666 852 610 852 c 0,28,29
 557 852 557 852 523 827.5 c 128,-1,30
 489 803 489 803 489 764 c 0,31,32
 489 729 489 729 515 708.5 c 128,-1,33
 541 688 541 688 594 680 c 2,34,-1
 860 633 l 2,35,36
 991 610 991 610 1058.5 535.5 c 128,-1,37
 1126 461 1126 461 1126 340 c 0,38,39
 1126 234 1126 234 1060.5 148.5 c 128,-1,40
 995 63 995 63 879.5 16 c 128,-1,41
 764 -31 764 -31 616 -31 c 0,42,0
 475 -31 475 -31 361.5 13 c 128,-1,1
EndSplineSet
EndChar

StartChar: t
Encoding: 116 116 163
Width: 1228
GlyphClass: 2
Flags: W
AnchorPoint: "Anchor-1" 614 1311 basechar 0
AnchorPoint: "Anchor-0" 614 0 basechar 0
LayerCount: 2
Fore
SplineSet
510 60.5 m 128,-1,1
 410 152 410 152 410 311 c 2,2,-1
 410 727 l 1,3,-1
 139 727 l 1,4,-1
 139 1004 l 1,5,-1
 313 1004 l 2,6,7
 372 1004 372 1004 401 1032.5 c 128,-1,8
 430 1061 430 1061 430 1120 c 2,9,-1
 430 1311 l 1,10,-1
 778 1311 l 1,11,-1
 778 1024 l 1,12,-1
 1092 1024 l 1,13,-1
 1092 727 l 1,14,-1
 778 727 l 1,15,-1
 778 406 l 2,16,17
 778 355 778 355 811 329 c 128,-1,18
 844 303 844 303 911 303 c 0,19,20
 1028 303 1028 303 1092 324 c 1,21,-1
 1092 23 l 1,22,23
 1041 -2 1041 -2 959 -16.5 c 128,-1,24
 877 -31 877 -31 784 -31 c 0,25,0
 610 -31 610 -31 510 60.5 c 128,-1,1
EndSplineSet
EndChar

StartChar: u
Encoding: 117 117 164
Width: 1228
GlyphClass: 2
Flags: W
AnchorPoint: "Anchor-2" 940 0 basechar 0
AnchorPoint: "Anchor-1" 614 1055 basechar 0
AnchorPoint: "Anchor-0" 614 0 basechar 0
LayerCount: 2
Fore
SplineSet
182 73.5 m 128,-1,1
 88 178 88 178 88 365 c 2,2,-1
 88 1055 l 1,3,-1
 457 1055 l 1,4,-1
 457 463 l 2,5,6
 457 385 457 385 493.5 342 c 128,-1,7
 530 299 530 299 598 299 c 0,8,9
 670 299 670 299 707.5 345 c 128,-1,10
 745 391 745 391 745 481 c 2,11,-1
 745 1055 l 1,12,-1
 1114 1055 l 1,13,-1
 1114 0 l 1,14,-1
 766 0 l 1,15,-1
 766 154 l 1,16,-1
 750 154 l 1,17,18
 715 70 715 70 632 19.5 c 128,-1,19
 549 -31 549 -31 444 -31 c 0,20,0
 276 -31 276 -31 182 73.5 c 128,-1,1
EndSplineSet
EndChar

StartChar: v
Encoding: 118 118 165
Width: 1228
GlyphClass: 2
Flags: W
AnchorPoint: "Anchor-1" 614 1055 basechar 0
AnchorPoint: "Anchor-0" 614 0 basechar 0
LayerCount: 2
Fore
SplineSet
51 1055 m 1,0,-1
 446 1055 l 1,1,-1
 547 639 l 2,2,3
 557 594 557 594 562 571.5 c 128,-1,4
 567 549 567 549 578 506 c 0,5,6
 586 463 586 463 593 416 c 128,-1,7
 600 369 600 369 606 317 c 1,8,-1
 623 317 l 1,9,10
 633 413 633 413 655 522 c 0,11,12
 663 557 663 557 669.5 585.5 c 128,-1,13
 676 614 676 614 682 639 c 2,14,-1
 782 1055 l 1,15,-1
 1178 1055 l 1,16,-1
 817 0 l 1,17,-1
 412 0 l 1,18,-1
 51 1055 l 1,0,-1
EndSplineSet
EndChar

StartChar: w
Encoding: 119 119 166
Width: 1228
GlyphClass: 2
Flags: W
AnchorPoint: "Anchor-1" 614 1055 basechar 0
AnchorPoint: "Anchor-0" 614 0 basechar 0
LayerCount: 2
Fore
SplineSet
10 1055 m 1,0,-1
 309 1055 l 1,1,-1
 336 537 l 2,2,3
 342 400 342 400 348 260 c 1,4,-1
 365 260 l 1,5,6
 373 385 373 385 389 537 c 2,7,-1
 451 1055 l 1,8,-1
 778 1055 l 1,9,-1
 840 537 l 2,10,11
 856 385 856 385 864 260 c 1,12,-1
 881 260 l 1,13,14
 887 399 887 399 893 537 c 2,15,-1
 920 1055 l 1,16,-1
 1219 1055 l 1,17,-1
 1081 0 l 1,18,-1
 713 0 l 1,19,-1
 647 532 l 2,20,21
 629 690 629 690 623 801 c 1,22,-1
 606 801 l 1,23,-1
 594 651 l 1,24,-1
 582 532 l 1,25,-1
 516 0 l 1,26,-1
 147 0 l 1,27,-1
 10 1055 l 1,0,-1
EndSplineSet
EndChar

StartChar: x
Encoding: 120 120 167
Width: 1228
GlyphClass: 2
Flags: W
AnchorPoint: "Anchor-1" 614 1055 basechar 0
AnchorPoint: "Anchor-0" 614 0 basechar 0
LayerCount: 2
Fore
SplineSet
365 549 m 1,0,-1
 61 1055 l 1,1,-1
 475 1055 l 1,2,-1
 551 870 l 1,3,-1
 569 825 l 2,4,5
 579 802 579 802 588.5 780 c 128,-1,6
 598 758 598 758 606 735 c 1,7,-1
 623 735 l 1,8,9
 631 758 631 758 640 780.5 c 128,-1,10
 649 803 649 803 659 825 c 256,11,12
 669 848 669 848 678 870 c 2,13,-1
 754 1055 l 1,14,-1
 1167 1055 l 1,15,-1
 864 549 l 1,16,-1
 1178 0 l 1,17,-1
 780 0 l 1,18,-1
 698 174 l 2,19,20
 661 256 661 256 623 338 c 1,21,-1
 606 338 l 1,22,23
 577 277 577 277 549 213 c 0,24,25
 541 195 541 195 530 174 c 2,26,-1
 449 0 l 1,27,-1
 51 0 l 1,28,-1
 365 549 l 1,0,-1
EndSplineSet
EndChar

StartChar: y
Encoding: 121 121 168
Width: 1228
GlyphClass: 2
Flags: W
AnchorPoint: "Anchor-1" 614 1055 basechar 0
AnchorPoint: "Anchor-0" 614 0 basechar 0
LayerCount: 2
Fore
SplineSet
428 117 m 1,0,-1
 20 1055 l 1,1,-1
 422 1055 l 1,2,-1
 537 725 l 2,3,4
 596 561 596 561 602 479 c 1,5,-1
 618 479 l 1,6,7
 651 604 651 604 692 723 c 2,8,-1
 807 1055 l 1,9,-1
 1208 1055 l 1,10,-1
 633 -338 l 1,11,-1
 236 -338 l 1,12,-1
 428 117 l 1,0,-1
EndSplineSet
Substitution2: "'ss03' Style Set 3 in Latin lookup 26 subtable" y.ss03
Substitution2: "'aalt' Access All Alternates in Latin lookup 0 subtable" y.ss03
EndChar

StartChar: z
Encoding: 122 122 169
Width: 1228
GlyphClass: 2
Flags: W
AnchorPoint: "Anchor-1" 614 1055 basechar 0
AnchorPoint: "Anchor-0" 614 0 basechar 0
LayerCount: 2
Fore
SplineSet
131 289 m 1,0,-1
 645 750 l 1,1,-1
 645 766 l 1,2,3
 569 756 569 756 430 756 c 2,4,-1
 145 756 l 1,5,-1
 145 1055 l 1,6,-1
 1079 1055 l 1,7,-1
 1079 766 l 1,8,-1
 567 305 l 1,9,-1
 567 289 l 1,10,11
 657 299 657 299 815 299 c 2,12,-1
 1133 299 l 1,13,-1
 1133 0 l 1,14,-1
 131 0 l 1,15,-1
 131 289 l 1,0,-1
EndSplineSet
EndChar

StartChar: ae
Encoding: 230 230 175
Width: 1228
GlyphClass: 2
Flags: W
AnchorPoint: "Anchor-1" 614 1055 basechar 0
AnchorPoint: "Anchor-0" 614 0 basechar 0
LayerCount: 2
Fore
SplineSet
595 115.5 m 128,-1,1
 500 260 500 260 498 535 c 0,2,3
 500 801 500 801 594 943 c 128,-1,4
 688 1085 688 1085 864 1085 c 0,5,6
 1034 1085 1034 1085 1121 959.5 c 128,-1,7
 1208 834 1208 834 1206 588 c 0,8,9
 1210 488 1210 488 1198 424 c 1,10,-1
 649 424 l 1,11,-1
 649 633 l 1,12,-1
 913 633 l 1,13,14
 913 744 913 744 897 789 c 128,-1,15
 881 834 881 834 842 834 c 0,16,17
 809 834 809 834 793.5 808 c 128,-1,18
 778 782 778 782 771 715.5 c 128,-1,19
 764 649 764 649 764 516 c 0,20,21
 764 401 764 401 770 342 c 128,-1,22
 776 283 776 283 792.5 258 c 128,-1,23
 809 233 809 233 842 233 c 0,24,25
 871 233 871 233 888 252.5 c 128,-1,26
 905 272 905 272 903 305 c 1,27,-1
 1194 305 l 1,28,29
 1196 151 1196 151 1108 61 c 128,-1,30
 1020 -29 1020 -29 870 -29 c 0,31,0
 690 -29 690 -29 595 115.5 c 128,-1,1
464.5 250.5 m 128,-1,33
 483 274 483 274 483 326 c 2,34,-1
 483 475 l 1,35,36
 475 469 475 469 463 462 c 128,-1,37
 451 455 451 455 430 449 c 2,38,-1
 399 438 l 2,39,40
 360 426 360 426 344 400.5 c 128,-1,41
 328 375 328 375 328 328 c 0,42,43
 328 277 328 277 346.5 252 c 128,-1,44
 365 227 365 227 406 227 c 256,45,32
 446 227 446 227 464.5 250.5 c 128,-1,33
103.5 58 m 128,-1,47
 25 145 25 145 25 299 c 0,48,49
 25 438 25 438 90.5 515 c 128,-1,50
 156 592 156 592 301 627 c 2,51,-1
 414 653 l 2,52,53
 453 661 453 661 468 683 c 128,-1,54
 483 705 483 705 483 745 c 0,55,56
 483 788 483 788 468 809.5 c 128,-1,57
 453 831 453 831 422 831 c 0,58,59
 352 831 352 831 350 725 c 1,60,-1
 43 725 l 1,61,62
 45 895 45 895 142.5 991 c 128,-1,63
 240 1087 240 1087 410 1085 c 0,64,65
 562 1085 562 1085 652.5 994 c 128,-1,66
 743 903 743 903 743 752 c 2,67,-1
 743 139 l 1,68,-1
 594 160 l 1,69,70
 559 70 559 70 488.5 20.5 c 128,-1,71
 418 -29 418 -29 317 -29 c 0,72,46
 182 -29 182 -29 103.5 58 c 128,-1,47
EndSplineSet
EndChar

StartChar: dcaron
Encoding: 271 271 187
Width: 1228
GlyphClass: 1
Flags: W
LayerCount: 2
Fore
SplineSet
206 35.5 m 128,-1,1
 127 102 127 102 86 228 c 128,-1,2
 45 354 45 354 45 528 c 0,3,4
 45 706 45 706 84 831 c 128,-1,5
 123 956 123 956 197.5 1020.5 c 128,-1,6
 272 1085 272 1085 377 1085 c 0,7,8
 463 1085 463 1085 523.5 1040 c 128,-1,9
 584 995 584 995 623 901 c 1,10,-1
 633 901 l 1,11,-1
 633 1444 l 1,12,-1
 938 1444 l 1,13,-1
 938 0 l 1,14,-1
 651 0 l 1,15,-1
 651 154 l 1,16,-1
 641 154 l 1,17,18
 602 62 602 62 540.5 15.5 c 128,-1,19
 479 -31 479 -31 395 -31 c 0,20,0
 285 -31 285 -31 206 35.5 c 128,-1,1
616 332.5 m 128,-1,22
 657 399 657 399 657 528 c 256,23,24
 657 657 657 657 616 722.5 c 128,-1,25
 575 788 575 788 510 788 c 0,26,27
 442 788 442 788 401 721.5 c 128,-1,28
 360 655 360 655 360 528 c 0,29,30
 360 399 360 399 401 332.5 c 128,-1,31
 442 266 442 266 510 266 c 0,32,21
 575 266 575 266 616 332.5 c 128,-1,22
1034 1444 m 1,33,-1
 1266 1444 l 1,34,-1
 1165 1116 l 1,35,-1
 977 1116 l 1,36,-1
 1034 1444 l 1,33,-1
EndSplineSet
EndChar

StartChar: dcroat
Encoding: 273 273 188
Width: 1228
GlyphClass: 2
Flags: W
AnchorPoint: "Anchor-1" 614 1444 basechar 0
AnchorPoint: "Anchor-0" 614 0 basechar 0
LayerCount: 2
Fore
SplineSet
267 36.5 m 128,-1,1
 174 104 174 104 125 231 c 128,-1,2
 76 358 76 358 76 532 c 256,3,4
 76 706 76 706 122 830 c 128,-1,5
 168 954 168 954 255 1019.5 c 128,-1,6
 342 1085 342 1085 463 1085 c 0,7,8
 567 1085 567 1085 639 1040 c 128,-1,9
 711 995 711 995 752 901 c 1,10,-1
 768 901 l 1,11,-1
 768 1444 l 1,12,-1
 1137 1444 l 1,13,-1
 1137 0 l 1,14,-1
 788 0 l 1,15,-1
 788 154 l 1,16,-1
 772 154 l 1,17,18
 731 60 731 60 660.5 14.5 c 128,-1,19
 590 -31 590 -31 487 -31 c 0,20,0
 360 -31 360 -31 267 36.5 c 128,-1,1
749 334.5 m 128,-1,22
 793 403 793 403 793 528 c 0,23,24
 793 651 793 651 747.5 719.5 c 128,-1,25
 702 788 702 788 623 788 c 256,26,27
 543 788 543 788 498 719.5 c 128,-1,28
 453 651 453 651 453 528 c 0,29,30
 453 403 453 403 498 334.5 c 128,-1,31
 543 266 543 266 623 266 c 0,32,21
 705 266 705 266 749 334.5 c 128,-1,22
473 1341 m 1,33,-1
 1227 1341 l 1,34,-1
 1227 1118 l 1,35,-1
 473 1118 l 1,36,-1
 473 1341 l 1,33,-1
EndSplineSet
EndChar

StartChar: hbar
Encoding: 295 295 205
Width: 1228
GlyphClass: 2
Flags: W
AnchorPoint: "Anchor-1" 614 1444 basechar 0
AnchorPoint: "Anchor-0" 614 0 basechar 0
LayerCount: 2
Fore
SplineSet
98 1444 m 1,0,-1
 467 1444 l 1,1,-1
 467 901 l 1,2,-1
 483 901 l 1,3,4
 518 991 518 991 595 1038 c 128,-1,5
 672 1085 672 1085 780 1085 c 0,6,7
 948 1085 948 1085 1042.5 981 c 128,-1,8
 1137 877 1137 877 1137 690 c 2,9,-1
 1137 0 l 1,10,-1
 768 0 l 1,11,-1
 768 588 l 2,12,13
 768 666 768 666 730 708 c 128,-1,14
 692 750 692 750 623 750 c 0,15,16
 547 750 547 750 507 703.5 c 128,-1,17
 467 657 467 657 467 569 c 2,18,-1
 467 0 l 1,19,-1
 98 0 l 1,20,-1
 98 1444 l 1,0,-1
-74 1350 m 1,21,-1
 680 1350 l 1,22,-1
 680 1126 l 1,23,-1
 -74 1126 l 1,24,-1
 -74 1350 l 1,21,-1
EndSplineSet
EndChar

StartChar: dotlessi
Encoding: 305 305 213
Width: 1228
GlyphClass: 2
Flags: W
AnchorPoint: "Anchor-2" 938 0 basechar 0
AnchorPoint: "Anchor-1" 639 1055 basechar 0
AnchorPoint: "Anchor-0" 614 0 basechar 0
LayerCount: 2
Fore
SplineSet
463 909 m 1,0,-1
 831 1055 l 1,1,-1
 831 143 l 1,2,-1
 463 143 l 1,3,-1
 463 909 l 1,0,-1
145 297 m 1,4,-1
 1139 297 l 1,5,-1
 1139 0 l 1,6,-1
 145 0 l 1,7,-1
 145 297 l 1,4,-1
170 1055 m 1,8,-1
 831 1055 l 1,9,-1
 649 758 l 1,10,-1
 170 758 l 1,11,-1
 170 1055 l 1,8,-1
EndSplineSet
EndChar

StartChar: uni0237
Encoding: 567 567 221
Width: 1228
GlyphClass: 2
Flags: W
AnchorPoint: "Anchor-1" 778 1055 basechar 0
AnchorPoint: "Anchor-0" 614 -338 basechar 0
LayerCount: 2
Fore
SplineSet
410 -31 m 2,0,1
 498 -31 498 -31 550 12 c 128,-1,2
 602 55 602 55 602 147 c 2,3,-1
 602 911 l 1,4,-1
 971 1055 l 1,5,-1
 971 117 l 2,6,7
 971 -123 971 -123 845 -230.5 c 128,-1,8
 719 -338 719 -338 506 -338 c 2,9,-1
 174 -338 l 1,10,-1
 174 -31 l 1,11,-1
 410 -31 l 2,0,1
244 1055 m 1,12,-1
 971 1055 l 1,13,-1
 705 748 l 1,14,-1
 244 748 l 1,15,-1
 244 1055 l 1,12,-1
EndSplineSet
EndChar

StartChar: lcaron
Encoding: 318 318 224
Width: 1228
GlyphClass: 2
Flags: W
AnchorPoint: "Anchor-1" 614 1444 basechar 0
AnchorPoint: "Anchor-0" 614 0 basechar 0
LayerCount: 2
Fore
SplineSet
463 1298 m 1,0,-1
 831 1444 l 1,1,-1
 831 143 l 1,2,-1
 463 143 l 1,3,-1
 463 1298 l 1,0,-1
145 297 m 1,4,-1
 1139 297 l 1,5,-1
 1139 0 l 1,6,-1
 145 0 l 1,7,-1
 145 297 l 1,4,-1
170 1444 m 1,8,-1
 831 1444 l 1,9,-1
 649 1147 l 1,10,-1
 170 1147 l 1,11,-1
 170 1444 l 1,8,-1
920 1444 m 1,12,-1
 1184 1444 l 1,13,-1
 1083 1116 l 1,14,-1
 862 1116 l 1,15,-1
 920 1444 l 1,12,-1
EndSplineSet
EndChar

StartChar: ldot
Encoding: 320 320 226
Width: 1228
GlyphClass: 2
Flags: W
AnchorPoint: "Anchor-1" 614 1444 basechar 0
AnchorPoint: "Anchor-0" 614 0 basechar 0
LayerCount: 2
Fore
SplineSet
463 1298 m 1,0,-1
 831 1444 l 1,1,-1
 831 143 l 1,2,-1
 463 143 l 1,3,-1
 463 1298 l 1,0,-1
145 297 m 1,4,-1
 1139 297 l 1,5,-1
 1139 0 l 1,6,-1
 145 0 l 1,7,-1
 145 297 l 1,4,-1
170 1444 m 1,8,-1
 831 1444 l 1,9,-1
 649 1147 l 1,10,-1
 170 1147 l 1,11,-1
 170 1444 l 1,8,-1
1084.5 655.5 m 128,-1,13
 1026 711 1026 711 1026 803 c 0,14,15
 1026 897 1026 897 1084.5 951.5 c 128,-1,16
 1143 1006 1143 1006 1229 1006 c 256,17,18
 1315 1006 1315 1006 1373.5 951.5 c 128,-1,19
 1432 897 1432 897 1432 803 c 0,20,21
 1432 711 1432 711 1373.5 655.5 c 128,-1,22
 1315 600 1315 600 1229 600 c 256,23,12
 1143 600 1143 600 1084.5 655.5 c 128,-1,13
EndSplineSet
Ligature2: "Ligature Substitution lookup 32 subtable" l periodcentered
Substitution2: "'ss06' Style Set 6 in Latin lookup 28 subtable" ldot.ss06
Substitution2: "'aalt' Access All Alternates in Latin lookup 0 subtable" ldot.ss06
EndChar

StartChar: lslash
Encoding: 322 322 227
Width: 1228
GlyphClass: 2
Flags: W
AnchorPoint: "Anchor-1" 614 1444 basechar 0
AnchorPoint: "Anchor-0" 614 0 basechar 0
LayerCount: 2
Fore
SplineSet
463 1298 m 1,0,-1
 831 1444 l 1,1,-1
 831 143 l 1,2,-1
 463 143 l 1,3,-1
 463 1298 l 1,0,-1
145 297 m 1,4,-1
 1139 297 l 1,5,-1
 1139 0 l 1,6,-1
 145 0 l 1,7,-1
 145 297 l 1,4,-1
170 1444 m 1,8,-1
 831 1444 l 1,9,-1
 649 1147 l 1,10,-1
 170 1147 l 1,11,-1
 170 1444 l 1,8,-1
186 711 m 1,12,-1
 1108 975 l 1,13,-1
 1108 737 l 1,14,-1
 186 471 l 1,15,-1
 186 711 l 1,12,-1
EndSplineSet
EndChar

StartChar: eng
Encoding: 331 331 232
Width: 1228
GlyphClass: 2
Flags: W
AnchorPoint: "Anchor-1" 614 1055 basechar 0
AnchorPoint: "Anchor-0" 614 0 basechar 0
LayerCount: 2
Fore
SplineSet
106 1055 m 1,0,-1
 455 1055 l 1,1,-1
 455 901 l 1,2,-1
 471 901 l 1,3,4
 506 985 506 985 589 1035 c 128,-1,5
 672 1085 672 1085 776 1085 c 0,6,7
 944 1085 944 1085 1038.5 981 c 128,-1,8
 1133 877 1133 877 1133 690 c 2,9,-1
 1133 0 l 1,10,-1
 764 0 l 1,11,-1
 764 592 l 2,12,13
 764 670 764 670 727 713 c 128,-1,14
 690 756 690 756 623 756 c 0,15,16
 551 756 551 756 513 710 c 128,-1,17
 475 664 475 664 475 573 c 2,18,-1
 475 0 l 1,19,-1
 106 0 l 1,20,-1
 106 1055 l 1,0,-1
724 -365.5 m 128,-1,22
 696 -362 696 -362 657 -354 c 1,23,-1
 657 -121 l 1,24,25
 682 -127 682 -127 700 -127 c 0,26,27
 733 -127 733 -127 748.5 -111.5 c 128,-1,28
 764 -96 764 -96 764 -66 c 2,29,-1
 764 6 l 1,30,-1
 1133 6 l 1,31,-1
 1133 -78 l 2,32,33
 1133 -234 1133 -234 1045.5 -301.5 c 128,-1,34
 958 -369 958 -369 803 -369 c 0,35,21
 752 -369 752 -369 724 -365.5 c 128,-1,22
EndSplineSet
EndChar

StartChar: uni0272
Encoding: 626 626 233
Width: 1228
GlyphClass: 2
Flags: W
AnchorPoint: "Anchor-1" 614 1055 basechar 0
AnchorPoint: "Anchor-0" 614 0 basechar 0
LayerCount: 2
Fore
SplineSet
106 1055 m 1,0,-1
 455 1055 l 1,1,-1
 455 901 l 1,2,-1
 471 901 l 1,3,4
 506 985 506 985 589 1035 c 128,-1,5
 672 1085 672 1085 776 1085 c 0,6,7
 944 1085 944 1085 1038.5 981 c 128,-1,8
 1133 877 1133 877 1133 690 c 2,9,-1
 1133 0 l 1,10,-1
 764 0 l 1,11,-1
 764 592 l 2,12,13
 764 670 764 670 727 713 c 128,-1,14
 690 756 690 756 623 756 c 0,15,16
 551 756 551 756 513 710 c 128,-1,17
 475 664 475 664 475 573 c 2,18,-1
 475 0 l 1,19,-1
 106 0 l 1,20,-1
 106 1055 l 1,0,-1
66.5 -365.5 m 128,-1,22
 39 -362 39 -362 0 -354 c 1,23,-1
 0 -121 l 1,24,25
 25 -127 25 -127 43 -127 c 0,26,27
 76 -127 76 -127 91 -111.5 c 128,-1,28
 106 -96 106 -96 106 -66 c 2,29,-1
 106 6 l 1,30,-1
 475 6 l 1,31,-1
 475 -78 l 2,32,33
 475 -234 475 -234 388 -301.5 c 128,-1,34
 301 -369 301 -369 145 -369 c 0,35,21
 94 -369 94 -369 66.5 -365.5 c 128,-1,22
EndSplineSet
EndChar

StartChar: oe
Encoding: 339 339 239
Width: 1228
GlyphClass: 2
Flags: W
AnchorPoint: "Anchor-1" 614 1055 basechar 0
AnchorPoint: "Anchor-0" 614 0 basechar 0
LayerCount: 2
Fore
SplineSet
108.5 119.5 m 128,-1,1
 14 270 14 270 14 528 c 0,2,3
 14 784 14 784 108.5 934.5 c 128,-1,4
 203 1085 203 1085 377 1085 c 0,5,6
 469 1085 469 1085 542.5 1044.5 c 128,-1,7
 616 1004 616 1004 645 938 c 1,8,-1
 606 938 l 1,9,10
 637 1006 637 1006 707.5 1045.5 c 128,-1,11
 778 1085 778 1085 872 1085 c 0,12,13
 1040 1085 1040 1085 1128.5 958 c 128,-1,14
 1217 831 1217 831 1214 588 c 0,15,16
 1214 551 1214 551 1214 514 c 256,17,18
 1214 477 1214 477 1206 424 c 1,19,-1
 657 424 l 1,20,-1
 657 633 l 1,21,-1
 922 633 l 1,22,23
 922 744 922 744 905.5 789 c 128,-1,24
 889 834 889 834 850 834 c 0,25,26
 817 834 817 834 801.5 808 c 128,-1,27
 786 782 786 782 779 715.5 c 128,-1,28
 772 649 772 649 772 516 c 0,29,30
 772 401 772 401 778 342 c 128,-1,31
 784 283 784 283 800.5 258 c 128,-1,32
 817 233 817 233 850 233 c 0,33,34
 879 233 879 233 896 252.5 c 128,-1,35
 913 272 913 272 911 305 c 1,36,-1
 1202 305 l 1,37,38
 1204 151 1204 151 1116 60 c 128,-1,39
 1028 -31 1028 -31 879 -31 c 0,40,41
 779 -31 779 -31 708 8 c 128,-1,42
 637 47 637 47 606 117 c 1,43,-1
 645 117 l 1,44,45
 616 51 616 51 542.5 10 c 128,-1,46
 469 -31 469 -31 377 -31 c 0,47,0
 203 -31 203 -31 108.5 119.5 c 128,-1,1
481.5 301 m 128,-1,49
 506 377 506 377 506 528 c 256,50,51
 506 680 506 680 481.5 754.5 c 128,-1,52
 457 829 457 829 403 829 c 256,53,54
 350 829 350 829 325.5 754.5 c 128,-1,55
 301 680 301 680 301 528 c 256,56,57
 301 376 301 376 325.5 300.5 c 128,-1,58
 350 225 350 225 403 225 c 256,59,48
 457 225 457 225 481.5 301 c 128,-1,49
EndSplineSet
EndChar

StartChar: ordfeminine
Encoding: 170 170 243
Width: 1228
GlyphClass: 1
Flags: W
LayerCount: 2
Fore
SplineSet
281.5 772 m 128,-1,1
 203 846 203 846 203 958 c 0,2,3
 203 1067 203 1067 267.5 1131.5 c 128,-1,4
 332 1196 332 1196 463 1223 c 2,5,-1
 639 1257 l 2,6,7
 680 1265 680 1265 698.5 1282.5 c 128,-1,8
 717 1300 717 1300 717 1335 c 0,9,10
 717 1374 717 1374 688 1396.5 c 128,-1,11
 659 1419 659 1419 608 1419 c 256,12,13
 557 1419 557 1419 525.5 1392.5 c 128,-1,14
 494 1366 494 1366 489 1321 c 1,15,-1
 223 1321 l 1,16,17
 223 1399 223 1399 273.5 1463.5 c 128,-1,18
 324 1528 324 1528 412 1565 c 128,-1,19
 500 1602 500 1602 608 1602 c 0,20,21
 784 1602 784 1602 883.5 1528 c 128,-1,22
 983 1454 983 1454 983 1323 c 2,23,-1
 983 979 l 2,24,25
 983 934 983 934 1024 934 c 0,26,27
 1047 934 1047 934 1053 936 c 1,28,-1
 1053 729 l 1,29,30
 1002 706 1002 706 913 707 c 0,31,32
 843 707 843 707 797.5 738.5 c 128,-1,33
 752 770 752 770 737 827 c 1,34,-1
 725 827 l 1,35,36
 696 768 696 768 630.5 733 c 128,-1,37
 565 698 565 698 483 698 c 0,38,0
 360 698 360 698 281.5 772 c 128,-1,1
676 922 m 128,-1,40
 715 963 715 963 715 1034 c 2,41,-1
 715 1141 l 1,42,43
 695 1125 695 1125 641 1110 c 2,44,-1
 553 1087 l 2,45,46
 506 1075 506 1075 483.5 1049.5 c 128,-1,47
 461 1024 461 1024 461 985 c 0,48,49
 461 938 461 938 490.5 909.5 c 128,-1,50
 520 881 520 881 569 881 c 0,51,39
 637 881 637 881 676 922 c 128,-1,40
EndSplineSet
EndChar

StartChar: ordmasculine
Encoding: 186 186 244
Width: 1228
GlyphClass: 1
Flags: W
LayerCount: 2
Fore
SplineSet
390 755.5 m 128,-1,1
 293 813 293 813 238.5 915.5 c 128,-1,2
 184 1018 184 1018 184 1151 c 256,3,4
 184 1284 184 1284 238.5 1386.5 c 128,-1,5
 293 1489 293 1489 390 1545.5 c 128,-1,6
 487 1602 487 1602 614 1602 c 256,7,8
 741 1602 741 1602 838.5 1545.5 c 128,-1,9
 936 1489 936 1489 990 1386.5 c 128,-1,10
 1044 1284 1044 1284 1044 1151 c 256,11,12
 1044 1018 1044 1018 990 915.5 c 128,-1,13
 936 813 936 813 838.5 755.5 c 128,-1,14
 741 698 741 698 614 698 c 256,15,0
 487 698 487 698 390 755.5 c 128,-1,1
729 980 m 128,-1,17
 772 1042 772 1042 772 1151 c 256,18,19
 772 1260 772 1260 729 1322 c 128,-1,20
 686 1384 686 1384 614 1384 c 256,21,22
 542 1384 542 1384 499.5 1322 c 128,-1,23
 457 1260 457 1260 457 1151 c 256,24,25
 457 1042 457 1042 500 980 c 128,-1,26
 543 918 543 918 614 918 c 256,27,16
 686 918 686 918 729 980 c 128,-1,17
EndSplineSet
EndChar

StartChar: oslash
Encoding: 248 248 245
Width: 1228
GlyphClass: 2
Flags: W
AnchorPoint: "Anchor-2" 831 0 basechar 0
AnchorPoint: "Anchor-1" 614 1055 basechar 0
AnchorPoint: "Anchor-0" 614 0 basechar 0
LayerCount: 2
Fore
SplineSet
329 39 m 128,-1,1
 205 109 205 109 136.5 235.5 c 128,-1,2
 68 362 68 362 68 528 c 0,3,4
 68 692 68 692 136.5 819 c 128,-1,5
 205 946 205 946 329 1015.5 c 128,-1,6
 453 1085 453 1085 614 1085 c 256,7,8
 776 1085 776 1085 900 1015.5 c 128,-1,9
 1024 946 1024 946 1092.5 819 c 128,-1,10
 1161 692 1161 692 1161 528 c 0,11,12
 1161 362 1161 362 1092.5 235.5 c 128,-1,13
 1024 109 1024 109 900 39 c 128,-1,14
 776 -31 776 -31 614 -31 c 256,15,0
 453 -31 453 -31 329 39 c 128,-1,1
738 338 m 128,-1,17
 784 408 784 408 784 528 c 256,18,19
 784 649 784 649 738 718.5 c 128,-1,20
 692 788 692 788 614 788 c 256,21,22
 536 788 536 788 490 718.5 c 128,-1,23
 444 649 444 649 444 528 c 256,24,25
 444 407 444 407 490.5 337.5 c 128,-1,26
 537 268 537 268 614 268 c 256,27,16
 692 268 692 268 738 338 c 128,-1,17
954 1085 m 1,28,-1
 1161 1085 l 1,29,-1
 274 -31 l 1,30,-1
 68 -31 l 1,31,-1
 954 1085 l 1,28,-1
EndSplineSet
EndChar

StartChar: oslashacute
Encoding: 511 511 246
Width: 1228
GlyphClass: 2
Flags: W
AnchorPoint: "Anchor-2" 831 0 basechar 0
AnchorPoint: "Anchor-1" 614 1055 basechar 0
AnchorPoint: "Anchor-0" 614 0 basechar 0
LayerCount: 2
Fore
SplineSet
329 39 m 128,-1,1
 205 109 205 109 136.5 235.5 c 128,-1,2
 68 362 68 362 68 528 c 0,3,4
 68 692 68 692 136.5 819 c 128,-1,5
 205 946 205 946 329 1015.5 c 128,-1,6
 453 1085 453 1085 614 1085 c 256,7,8
 776 1085 776 1085 900 1015.5 c 128,-1,9
 1024 946 1024 946 1092.5 819 c 128,-1,10
 1161 692 1161 692 1161 528 c 0,11,12
 1161 362 1161 362 1092.5 235.5 c 128,-1,13
 1024 109 1024 109 900 39 c 128,-1,14
 776 -31 776 -31 614 -31 c 256,15,0
 453 -31 453 -31 329 39 c 128,-1,1
738 338 m 128,-1,17
 784 408 784 408 784 528 c 256,18,19
 784 649 784 649 738 718.5 c 128,-1,20
 692 788 692 788 614 788 c 256,21,22
 536 788 536 788 490 718.5 c 128,-1,23
 444 649 444 649 444 528 c 256,24,25
 444 407 444 407 490.5 337.5 c 128,-1,26
 537 268 537 268 614 268 c 256,27,16
 692 268 692 268 738 338 c 128,-1,17
954 1085 m 1,28,-1
 1161 1085 l 1,29,-1
 274 -31 l 1,30,-1
 68 -31 l 1,31,-1
 954 1085 l 1,28,-1
631 1556 m 1,32,-1
 1036 1556 l 1,33,-1
 780 1219 l 1,34,-1
 449 1219 l 1,35,-1
 631 1556 l 1,32,-1
EndSplineSet
EndChar

StartChar: tbar
Encoding: 359 359 256
Width: 1228
GlyphClass: 1
Flags: W
LayerCount: 2
Fore
SplineSet
508 61.5 m 128,-1,1
 410 154 410 154 410 311 c 2,2,-1
 410 727 l 1,3,-1
 139 727 l 1,4,-1
 139 1004 l 1,5,-1
 313 1004 l 2,6,7
 372 1004 372 1004 401 1032.5 c 128,-1,8
 430 1061 430 1061 430 1120 c 2,9,-1
 430 1311 l 1,10,-1
 778 1311 l 1,11,-1
 778 1024 l 1,12,-1
 1092 1024 l 1,13,-1
 1092 727 l 1,14,-1
 778 727 l 1,15,-1
 778 406 l 2,16,17
 778 351 778 351 813 327 c 128,-1,18
 848 303 848 303 911 303 c 0,19,20
 1022 303 1022 303 1092 324 c 1,21,-1
 1092 23 l 1,22,23
 1039 -2 1039 -2 955.5 -16.5 c 128,-1,24
 872 -31 872 -31 784 -31 c 0,25,0
 606 -31 606 -31 508 61.5 c 128,-1,1
139 633 m 1,26,-1
 1092 633 l 1,27,-1
 1092 410 l 1,28,-1
 139 410 l 1,29,-1
 139 633 l 1,26,-1
EndSplineSet
EndChar

StartChar: tcaron
Encoding: 357 357 257
Width: 1228
GlyphClass: 2
Flags: W
AnchorPoint: "Anchor-1" 614 1311 basechar 0
AnchorPoint: "Anchor-0" 614 0 basechar 0
LayerCount: 2
Fore
SplineSet
510 60.5 m 128,-1,1
 410 152 410 152 410 311 c 2,2,-1
 410 727 l 1,3,-1
 139 727 l 1,4,-1
 139 1004 l 1,5,-1
 313 1004 l 2,6,7
 372 1004 372 1004 401 1032.5 c 128,-1,8
 430 1061 430 1061 430 1120 c 2,9,-1
 430 1311 l 1,10,-1
 778 1311 l 1,11,-1
 778 1024 l 1,12,-1
 1092 1024 l 1,13,-1
 1092 727 l 1,14,-1
 778 727 l 1,15,-1
 778 406 l 2,16,17
 778 355 778 355 811 329 c 128,-1,18
 844 303 844 303 911 303 c 0,19,20
 1028 303 1028 303 1092 324 c 1,21,-1
 1092 23 l 1,22,23
 1041 -2 1041 -2 959 -16.5 c 128,-1,24
 877 -31 877 -31 784 -31 c 0,25,0
 610 -31 610 -31 510 60.5 c 128,-1,1
877 1444 m 1,26,-1
 1141 1444 l 1,27,-1
 1040 1116 l 1,28,-1
 819 1116 l 1,29,-1
 877 1444 l 1,26,-1
EndSplineSet
EndChar

StartChar: thorn
Encoding: 254 254 260
Width: 1228
GlyphClass: 2
Flags: W
AnchorPoint: "Anchor-1" 633 1055 basechar 0
AnchorPoint: "Anchor-0" 633 0 basechar 0
LayerCount: 2
Fore
SplineSet
92 1444 m 1,0,-1
 461 1444 l 1,1,-1
 461 901 l 1,2,-1
 477 901 l 1,3,4
 518 995 518 995 590 1040 c 128,-1,5
 662 1085 662 1085 766 1085 c 0,6,7
 887 1085 887 1085 974 1018.5 c 128,-1,8
 1061 952 1061 952 1107 825 c 128,-1,9
 1153 698 1153 698 1153 522 c 0,10,11
 1153 350 1153 350 1107 225 c 128,-1,12
 1061 100 1061 100 974 34.5 c 128,-1,13
 887 -31 887 -31 766 -31 c 0,14,15
 662 -31 662 -31 590 14 c 128,-1,16
 518 59 518 59 477 154 c 1,17,-1
 461 154 l 1,18,-1
 461 -338 l 1,19,-1
 92 -338 l 1,20,-1
 92 1444 l 1,0,-1
731 334.5 m 128,-1,22
 776 403 776 403 776 526 c 0,23,24
 776 651 776 651 731 719.5 c 128,-1,25
 686 788 686 788 606 788 c 256,26,27
 526 788 526 788 481 719.5 c 128,-1,28
 436 651 436 651 436 526 c 0,29,30
 436 403 436 403 481 334.5 c 128,-1,31
 526 266 526 266 606 266 c 256,32,21
 686 266 686 266 731 334.5 c 128,-1,22
EndSplineSet
EndChar

StartChar: germandbls
Encoding: 223 223 286
Width: 1228
GlyphClass: 1
Flags: W
LayerCount: 2
Fore
SplineSet
614 -6 m 1,1,-1
 614 305 l 1,2,3
 647 297 647 297 684 297 c 0,4,5
 737 297 737 297 770 337 c 128,-1,6
 803 377 803 377 803 444 c 0,7,8
 803 518 803 518 765 557 c 128,-1,9
 727 596 727 596 657 596 c 2,10,-1
 614 596 l 1,11,-1
 614 889 l 1,12,-1
 645 889 l 2,13,14
 684 889 684 889 710.5 904.5 c 128,-1,15
 737 920 737 920 750.5 949.5 c 128,-1,16
 764 979 764 979 764 1022 c 0,17,18
 764 1085 764 1085 727 1123 c 128,-1,19
 690 1161 690 1161 631 1161 c 0,20,21
 557 1161 557 1161 519 1121 c 128,-1,22
 481 1081 481 1081 481 1001 c 2,23,-1
 481 0 l 1,24,-1
 129 0 l 1,25,-1
 129 1008 l 2,26,27
 129 1235 129 1235 259 1355 c 128,-1,28
 389 1475 389 1475 635 1475 c 0,29,30
 780 1475 780 1475 894 1424.5 c 128,-1,31
 1008 1374 1008 1374 1071.5 1283 c 128,-1,32
 1135 1192 1135 1192 1135 1077 c 0,33,34
 1135 1001 1135 1001 1109 937.5 c 128,-1,35
 1083 874 1083 874 1036 831 c 128,-1,36
 989 788 989 788 924 770 c 1,37,-1
 924 758 l 1,38,39
 1000 744 1000 744 1056 696.5 c 128,-1,40
 1112 649 1112 649 1143 574.5 c 128,-1,41
 1174 500 1174 500 1174 408 c 0,42,43
 1174 275 1174 275 1123.5 178.5 c 128,-1,44
 1073 82 1073 82 979 31 c 128,-1,45
 885 -20 885 -20 756 -20 c 0,46,0
 694 -20 694 -20 614 -6 c 1,1,-1
EndSplineSet
Substitution2: "Single Substitution lookup 33 subtable" uni1E9E
Substitution2: "'aalt' Access All Alternates in Latin lookup 0 subtable" uni1E9E
EndChar

StartChar: eth
Encoding: 240 240 287
Width: 1228
GlyphClass: 1
Flags: W
LayerCount: 2
Fore
SplineSet
317.5 33.5 m 128,-1,1
 201 98 201 98 136.5 215 c 128,-1,2
 72 332 72 332 72 479 c 256,3,4
 72 626 72 626 132.5 741 c 128,-1,5
 193 856 193 856 294 919.5 c 128,-1,6
 395 983 395 983 514 983 c 0,7,8
 651 983 651 983 731 901 c 1,9,-1
 743 901 l 1,10,11
 641 1048 641 1048 512 1175.5 c 128,-1,12
 383 1303 383 1303 213 1444 c 1,13,-1
 621 1444 l 1,14,15
 791 1294 791 1294 904.5 1155 c 128,-1,16
 1018 1016 1018 1016 1079.5 866.5 c 128,-1,17
 1141 717 1141 717 1141 553 c 0,18,19
 1141 377 1141 377 1074.5 245 c 128,-1,20
 1008 113 1008 113 882 41 c 128,-1,21
 756 -31 756 -31 586 -31 c 0,22,0
 434 -31 434 -31 317.5 33.5 c 128,-1,1
725 322.5 m 128,-1,24
 772 379 772 379 772 477 c 256,25,26
 772 575 772 575 725 630.5 c 128,-1,27
 678 686 678 686 606 686 c 0,28,29
 536 686 536 686 487 630.5 c 128,-1,30
 438 575 438 575 438 477 c 0,31,32
 440 377 440 377 488.5 321.5 c 128,-1,33
 537 266 537 266 606 266 c 0,34,23
 678 266 678 266 725 322.5 c 128,-1,24
233 1145 m 1,35,-1
 952 1440 l 1,36,-1
 1014 1315 l 1,37,-1
 297 1016 l 1,38,-1
 233 1145 l 1,35,-1
EndSplineSet
EndChar

StartChar: comma
Encoding: 44 44 302
Width: 1228
GlyphClass: 1
Flags: W
LayerCount: 2
Fore
SplineSet
556 -135 m 128,-1,1
 598 -43 598 -43 608 61 c 1,2,-1
 725 162 l 1,3,4
 715 80 715 80 675 39 c 128,-1,5
 635 -2 635 -2 561 -2 c 0,6,7
 481 -2 481 -2 421.5 57.5 c 128,-1,8
 362 117 362 117 362 207 c 0,9,10
 362 311 362 311 427 376.5 c 128,-1,11
 492 442 492 442 596 442 c 0,12,13
 719 442 719 442 792.5 360.5 c 128,-1,14
 866 279 866 279 866 141 c 0,15,16
 866 24 866 24 824 -91.5 c 128,-1,17
 782 -207 782 -207 690 -338 c 1,18,-1
 428 -338 l 1,19,0
 514 -227 514 -227 556 -135 c 128,-1,1
EndSplineSet
Substitution2: "'ss06' Style Set 6 in Latin lookup 28 subtable" comma.ss06
Substitution2: "'aalt' Access All Alternates in Latin lookup 0 subtable" comma.ss06
EndChar

StartChar: period
Encoding: 46 46 305
Width: 1228
GlyphClass: 1
Flags: W
LayerCount: 2
Fore
SplineSet
443.5 33.5 m 128,-1,1
 375 98 375 98 375 207 c 0,2,3
 375 318 375 318 443.5 382 c 128,-1,4
 512 446 512 446 614 446 c 256,5,6
 716 446 716 446 785 381.5 c 128,-1,7
 854 317 854 317 854 207 c 0,8,9
 854 98 854 98 785.5 33.5 c 128,-1,10
 717 -31 717 -31 614 -31 c 256,11,0
 512 -31 512 -31 443.5 33.5 c 128,-1,1
EndSplineSet
Substitution2: "'ss06' Style Set 6 in Latin lookup 28 subtable" period.ss06
Substitution2: "'aalt' Access All Alternates in Latin lookup 0 subtable" period.ss06
EndChar

StartChar: hyphen
Encoding: 45 45 307
Width: 1228
GlyphClass: 1
Flags: W
LayerCount: 2
Fore
SplineSet
236 729 m 1,0,-1
 993 729 l 1,1,-1
 993 395 l 1,2,-1
 236 395 l 1,3,-1
 236 729 l 1,0,-1
EndSplineSet
Substitution2: "'case' Case-Sensitive Forms in Latin lookup 21 subtable" hyphen.case
Substitution2: "'aalt' Access All Alternates in Latin lookup 0 subtable" hyphen.case
EndChar

StartChar: exclam
Encoding: 33 33 308
Width: 1228
GlyphClass: 1
Flags: W
LayerCount: 2
Fore
SplineSet
356 1444 m 1,0,-1
 872 1444 l 1,1,-1
 776 512 l 1,2,-1
 457 512 l 1,3,-1
 356 1444 l 1,0,-1
463.5 29.5 m 128,-1,5
 403 86 403 86 403 180 c 0,6,7
 403 276 403 276 463.5 332.5 c 128,-1,8
 524 389 524 389 614 389 c 256,9,10
 704 389 704 389 764.5 332.5 c 128,-1,11
 825 276 825 276 825 180 c 0,12,13
 825 86 825 86 765 29.5 c 128,-1,14
 705 -27 705 -27 614 -27 c 256,15,4
 524 -27 524 -27 463.5 29.5 c 128,-1,5
EndSplineSet
Substitution2: "'ss06' Style Set 6 in Latin lookup 28 subtable" exclam.ss06
Substitution2: "'aalt' Access All Alternates in Latin lookup 0 subtable" exclam.ss06
EndChar

StartChar: question
Encoding: 63 63 310
Width: 1228
GlyphClass: 1
Flags: W
LayerCount: 2
Fore
SplineSet
414.5 29.5 m 128,-1,1
 354 86 354 86 354 180 c 0,2,3
 354 276 354 276 414.5 332.5 c 128,-1,4
 475 389 475 389 565 389 c 256,5,6
 655 389 655 389 715.5 332.5 c 128,-1,7
 776 276 776 276 776 180 c 0,8,9
 776 86 776 86 715.5 29.5 c 128,-1,10
 655 -27 655 -27 565 -27 c 256,11,0
 475 -27 475 -27 414.5 29.5 c 128,-1,1
403.5 734.5 m 128,-1,13
 436 793 436 793 526 844 c 2,14,-1
 631 903 l 2,15,16
 682 932 682 932 704.5 965.5 c 128,-1,17
 727 999 727 999 727 1042 c 0,18,19
 727 1089 727 1089 694.5 1117 c 128,-1,20
 662 1145 662 1145 600 1145 c 256,21,22
 539 1145 539 1145 499 1110 c 128,-1,23
 459 1075 459 1075 459 1010 c 1,24,-1
 59 1010 l 1,25,26
 59 1235 59 1235 201.5 1355 c 128,-1,27
 344 1475 344 1475 612 1475 c 0,28,29
 784 1475 784 1475 900 1416.5 c 128,-1,30
 1016 1358 1016 1358 1071 1263.5 c 128,-1,31
 1126 1169 1126 1169 1126 1063 c 0,32,33
 1126 940 1126 940 1076 855 c 128,-1,34
 1026 770 1026 770 934 715 c 2,35,-1
 805 639 l 2,36,37
 770 619 770 619 761 597 c 128,-1,38
 752 575 752 575 752 539 c 2,39,-1
 752 512 l 1,40,-1
 371 512 l 1,41,-1
 371 604 l 2,42,12
 371 676 371 676 403.5 734.5 c 128,-1,13
EndSplineSet
Substitution2: "'ss06' Style Set 6 in Latin lookup 28 subtable" question.ss06
Substitution2: "'aalt' Access All Alternates in Latin lookup 0 subtable" question.ss06
EndChar

StartChar: quoteleft
Encoding: 8216 8216 312
Width: 1228
GlyphClass: 1
Flags: W
LayerCount: 2
Fore
SplineSet
677 1258.5 m 128,-1,1
 641 1161 641 1161 631 1063 c 1,2,-1
 539 977 l 1,3,4
 549 1047 549 1047 588 1082.5 c 128,-1,5
 627 1118 627 1118 694 1118 c 0,6,7
 776 1118 776 1118 831.5 1063 c 128,-1,8
 887 1008 887 1008 887 926 c 0,9,10
 887 828 887 828 824.5 767.5 c 128,-1,11
 762 707 762 707 662 707 c 0,12,13
 549 707 549 707 479.5 786.5 c 128,-1,14
 410 866 410 866 410 999 c 0,15,16
 410 1103 410 1103 441.5 1221 c 128,-1,17
 473 1339 473 1339 537 1464 c 1,18,-1
 776 1464 l 1,19,0
 713 1356 713 1356 677 1258.5 c 128,-1,1
EndSplineSet
Substitution2: "'ss06' Style Set 6 in Latin lookup 28 subtable" quoteleft.ss06
Substitution2: "'aalt' Access All Alternates in Latin lookup 0 subtable" quoteleft.ss06
EndChar

StartChar: quoteright
Encoding: 8217 8217 313
Width: 1228
GlyphClass: 1
Flags: W
LayerCount: 2
Fore
SplineSet
585 912.5 m 128,-1,1
 621 1010 621 1010 631 1108 c 1,2,-1
 723 1194 l 1,3,4
 713 1124 713 1124 674 1088.5 c 128,-1,5
 635 1053 635 1053 567 1053 c 0,6,7
 485 1053 485 1053 430 1108 c 128,-1,8
 375 1163 375 1163 375 1245 c 0,9,10
 375 1343 375 1343 437.5 1403.5 c 128,-1,11
 500 1464 500 1464 600 1464 c 0,12,13
 713 1464 713 1464 782.5 1384.5 c 128,-1,14
 852 1305 852 1305 852 1171 c 0,15,16
 852 1067 852 1067 820 949 c 128,-1,17
 788 831 788 831 725 707 c 1,18,-1
 485 707 l 1,19,0
 549 815 549 815 585 912.5 c 128,-1,1
EndSplineSet
Substitution2: "'ss06' Style Set 6 in Latin lookup 28 subtable" quoteright.ss06
Substitution2: "'aalt' Access All Alternates in Latin lookup 0 subtable" quoteright.ss06
EndChar

StartChar: quotedblleft
Encoding: 8220 8220 314
Width: 1228
GlyphClass: 1
Flags: W
LayerCount: 2
Fore
SplineSet
370 1258.5 m 128,-1,1
 334 1161 334 1161 324 1063 c 1,2,-1
 231 977 l 1,3,4
 241 1047 241 1047 280 1082.5 c 128,-1,5
 319 1118 319 1118 387 1118 c 0,6,7
 469 1118 469 1118 524.5 1063 c 128,-1,8
 580 1008 580 1008 580 926 c 0,9,10
 580 828 580 828 517.5 767.5 c 128,-1,11
 455 707 455 707 354 707 c 0,12,13
 241 707 241 707 171.5 786.5 c 128,-1,14
 102 866 102 866 102 999 c 0,15,16
 102 1103 102 1103 134 1221 c 128,-1,17
 166 1339 166 1339 229 1464 c 1,18,-1
 469 1464 l 1,19,0
 406 1356 406 1356 370 1258.5 c 128,-1,1
916.5 1258.5 m 128,-1,21
 881 1161 881 1161 870 1063 c 1,22,-1
 778 977 l 1,23,24
 788 1047 788 1047 827 1082.5 c 128,-1,25
 866 1118 866 1118 934 1118 c 0,26,27
 1016 1118 1016 1118 1071 1063 c 128,-1,28
 1126 1008 1126 1008 1126 926 c 0,29,30
 1126 828 1126 828 1063.5 767.5 c 128,-1,31
 1001 707 1001 707 901 707 c 0,32,33
 788 707 788 707 718.5 786.5 c 128,-1,34
 649 866 649 866 649 999 c 0,35,36
 649 1103 649 1103 681 1221 c 128,-1,37
 713 1339 713 1339 776 1464 c 1,38,-1
 1016 1464 l 1,39,20
 952 1356 952 1356 916.5 1258.5 c 128,-1,21
EndSplineSet
Substitution2: "'ss06' Style Set 6 in Latin lookup 28 subtable" quotedblleft.ss06
Substitution2: "'aalt' Access All Alternates in Latin lookup 0 subtable" quotedblleft.ss06
EndChar

StartChar: quotedblright
Encoding: 8221 8221 315
Width: 1228
GlyphClass: 1
Flags: W
LayerCount: 2
Fore
SplineSet
314.5 912.5 m 128,-1,1
 350 1010 350 1010 360 1108 c 1,2,-1
 453 1194 l 1,3,4
 443 1124 443 1124 404 1088.5 c 128,-1,5
 365 1053 365 1053 297 1053 c 0,6,7
 215 1053 215 1053 159.5 1108 c 128,-1,8
 104 1163 104 1163 104 1245 c 0,9,10
 104 1343 104 1343 166.5 1403.5 c 128,-1,11
 229 1464 229 1464 330 1464 c 0,12,13
 443 1464 443 1464 512.5 1384.5 c 128,-1,14
 582 1305 582 1305 582 1171 c 0,15,16
 582 1067 582 1067 550 949 c 128,-1,17
 518 831 518 831 455 707 c 1,18,-1
 215 707 l 1,19,0
 279 815 279 815 314.5 912.5 c 128,-1,1
859 912.5 m 128,-1,21
 895 1010 895 1010 905 1108 c 1,22,-1
 997 1194 l 1,23,24
 987 1124 987 1124 948 1088.5 c 128,-1,25
 909 1053 909 1053 842 1053 c 0,26,27
 760 1053 760 1053 704.5 1108 c 128,-1,28
 649 1163 649 1163 649 1245 c 0,29,30
 649 1343 649 1343 711.5 1403.5 c 128,-1,31
 774 1464 774 1464 874 1464 c 0,32,33
 987 1464 987 1464 1056.5 1384.5 c 128,-1,34
 1126 1305 1126 1305 1126 1171 c 0,35,36
 1126 1067 1126 1067 1094.5 949 c 128,-1,37
 1063 831 1063 831 999 707 c 1,38,-1
 760 707 l 1,39,20
 823 815 823 815 859 912.5 c 128,-1,21
EndSplineSet
Substitution2: "'ss06' Style Set 6 in Latin lookup 28 subtable" quotedblright.ss06
Substitution2: "'aalt' Access All Alternates in Latin lookup 0 subtable" quotedblright.ss06
EndChar

StartChar: quotesinglbase
Encoding: 8218 8218 316
Width: 1228
GlyphClass: 1
Flags: W
LayerCount: 2
Fore
SplineSet
593 -140.5 m 128,-1,1
 629 -43 629 -43 639 55 c 1,2,-1
 731 141 l 1,3,4
 721 71 721 71 682 35.5 c 128,-1,5
 643 0 643 0 575 0 c 0,6,7
 493 0 493 0 438 55.5 c 128,-1,8
 383 111 383 111 383 193 c 0,9,10
 383 291 383 291 445.5 351.5 c 128,-1,11
 508 412 508 412 608 412 c 0,12,13
 721 412 721 412 790.5 332 c 128,-1,14
 860 252 860 252 860 119 c 0,15,16
 860 15 860 15 828.5 -103 c 128,-1,17
 797 -221 797 -221 733 -346 c 1,18,-1
 494 -346 l 1,19,0
 557 -238 557 -238 593 -140.5 c 128,-1,1
EndSplineSet
Substitution2: "'ss06' Style Set 6 in Latin lookup 28 subtable" quotesinglbase.ss06
Substitution2: "'aalt' Access All Alternates in Latin lookup 0 subtable" quotesinglbase.ss06
EndChar

StartChar: quotedblbase
Encoding: 8222 8222 317
Width: 1228
GlyphClass: 1
Flags: W
LayerCount: 2
Fore
SplineSet
316.5 -140.5 m 128,-1,1
 352 -43 352 -43 362 55 c 1,2,-1
 455 141 l 1,3,4
 445 71 445 71 406 35.5 c 128,-1,5
 367 0 367 0 299 0 c 0,6,7
 217 0 217 0 161.5 55.5 c 128,-1,8
 106 111 106 111 106 193 c 0,9,10
 106 291 106 291 168.5 351.5 c 128,-1,11
 231 412 231 412 332 412 c 0,12,13
 445 412 445 412 514.5 332 c 128,-1,14
 584 252 584 252 584 119 c 0,15,16
 584 15 584 15 552 -103 c 128,-1,17
 520 -221 520 -221 457 -346 c 1,18,-1
 217 -346 l 1,19,0
 281 -238 281 -238 316.5 -140.5 c 128,-1,1
857 -140.5 m 128,-1,21
 893 -43 893 -43 903 55 c 1,22,-1
 995 141 l 1,23,24
 985 71 985 71 946 35.5 c 128,-1,25
 907 0 907 0 840 0 c 0,26,27
 758 0 758 0 702.5 55.5 c 128,-1,28
 647 111 647 111 647 193 c 0,29,30
 647 291 647 291 709.5 351.5 c 128,-1,31
 772 412 772 412 872 412 c 0,32,33
 985 412 985 412 1054.5 332 c 128,-1,34
 1124 252 1124 252 1124 119 c 0,35,36
 1124 15 1124 15 1092.5 -103 c 128,-1,37
 1061 -221 1061 -221 997 -346 c 1,38,-1
 758 -346 l 1,39,20
 821 -238 821 -238 857 -140.5 c 128,-1,21
EndSplineSet
Substitution2: "'ss06' Style Set 6 in Latin lookup 28 subtable" quotedblbase.ss06
Substitution2: "'aalt' Access All Alternates in Latin lookup 0 subtable" quotedblbase.ss06
EndChar

StartChar: guilsinglleft
Encoding: 8249 8249 318
Width: 1228
GlyphClass: 1
Flags: W
LayerCount: 2
Fore
SplineSet
266 461 m 1,0,-1
 266 723 l 1,1,-1
 547 1042 l 1,2,-1
 963 1042 l 1,3,-1
 492 524 l 1,4,-1
 492 659 l 1,5,-1
 963 141 l 1,6,-1
 547 141 l 1,7,-1
 266 461 l 1,0,-1
EndSplineSet
Substitution2: "'case' Case-Sensitive Forms in Latin lookup 21 subtable" guilsinglleft.case
Substitution2: "'aalt' Access All Alternates in Latin lookup 0 subtable" guilsinglleft.case
EndChar

StartChar: slash
Encoding: 47 47 321
Width: 1228
GlyphClass: 1
Flags: W
LayerCount: 2
Fore
SplineSet
754 1577 m 1,0,-1
 1100 1577 l 1,1,-1
 479 -205 l 1,2,-1
 129 -205 l 1,3,-1
 754 1577 l 1,0,-1
EndSplineSet
Substitution2: "'case' Case-Sensitive Forms in Latin lookup 21 subtable" slash.case
Substitution2: "'frac' Diagonal Fractions in Latin lookup 16 subtable" fraction
AlternateSubs2: "'aalt' Access All Alternates in Latin lookup 1 subtable" fraction slash.case
EndChar

StartChar: bar
Encoding: 124 124 322
Width: 1228
GlyphClass: 1
Flags: W
LayerCount: 2
Fore
SplineSet
451 1577 m 1,0,-1
 778 1577 l 1,1,-1
 778 -205 l 1,2,-1
 451 -205 l 1,3,-1
 451 1577 l 1,0,-1
EndSplineSet
Substitution2: "'case' Case-Sensitive Forms in Latin lookup 21 subtable" bar.case
Substitution2: "'aalt' Access All Alternates in Latin lookup 0 subtable" bar.case
EndChar

StartChar: endash
Encoding: 8211 8211 323
Width: 1228
GlyphClass: 1
Flags: W
LayerCount: 2
Fore
SplineSet
102 729 m 1,0,-1
 1126 729 l 1,1,-1
 1126 395 l 1,2,-1
 102 395 l 1,3,-1
 102 729 l 1,0,-1
EndSplineSet
Substitution2: "'case' Case-Sensitive Forms in Latin lookup 21 subtable" endash.case
Substitution2: "'aalt' Access All Alternates in Latin lookup 0 subtable" endash.case
EndChar

StartChar: emdash
Encoding: 8212 8212 324
Width: 1228
GlyphClass: 1
Flags: W
LayerCount: 2
Fore
SplineSet
0 729 m 1,0,-1
 1229 729 l 1,1,-1
 1229 395 l 1,2,-1
 0 395 l 1,3,-1
 0 729 l 1,0,-1
EndSplineSet
Substitution2: "'case' Case-Sensitive Forms in Latin lookup 21 subtable" emdash.case
Substitution2: "'aalt' Access All Alternates in Latin lookup 0 subtable" emdash.case
EndChar

StartChar: bullet
Encoding: 8226 8226 325
Width: 1228
GlyphClass: 1
Flags: W
LayerCount: 2
Fore
SplineSet
456.5 302 m 128,-1,1
 383 346 383 346 341 421 c 128,-1,2
 299 496 299 496 299 584 c 0,3,4
 299 668 299 668 341 740.5 c 128,-1,5
 383 813 383 813 456.5 857 c 128,-1,6
 530 901 530 901 618 901 c 0,7,8
 704 901 704 901 776 857 c 128,-1,9
 848 813 848 813 889 740.5 c 128,-1,10
 930 668 930 668 930 584 c 0,11,12
 930 496 930 496 889 421 c 128,-1,13
 848 346 848 346 776.5 302 c 128,-1,14
 705 258 705 258 618 258 c 0,15,0
 530 258 530 258 456.5 302 c 128,-1,1
EndSplineSet
Substitution2: "'ss06' Style Set 6 in Latin lookup 28 subtable" bullet.ss06
Substitution2: "'case' Case-Sensitive Forms in Latin lookup 21 subtable" bullet.case
AlternateSubs2: "'aalt' Access All Alternates in Latin lookup 1 subtable" bullet.case bullet.ss06
EndChar

StartChar: parenleft
Encoding: 40 40 326
Width: 1228
GlyphClass: 1
Flags: W
LayerCount: 2
Fore
SplineSet
393 686 m 256,1,2
 393 1128 393 1128 690 1577 c 1,3,-1
 1038 1577 l 1,4,5
 891 1382 891 1382 816 1153 c 128,-1,6
 741 924 741 924 741 686 c 256,7,8
 741 448 741 448 816 219 c 128,-1,9
 891 -10 891 -10 1038 -205 c 1,10,-1
 690 -205 l 1,11,0
 393 244 393 244 393 686 c 256,1,2
EndSplineSet
Substitution2: "'case' Case-Sensitive Forms in Latin lookup 21 subtable" parenleft.case
Substitution2: "'sups' Superscript in Latin lookup 13 subtable" uni207D
Substitution2: "'sinf' Scientific Inferiors in Latin lookup 12 subtable" uni208D
Substitution2: "'subs' Subscript in Latin lookup 11 subtable" uni208D
AlternateSubs2: "'aalt' Access All Alternates in Latin lookup 1 subtable" uni208D uni207D parenleft.case
EndChar

StartChar: bracketleft
Encoding: 91 91 328
Width: 1228
GlyphClass: 1
Flags: W
LayerCount: 2
Fore
SplineSet
319 1577 m 1,0,-1
 647 1475 l 1,1,-1
 647 -102 l 1,2,-1
 319 -205 l 1,3,-1
 319 1577 l 1,0,-1
463 47 m 1,4,-1
 909 47 l 1,5,-1
 909 -205 l 1,6,-1
 319 -205 l 1,7,-1
 463 47 l 1,4,-1
319 1577 m 1,8,-1
 909 1577 l 1,9,-1
 909 1325 l 1,10,-1
 463 1325 l 1,11,-1
 319 1577 l 1,8,-1
EndSplineSet
Substitution2: "'case' Case-Sensitive Forms in Latin lookup 21 subtable" bracketleft.case
Substitution2: "'aalt' Access All Alternates in Latin lookup 0 subtable" bracketleft.case
EndChar

StartChar: braceleft
Encoding: 123 123 330
Width: 1228
GlyphClass: 1
Flags: W
LayerCount: 2
Fore
SplineSet
548 -119 m 128,-1,1
 453 -33 453 -33 453 135 c 2,2,-1
 453 410 l 2,3,4
 453 480 453 480 419 521.5 c 128,-1,5
 385 563 385 563 326 563 c 2,6,-1
 266 563 l 1,7,-1
 266 809 l 1,8,-1
 326 809 l 2,9,10
 385 809 385 809 419 851 c 128,-1,11
 453 893 453 893 453 963 c 2,12,-1
 453 1237 l 2,13,14
 453 1405 453 1405 548 1491 c 128,-1,15
 643 1577 643 1577 829 1577 c 2,16,-1
 963 1577 l 1,17,-1
 963 1323 l 1,18,-1
 895 1323 l 2,19,20
 832 1323 832 1323 801 1292.5 c 128,-1,21
 770 1262 770 1262 770 1202 c 2,22,-1
 770 924 l 2,23,24
 770 828 770 828 727 769.5 c 128,-1,25
 684 711 684 711 580 692 c 1,26,-1
 580 680 l 1,27,28
 684 662 684 662 727 603.5 c 128,-1,29
 770 545 770 545 770 449 c 2,30,-1
 770 170 l 2,31,32
 770 111 770 111 800.5 80 c 128,-1,33
 831 49 831 49 895 49 c 2,34,-1
 963 49 l 1,35,-1
 963 -205 l 1,36,-1
 829 -205 l 2,37,0
 643 -205 643 -205 548 -119 c 128,-1,1
EndSplineSet
Substitution2: "'case' Case-Sensitive Forms in Latin lookup 21 subtable" braceleft.case
Substitution2: "'aalt' Access All Alternates in Latin lookup 0 subtable" braceleft.case
EndChar

StartChar: guillemotleft
Encoding: 171 171 333
Width: 1228
GlyphClass: 1
Flags: W
LayerCount: 2
Fore
SplineSet
57 461 m 1,0,-1
 57 723 l 1,1,-1
 309 1042 l 1,2,-1
 684 1042 l 1,3,-1
 260 524 l 1,4,-1
 260 659 l 1,5,-1
 684 141 l 1,6,-1
 309 141 l 1,7,-1
 57 461 l 1,0,-1
545 461 m 1,8,-1
 545 723 l 1,9,-1
 797 1042 l 1,10,-1
 1171 1042 l 1,11,-1
 748 524 l 1,12,-1
 748 659 l 1,13,-1
 1171 141 l 1,14,-1
 797 141 l 1,15,-1
 545 461 l 1,8,-1
EndSplineSet
Substitution2: "'case' Case-Sensitive Forms in Latin lookup 21 subtable" guillemotleft.case
Substitution2: "'aalt' Access All Alternates in Latin lookup 0 subtable" guillemotleft.case
EndChar

StartChar: zero
Encoding: 48 48 335
Width: 1228
GlyphClass: 1
Flags: W
LayerCount: 2
Fore
SplineSet
317.5 59.5 m 128,-1,1
 193 150 193 150 126 318.5 c 128,-1,2
 59 487 59 487 59 723 c 0,3,4
 59 956 59 956 126 1125 c 128,-1,5
 193 1294 193 1294 317.5 1384.5 c 128,-1,6
 442 1475 442 1475 614 1475 c 256,7,8
 786 1475 786 1475 911 1384.5 c 128,-1,9
 1036 1294 1036 1294 1102.5 1125 c 128,-1,10
 1169 956 1169 956 1169 723 c 0,11,12
 1169 487 1169 487 1102.5 318.5 c 128,-1,13
 1036 150 1036 150 911 59.5 c 128,-1,14
 786 -31 786 -31 614 -31 c 256,15,0
 442 -31 442 -31 317.5 59.5 c 128,-1,1
768 396.5 m 128,-1,17
 815 498 815 498 815 723 c 256,18,19
 815 948 815 948 768 1048.5 c 128,-1,20
 721 1149 721 1149 614 1149 c 256,21,22
 508 1149 508 1149 461 1048.5 c 128,-1,23
 414 948 414 948 414 723 c 256,24,25
 414 498 414 498 461 396.5 c 128,-1,26
 508 295 508 295 614 295 c 256,27,16
 721 295 721 295 768 396.5 c 128,-1,17
EndSplineSet
Substitution2: "'ss07' Style Set 7 in Latin lookup 29 subtable" zero.zero
Substitution2: "'zero' Slashed Zero in Latin lookup 23 subtable" zero.zero
Substitution2: "'frac' Diagonal Fractions in Latin lookup 17 subtable" zero.numr
Substitution2: "'dnom' Denominators in Latin lookup 15 subtable" zero.dnom
Substitution2: "'numr' Numerators in Latin lookup 14 subtable" zero.numr
Substitution2: "'sups' Superscript in Latin lookup 13 subtable" uni2070
Substitution2: "'sinf' Scientific Inferiors in Latin lookup 12 subtable" uni2080
Substitution2: "'subs' Subscript in Latin lookup 11 subtable" uni2080
AlternateSubs2: "'aalt' Access All Alternates in Latin lookup 1 subtable" zero.zero zero.dnom zero.numr uni2080 uni2070
EndChar

StartChar: one
Encoding: 49 49 336
Width: 1228
GlyphClass: 1
Flags: W
LayerCount: 2
Fore
SplineSet
444 918 m 1,0,-1
 121 918 l 1,1,-1
 121 1180 l 1,2,3
 244 1184 244 1184 320.5 1211.5 c 128,-1,4
 397 1239 397 1239 437 1295.5 c 128,-1,5
 477 1352 477 1352 487 1444 c 1,6,-1
 823 1444 l 1,7,-1
 823 143 l 1,8,-1
 444 143 l 1,9,-1
 444 918 l 1,0,-1
121 307 m 1,10,-1
 1147 307 l 1,11,-1
 1147 0 l 1,12,-1
 121 0 l 1,13,-1
 121 307 l 1,10,-1
EndSplineSet
Substitution2: "'frac' Diagonal Fractions in Latin lookup 17 subtable" one.numr
Substitution2: "'dnom' Denominators in Latin lookup 15 subtable" one.dnom
Substitution2: "'numr' Numerators in Latin lookup 14 subtable" one.numr
Substitution2: "'sups' Superscript in Latin lookup 13 subtable" uni00B9
Substitution2: "'sinf' Scientific Inferiors in Latin lookup 12 subtable" uni2081
Substitution2: "'subs' Subscript in Latin lookup 11 subtable" uni2081
AlternateSubs2: "'aalt' Access All Alternates in Latin lookup 1 subtable" one.dnom one.numr uni2081 uni00B9
EndChar

StartChar: two
Encoding: 50 50 337
Width: 1228
GlyphClass: 1
Flags: W
LayerCount: 2
Fore
SplineSet
113 133 m 0,1,2
 113 321 113 321 188.5 451.5 c 128,-1,3
 264 582 264 582 449 709 c 2,4,-1
 608 819 l 2,5,6
 694 878 694 878 728 923.5 c 128,-1,7
 762 969 762 969 762 1026 c 0,8,9
 762 1087 762 1087 727 1124 c 128,-1,10
 692 1161 692 1161 631 1161 c 0,11,12
 559 1161 559 1161 520 1111 c 128,-1,13
 481 1061 481 1061 481 969 c 1,14,-1
 98 969 l 1,15,16
 98 1121 98 1121 164.5 1235.5 c 128,-1,17
 231 1350 231 1350 354 1412.5 c 128,-1,18
 477 1475 477 1475 639 1475 c 0,19,20
 795 1475 795 1475 906.5 1421.5 c 128,-1,21
 1018 1368 1018 1368 1078.5 1267.5 c 128,-1,22
 1139 1167 1139 1167 1139 1028 c 256,23,24
 1139 889 1139 889 1070 780.5 c 128,-1,25
 1001 672 1001 672 836 555 c 2,26,-1
 608 395 l 2,27,28
 567 366 567 366 554 348 c 128,-1,29
 541 330 541 330 541 307 c 1,30,-1
 1141 307 l 1,31,-1
 1141 0 l 1,32,-1
 123 0 l 1,33,0
 113 57 113 57 113 133 c 0,1,2
EndSplineSet
Substitution2: "'frac' Diagonal Fractions in Latin lookup 17 subtable" two.numr
Substitution2: "'dnom' Denominators in Latin lookup 15 subtable" two.dnom
Substitution2: "'numr' Numerators in Latin lookup 14 subtable" two.numr
Substitution2: "'sups' Superscript in Latin lookup 13 subtable" uni00B2
Substitution2: "'sinf' Scientific Inferiors in Latin lookup 12 subtable" uni2082
Substitution2: "'subs' Subscript in Latin lookup 11 subtable" uni2082
AlternateSubs2: "'aalt' Access All Alternates in Latin lookup 1 subtable" two.dnom two.numr uni2082 uni00B2
EndChar

StartChar: three
Encoding: 51 51 338
Width: 1228
GlyphClass: 1
Flags: W
LayerCount: 2
Fore
SplineSet
213 91 m 128,-1,1
 74 213 74 213 68 430 c 1,2,-1
 451 430 l 1,3,4
 451 364 451 364 494 323.5 c 128,-1,5
 537 283 537 283 606 283 c 0,6,7
 672 283 672 283 714 330 c 128,-1,8
 756 377 756 377 756 451 c 0,9,10
 756 521 756 521 715 563.5 c 128,-1,11
 674 606 674 606 602 606 c 2,12,-1
 420 606 l 1,13,-1
 420 879 l 1,14,-1
 588 879 l 2,15,16
 656 879 656 879 695.5 918.5 c 128,-1,17
 735 958 735 958 735 1022 c 256,18,19
 735 1085 735 1085 699.5 1123 c 128,-1,20
 664 1161 664 1161 604 1161 c 0,21,22
 543 1161 543 1161 506 1122 c 128,-1,23
 469 1083 469 1083 469 1018 c 1,24,-1
 86 1018 l 1,25,26
 92 1155 92 1155 159.5 1258.5 c 128,-1,27
 227 1362 227 1362 345 1418.5 c 128,-1,28
 463 1475 463 1475 618 1475 c 0,29,30
 847 1475 847 1475 979.5 1371.5 c 128,-1,31
 1112 1268 1112 1268 1112 1092 c 0,32,33
 1112 977 1112 977 1059 893 c 128,-1,34
 1006 809 1006 809 909 774 c 1,35,-1
 909 758 l 1,36,37
 1013 738 1013 738 1073 648.5 c 128,-1,38
 1133 559 1133 559 1133 426 c 0,39,40
 1133 291 1133 291 1066 187.5 c 128,-1,41
 999 84 999 84 877.5 26.5 c 128,-1,42
 756 -31 756 -31 596 -31 c 0,43,0
 352 -31 352 -31 213 91 c 128,-1,1
EndSplineSet
Substitution2: "'frac' Diagonal Fractions in Latin lookup 17 subtable" three.numr
Substitution2: "'dnom' Denominators in Latin lookup 15 subtable" three.dnom
Substitution2: "'numr' Numerators in Latin lookup 14 subtable" three.numr
Substitution2: "'sups' Superscript in Latin lookup 13 subtable" uni00B3
Substitution2: "'sinf' Scientific Inferiors in Latin lookup 12 subtable" uni2083
Substitution2: "'subs' Subscript in Latin lookup 11 subtable" uni2083
AlternateSubs2: "'aalt' Access All Alternates in Latin lookup 1 subtable" three.dnom three.numr uni2083 uni00B3
EndChar

StartChar: four
Encoding: 52 52 339
Width: 1228
GlyphClass: 1
Flags: W
LayerCount: 2
Fore
SplineSet
635 240 m 1,0,-1
 47 240 l 1,1,-1
 47 582 l 1,2,-1
 582 1444 l 1,3,-1
 1004 1444 l 1,4,-1
 1004 543 l 1,5,-1
 1167 543 l 1,6,-1
 1167 240 l 1,7,-1
 1004 240 l 1,8,-1
 1004 0 l 1,9,-1
 635 0 l 1,10,-1
 635 240 l 1,0,-1
635 543 m 1,11,-1
 635 815 l 2,12,13
 635 1008 635 1008 643 1075 c 1,14,-1
 627 1075 l 1,15,16
 617 1038 617 1038 584 964.5 c 128,-1,17
 551 891 551 891 516 831 c 2,18,-1
 344 543 l 1,19,-1
 635 543 l 1,11,-1
EndSplineSet
Substitution2: "'frac' Diagonal Fractions in Latin lookup 17 subtable" four.numr
Substitution2: "'dnom' Denominators in Latin lookup 15 subtable" four.dnom
Substitution2: "'numr' Numerators in Latin lookup 14 subtable" four.numr
Substitution2: "'sups' Superscript in Latin lookup 13 subtable" uni2074
Substitution2: "'sinf' Scientific Inferiors in Latin lookup 12 subtable" uni2084
Substitution2: "'subs' Subscript in Latin lookup 11 subtable" uni2084
AlternateSubs2: "'aalt' Access All Alternates in Latin lookup 1 subtable" four.dnom four.numr uni2084 uni2074
EndChar

StartChar: five
Encoding: 53 53 340
Width: 1228
GlyphClass: 1
Flags: W
LayerCount: 2
Fore
SplineSet
357.5 23.5 m 128,-1,1
 244 78 244 78 176.5 173 c 128,-1,2
 109 268 109 268 102 389 c 1,3,-1
 485 389 l 1,4,5
 499 340 499 340 537 311.5 c 128,-1,6
 575 283 575 283 623 283 c 0,7,8
 682 283 682 283 720 340 c 128,-1,9
 758 397 758 397 758 487 c 0,10,11
 758 571 758 571 719 622.5 c 128,-1,12
 680 674 680 674 618 674 c 0,13,14
 577 674 577 674 541.5 649.5 c 128,-1,15
 506 625 506 625 489 582 c 1,16,-1
 127 582 l 1,17,-1
 262 1444 l 1,18,-1
 1096 1444 l 1,19,-1
 1096 1137 l 1,20,-1
 553 1137 l 1,21,-1
 518 874 l 1,22,-1
 535 874 l 1,23,24
 568 919 568 919 623 943 c 128,-1,25
 678 967 678 967 752 967 c 0,26,27
 858 967 858 967 946 906.5 c 128,-1,28
 1034 846 1034 846 1084.5 739.5 c 128,-1,29
 1135 633 1135 633 1135 504 c 0,30,31
 1135 350 1135 350 1067 228 c 128,-1,32
 999 106 999 106 880.5 37.5 c 128,-1,33
 762 -31 762 -31 610 -31 c 0,34,0
 471 -31 471 -31 357.5 23.5 c 128,-1,1
EndSplineSet
Substitution2: "'frac' Diagonal Fractions in Latin lookup 17 subtable" five.numr
Substitution2: "'dnom' Denominators in Latin lookup 15 subtable" five.dnom
Substitution2: "'numr' Numerators in Latin lookup 14 subtable" five.numr
Substitution2: "'sups' Superscript in Latin lookup 13 subtable" uni2075
Substitution2: "'sinf' Scientific Inferiors in Latin lookup 12 subtable" uni2085
Substitution2: "'subs' Subscript in Latin lookup 11 subtable" uni2085
AlternateSubs2: "'aalt' Access All Alternates in Latin lookup 1 subtable" five.dnom five.numr uni2085 uni2075
EndChar

StartChar: six
Encoding: 54 54 341
Width: 1228
GlyphClass: 1
Flags: W
LayerCount: 2
Fore
SplineSet
351 58 m 128,-1,1
 227 147 227 147 160.5 313 c 128,-1,2
 94 479 94 479 94 702 c 0,3,4
 94 942 94 942 161.5 1116 c 128,-1,5
 229 1290 229 1290 357 1382.5 c 128,-1,6
 485 1475 485 1475 662 1475 c 0,7,8
 785 1475 785 1475 890 1425.5 c 128,-1,9
 995 1376 995 1376 1065 1289 c 128,-1,10
 1135 1202 1135 1202 1151 1094 c 1,11,-1
 768 1094 l 1,12,13
 752 1133 752 1133 724 1152 c 128,-1,14
 696 1171 696 1171 655 1171 c 0,15,16
 569 1171 569 1171 522 1081 c 128,-1,17
 475 991 475 991 475 825 c 1,18,-1
 492 825 l 1,19,20
 527 891 527 891 591 929 c 128,-1,21
 655 967 655 967 737 967 c 0,22,23
 854 967 854 967 948 905.5 c 128,-1,24
 1042 844 1042 844 1096.5 736.5 c 128,-1,25
 1151 629 1151 629 1151 494 c 0,26,27
 1151 342 1151 342 1086.5 222 c 128,-1,28
 1022 102 1022 102 906.5 35.5 c 128,-1,29
 791 -31 791 -31 643 -31 c 0,30,0
 475 -31 475 -31 351 58 c 128,-1,1
736 338 m 128,-1,32
 774 393 774 393 774 481 c 0,33,34
 774 567 774 567 736 620.5 c 128,-1,35
 698 674 698 674 637 674 c 256,36,37
 576 674 576 674 538 620.5 c 128,-1,38
 500 567 500 567 500 481 c 0,39,40
 500 393 500 393 537.5 338 c 128,-1,41
 575 283 575 283 637 283 c 256,42,31
 698 283 698 283 736 338 c 128,-1,32
EndSplineSet
Substitution2: "'frac' Diagonal Fractions in Latin lookup 17 subtable" six.numr
Substitution2: "'dnom' Denominators in Latin lookup 15 subtable" six.dnom
Substitution2: "'numr' Numerators in Latin lookup 14 subtable" six.numr
Substitution2: "'sups' Superscript in Latin lookup 13 subtable" uni2076
Substitution2: "'sinf' Scientific Inferiors in Latin lookup 12 subtable" uni2086
Substitution2: "'subs' Subscript in Latin lookup 11 subtable" uni2086
AlternateSubs2: "'aalt' Access All Alternates in Latin lookup 1 subtable" six.dnom six.numr uni2086 uni2076
EndChar

StartChar: seven
Encoding: 55 55 342
Width: 1228
GlyphClass: 1
Flags: W
LayerCount: 2
Fore
SplineSet
440.5 633 m 128,-1,1
 549 926 549 926 745 1120 c 1,2,-1
 745 1137 l 1,3,-1
 78 1137 l 1,4,-1
 78 1444 l 1,5,-1
 1133 1444 l 1,6,-1
 1133 1087 l 1,7,8
 938 913 938 913 829.5 627.5 c 128,-1,9
 721 342 721 342 721 0 c 1,10,-1
 332 0 l 1,11,0
 332 340 332 340 440.5 633 c 128,-1,1
EndSplineSet
Substitution2: "'frac' Diagonal Fractions in Latin lookup 17 subtable" seven.numr
Substitution2: "'dnom' Denominators in Latin lookup 15 subtable" seven.dnom
Substitution2: "'numr' Numerators in Latin lookup 14 subtable" seven.numr
Substitution2: "'sups' Superscript in Latin lookup 13 subtable" uni2077
Substitution2: "'sinf' Scientific Inferiors in Latin lookup 12 subtable" uni2087
Substitution2: "'subs' Subscript in Latin lookup 11 subtable" uni2087
AlternateSubs2: "'aalt' Access All Alternates in Latin lookup 1 subtable" seven.dnom seven.numr uni2087 uni2077
EndChar

StartChar: eight
Encoding: 56 56 343
Width: 1228
GlyphClass: 1
Flags: W
LayerCount: 2
Fore
SplineSet
334 21.5 m 128,-1,1
 213 74 213 74 147.5 170 c 128,-1,2
 82 266 82 266 82 395 c 0,3,4
 82 512 82 512 142.5 600 c 128,-1,5
 203 688 203 688 311 729 c 1,6,-1
 311 745 l 1,7,8
 217 784 217 784 166 866 c 128,-1,9
 115 948 115 948 115 1063 c 0,10,11
 115 1180 115 1180 180.5 1274 c 128,-1,12
 246 1368 246 1368 359.5 1421.5 c 128,-1,13
 473 1475 473 1475 614 1475 c 256,14,15
 755 1475 755 1475 869 1421.5 c 128,-1,16
 983 1368 983 1368 1047.5 1274 c 128,-1,17
 1112 1180 1112 1180 1112 1063 c 0,18,19
 1112 948 1112 948 1061 866 c 128,-1,20
 1010 784 1010 784 915 745 c 1,21,-1
 915 729 l 1,22,23
 1024 688 1024 688 1084.5 600 c 128,-1,24
 1145 512 1145 512 1145 395 c 0,25,26
 1145 266 1145 266 1079.5 170 c 128,-1,27
 1014 74 1014 74 894 21.5 c 128,-1,28
 774 -31 774 -31 614 -31 c 256,29,0
 455 -31 455 -31 334 21.5 c 128,-1,1
724 325 m 128,-1,31
 768 371 768 371 768 440 c 0,32,33
 768 508 768 508 724 554 c 128,-1,34
 680 600 680 600 614 600 c 256,35,36
 548 600 548 600 503.5 555 c 128,-1,37
 459 510 459 510 459 440 c 256,38,39
 459 370 459 370 503 324.5 c 128,-1,40
 547 279 547 279 614 279 c 0,41,30
 680 279 680 279 724 325 c 128,-1,31
706.5 920 m 128,-1,43
 743 961 743 961 743 1022 c 256,44,45
 743 1083 743 1083 706.5 1124 c 128,-1,46
 670 1165 670 1165 614 1165 c 0,47,48
 557 1165 557 1165 520 1125 c 128,-1,49
 483 1085 483 1085 483 1022 c 256,50,51
 483 959 483 959 520 919 c 128,-1,52
 557 879 557 879 614 879 c 0,53,42
 670 879 670 879 706.5 920 c 128,-1,43
EndSplineSet
Substitution2: "'frac' Diagonal Fractions in Latin lookup 17 subtable" eight.numr
Substitution2: "'dnom' Denominators in Latin lookup 15 subtable" eight.dnom
Substitution2: "'numr' Numerators in Latin lookup 14 subtable" eight.numr
Substitution2: "'sups' Superscript in Latin lookup 13 subtable" uni2078
Substitution2: "'sinf' Scientific Inferiors in Latin lookup 12 subtable" uni2088
Substitution2: "'subs' Subscript in Latin lookup 11 subtable" uni2088
AlternateSubs2: "'aalt' Access All Alternates in Latin lookup 1 subtable" eight.dnom eight.numr uni2088 uni2078
EndChar

StartChar: zero.zero
Encoding: 65541 -1 345
Width: 1228
GlyphClass: 1
Flags: W
LayerCount: 2
Fore
SplineSet
317.5 59.5 m 128,-1,1
 193 150 193 150 126 318.5 c 128,-1,2
 59 487 59 487 59 723 c 0,3,4
 59 956 59 956 126 1125 c 128,-1,5
 193 1294 193 1294 317.5 1384.5 c 128,-1,6
 442 1475 442 1475 614 1475 c 256,7,8
 786 1475 786 1475 911 1384.5 c 128,-1,9
 1036 1294 1036 1294 1102.5 1125 c 128,-1,10
 1169 956 1169 956 1169 723 c 0,11,12
 1169 487 1169 487 1102.5 318.5 c 128,-1,13
 1036 150 1036 150 911 59.5 c 128,-1,14
 786 -31 786 -31 614 -31 c 256,15,0
 442 -31 442 -31 317.5 59.5 c 128,-1,1
768 396.5 m 128,-1,17
 815 498 815 498 815 723 c 256,18,19
 815 948 815 948 768 1048.5 c 128,-1,20
 721 1149 721 1149 614 1149 c 256,21,22
 508 1149 508 1149 461 1048.5 c 128,-1,23
 414 948 414 948 414 723 c 256,24,25
 414 498 414 498 461 396.5 c 128,-1,26
 508 295 508 295 614 295 c 256,27,16
 721 295 721 295 768 396.5 c 128,-1,17
326 182 m 1,28,-1
 793 1341 l 1,29,-1
 903 1260 l 1,30,-1
 432 92 l 1,31,-1
 326 182 l 1,28,-1
EndSplineSet
EndChar

StartChar: asterisk
Encoding: 42 42 346
Width: 1228
GlyphClass: 1
Flags: W
LayerCount: 2
Fore
SplineSet
266 870 m 1,0,-1
 449 1118 l 1,1,-1
 475 1038 l 1,2,-1
 182 1130 l 1,3,-1
 262 1378 l 1,4,-1
 555 1282 l 1,5,-1
 483 1233 l 1,6,-1
 483 1536 l 1,7,-1
 745 1536 l 1,8,-1
 745 1233 l 1,9,-1
 674 1282 l 1,10,-1
 967 1378 l 1,11,-1
 1047 1130 l 1,12,-1
 754 1038 l 1,13,-1
 780 1118 l 1,14,-1
 963 870 l 1,15,-1
 752 717 l 1,16,-1
 571 967 l 1,17,-1
 657 967 l 1,18,-1
 477 717 l 1,19,-1
 266 870 l 1,0,-1
EndSplineSet
EndChar

StartChar: asciitilde
Encoding: 126 126 347
Width: 1228
GlyphClass: 1
Flags: W
LayerCount: 2
Fore
SplineSet
719 384 m 128,-1,1
 674 399 674 399 623 428 c 2,2,-1
 582 451 l 2,3,4
 549 469 549 469 520.5 479 c 128,-1,5
 492 489 492 489 471 489 c 0,6,7
 434 489 434 489 418.5 456.5 c 128,-1,8
 403 424 403 424 403 369 c 1,9,-1
 86 369 l 1,10,11
 86 605 86 605 168 737.5 c 128,-1,12
 250 870 250 870 414 870 c 0,13,14
 465 870 465 870 510 855 c 128,-1,15
 555 840 555 840 606 811 c 2,16,-1
 647 788 l 2,17,18
 719 749 719 749 756 750 c 256,19,20
 793 750 793 750 809 782.5 c 128,-1,21
 825 815 825 815 825 870 c 1,22,-1
 1143 870 l 1,23,24
 1143 634 1143 634 1061 501.5 c 128,-1,25
 979 369 979 369 815 369 c 0,26,0
 764 369 764 369 719 384 c 128,-1,1
EndSplineSet
EndChar

StartChar: backslash
Encoding: 92 92 348
Width: 1228
GlyphClass: 1
Flags: W
LayerCount: 2
Fore
SplineSet
750 -205 m 1,0,-1
 129 1577 l 1,1,-1
 475 1577 l 1,2,-1
 1100 -205 l 1,3,-1
 750 -205 l 1,0,-1
EndSplineSet
Substitution2: "'case' Case-Sensitive Forms in Latin lookup 21 subtable" backslash.case
Substitution2: "'aalt' Access All Alternates in Latin lookup 0 subtable" backslash.case
EndChar

StartChar: quotesingle
Encoding: 39 39 350
Width: 1228
GlyphClass: 1
Flags: W
LayerCount: 2
Fore
SplineSet
407.5 1134.5 m 128,-1,1
 393 1196 393 1196 393 1243 c 0,2,3
 393 1349 393 1349 454.5 1412 c 128,-1,4
 516 1475 516 1475 614 1475 c 0,5,6
 714 1475 714 1475 776 1412.5 c 128,-1,7
 838 1350 838 1350 838 1243 c 0,8,9
 838 1196 838 1196 823.5 1134.5 c 128,-1,10
 809 1073 809 1073 770 946 c 2,11,-1
 694 694 l 1,12,-1
 537 694 l 1,13,-1
 461 946 l 2,14,0
 422 1073 422 1073 407.5 1134.5 c 128,-1,1
EndSplineSet
Substitution2: "'ss06' Style Set 6 in Latin lookup 28 subtable" quotesingle.ss06
Substitution2: "'aalt' Access All Alternates in Latin lookup 0 subtable" quotesingle.ss06
EndChar

StartChar: ampersand
Encoding: 38 38 353
Width: 1228
GlyphClass: 1
Flags: W
LayerCount: 2
Fore
SplineSet
181 948 m 128,-1,1
 147 1026 147 1026 147 1106 c 0,2,3
 147 1212 147 1212 196.5 1296 c 128,-1,4
 246 1380 246 1380 335 1426.5 c 128,-1,5
 424 1473 424 1473 539 1473 c 0,6,7
 719 1473 719 1473 826.5 1375.5 c 128,-1,8
 934 1278 934 1278 934 1114 c 0,9,10
 934 1018 934 1018 899 939 c 128,-1,11
 864 860 864 860 793.5 795.5 c 128,-1,12
 723 731 723 731 610 676 c 2,13,-1
 561 651 l 1,14,-1
 449 864 l 1,15,-1
 498 893 l 2,16,17
 568 934 568 934 599.5 983 c 128,-1,18
 631 1032 631 1032 631 1100 c 0,19,20
 631 1159 631 1159 609.5 1188 c 128,-1,21
 588 1217 588 1217 543 1217 c 256,22,23
 498 1217 498 1217 476.5 1187 c 128,-1,24
 455 1157 455 1157 455 1092 c 0,25,26
 455 1037 455 1037 474.5 985.5 c 128,-1,27
 494 934 494 934 543 870 c 2,28,-1
 1212 0 l 1,29,-1
 862 0 l 1,30,-1
 301 754 l 2,31,0
 215 870 215 870 181 948 c 128,-1,1
181 89 m 128,-1,33
 61 203 61 203 61 401 c 0,34,35
 61 557 61 557 135 650 c 128,-1,36
 209 743 209 743 365 825 c 2,37,-1
 412 850 l 1,38,-1
 532 649 l 1,39,-1
 485 623 l 2,40,41
 422 588 422 588 393.5 542 c 128,-1,42
 365 496 365 496 365 426 c 0,43,44
 365 336 365 336 412 286 c 128,-1,45
 459 236 459 236 547 236 c 0,46,47
 606 236 606 236 650 255 c 128,-1,48
 694 274 694 274 735 319 c 1,49,-1
 879 102 l 1,50,51
 797 36 797 36 706.5 5.5 c 128,-1,52
 616 -25 616 -25 510 -25 c 0,53,32
 301 -25 301 -25 181 89 c 128,-1,33
868.5 497.5 m 128,-1,55
 887 573 887 573 887 705 c 1,56,-1
 1161 705 l 1,57,58
 1161 308 1161 308 956 147 c 1,59,-1
 809 375 l 1,60,54
 850 422 850 422 868.5 497.5 c 128,-1,55
EndSplineSet
EndChar

StartChar: at
Encoding: 64 64 354
Width: 1228
GlyphClass: 1
Flags: W
LayerCount: 2
Fore
SplineSet
327.5 -223.5 m 128,-1,1
 184 -117 184 -117 112.5 76.5 c 128,-1,2
 41 270 41 270 41 530 c 0,3,4
 41 927 41 927 184.5 1159 c 128,-1,5
 328 1391 328 1391 606 1391 c 0,6,7
 794 1391 794 1391 925.5 1287.5 c 128,-1,8
 1057 1184 1057 1184 1122.5 1003.5 c 128,-1,9
 1188 823 1188 823 1188 592 c 0,10,11
 1188 311 1188 311 1119.5 212 c 128,-1,12
 1051 113 1051 113 942 113 c 0,13,14
 862 113 862 113 808 149.5 c 128,-1,15
 754 186 754 186 739 254 c 1,16,-1
 729 254 l 1,17,18
 706 184 706 184 661 147.5 c 128,-1,19
 616 111 616 111 543 111 c 0,20,21
 422 111 422 111 365.5 223.5 c 128,-1,22
 309 336 309 336 309 545 c 256,23,24
 309 754 309 754 362.5 868.5 c 128,-1,25
 416 983 416 983 522 983 c 0,26,27
 575 983 575 983 617 946 c 128,-1,28
 659 909 659 909 678 838 c 1,29,-1
 688 838 l 1,30,-1
 688 958 l 1,31,-1
 899 958 l 1,32,-1
 899 446 l 2,33,34
 899 350 899 350 912.5 316.5 c 128,-1,35
 926 283 926 283 954 283 c 0,36,37
 993 283 993 283 1021 367 c 128,-1,38
 1049 451 1049 451 1049 588 c 0,39,40
 1049 774 1049 774 998.5 927.5 c 128,-1,41
 948 1081 948 1081 848 1172.5 c 128,-1,42
 748 1264 748 1264 606 1264 c 0,43,44
 399 1264 399 1264 289.5 1061 c 128,-1,45
 180 858 180 858 180 530 c 0,46,47
 180 317 180 317 235.5 151.5 c 128,-1,48
 291 -14 291 -14 401.5 -108.5 c 128,-1,49
 512 -203 512 -203 670 -203 c 2,50,-1
 920 -203 l 1,51,-1
 920 -330 l 1,52,-1
 678 -330 l 2,53,0
 471 -330 471 -330 327.5 -223.5 c 128,-1,1
673.5 374.5 m 128,-1,55
 696 432 696 432 696 545 c 1,56,-1
 696 545 l 1,57,58
 696 660 696 660 673.5 717 c 128,-1,59
 651 774 651 774 604 774 c 0,60,61
 559 774 559 774 536.5 716.5 c 128,-1,62
 514 659 514 659 514 545 c 1,63,-1
 514 545 l 1,64,65
 514 430 514 430 536.5 373.5 c 128,-1,66
 559 317 559 317 604 317 c 0,67,54
 651 317 651 317 673.5 374.5 c 128,-1,55
EndSplineSet
Substitution2: "'case' Case-Sensitive Forms in Latin lookup 21 subtable" at.case
Substitution2: "'aalt' Access All Alternates in Latin lookup 0 subtable" at.case
EndChar

StartChar: copyright
Encoding: 169 169 355
Width: 1228
GlyphClass: 1
Flags: W
LayerCount: 2
Fore
SplineSet
186.5 22.5 m 128,-1,1
 39 240 39 240 41 702 c 0,2,3
 39 1163 39 1163 186.5 1380 c 128,-1,4
 334 1597 334 1597 614 1597 c 256,5,6
 895 1597 895 1597 1042.5 1380 c 128,-1,7
 1190 1163 1190 1163 1188 702 c 0,8,9
 1190 239 1190 239 1042.5 22 c 128,-1,10
 895 -195 895 -195 614 -195 c 256,11,0
 334 -195 334 -195 186.5 22.5 c 128,-1,1
923.5 137 m 128,-1,13
 1028 315 1028 315 1028 702 c 0,14,15
 1028 1087 1028 1087 923.5 1265.5 c 128,-1,16
 819 1444 819 1444 614 1444 c 256,17,18
 409 1444 409 1444 305 1265.5 c 128,-1,19
 201 1087 201 1087 201 702 c 0,20,21
 201 315 201 315 305.5 137 c 128,-1,22
 410 -41 410 -41 614 -41 c 256,23,12
 819 -41 819 -41 923.5 137 c 128,-1,13
398 350 m 128,-1,25
 319 479 319 479 319 711 c 256,26,27
 319 942 319 942 398 1070 c 128,-1,28
 477 1198 477 1198 629 1198 c 0,29,30
 764 1198 764 1198 841 1106 c 128,-1,31
 918 1014 918 1014 926 836 c 1,32,-1
 700 836 l 1,33,34
 698 910 698 910 680 944.5 c 128,-1,35
 662 979 662 979 629 979 c 0,36,37
 586 979 586 979 566.5 912.5 c 128,-1,38
 547 846 547 846 547 711 c 0,39,40
 547 574 547 574 566.5 507 c 128,-1,41
 586 440 586 440 629 440 c 0,42,43
 662 440 662 440 680 475 c 128,-1,44
 698 510 698 510 700 584 c 1,45,-1
 926 584 l 1,46,47
 918 406 918 406 841 313.5 c 128,-1,48
 764 221 764 221 629 221 c 0,49,24
 477 221 477 221 398 350 c 128,-1,25
EndSplineSet
EndChar

StartChar: registered
Encoding: 174 174 356
Width: 1228
GlyphClass: 1
Flags: W
LayerCount: 2
Fore
SplineSet
358.5 505.5 m 128,-1,1
 244 571 244 571 178.5 689 c 128,-1,2
 113 807 113 807 113 958 c 0,3,4
 113 1105 113 1105 178.5 1223 c 128,-1,5
 244 1341 244 1341 359.5 1408 c 128,-1,6
 475 1475 475 1475 616 1475 c 256,7,8
 757 1475 757 1475 871 1408 c 128,-1,9
 985 1341 985 1341 1050.5 1223.5 c 128,-1,10
 1116 1106 1116 1106 1116 958 c 0,11,12
 1116 806 1116 806 1050.5 688.5 c 128,-1,13
 985 571 985 571 871.5 505.5 c 128,-1,14
 758 440 758 440 616 440 c 0,15,0
 473 440 473 440 358.5 505.5 c 128,-1,1
814 606 m 128,-1,17
 899 659 899 659 946 752.5 c 128,-1,18
 993 846 993 846 993 958 c 256,19,20
 993 1071 993 1071 946 1163 c 128,-1,21
 899 1255 899 1255 814 1308.5 c 128,-1,22
 729 1362 729 1362 616 1362 c 0,23,24
 501 1362 501 1362 415.5 1308.5 c 128,-1,25
 330 1255 330 1255 283 1163 c 128,-1,26
 236 1071 236 1071 236 958 c 0,27,28
 236 843 236 843 283 751 c 128,-1,29
 330 659 330 659 416 606 c 128,-1,30
 502 553 502 553 616 553 c 0,31,16
 729 553 729 553 814 606 c 128,-1,17
424 1241 m 1,32,-1
 637 1241 l 2,33,34
 735 1241 735 1241 782 1201 c 128,-1,35
 829 1161 829 1161 829 1081 c 0,36,37
 829 1032 829 1032 807.5 998.5 c 128,-1,38
 786 965 786 965 733 950 c 1,39,-1
 733 938 l 1,40,41
 780 930 780 930 797.5 910.5 c 128,-1,42
 815 891 815 891 819 846 c 2,43,-1
 827 780 l 2,44,45
 835 723 835 723 848 690 c 1,46,-1
 698 690 l 1,47,48
 684 729 684 729 682 758 c 2,49,-1
 676 825 l 2,50,51
 674 856 674 856 659.5 870.5 c 128,-1,52
 645 885 645 885 623 885 c 2,53,-1
 543 885 l 1,54,-1
 543 981 l 1,55,-1
 612 981 l 2,56,57
 647 981 647 981 665.5 1004.5 c 128,-1,58
 684 1028 684 1028 684 1071 c 0,59,60
 684 1141 684 1141 612 1141 c 2,61,-1
 567 1141 l 1,62,-1
 567 690 l 1,63,-1
 424 690 l 1,64,-1
 424 1241 l 1,32,-1
EndSplineSet
EndChar

StartChar: trademark
Encoding: 8482 8482 357
Width: 1228
GlyphClass: 1
Flags: W
LayerCount: 2
Fore
SplineSet
600 1444 m 1,0,-1
 809 1444 l 1,1,-1
 848 1241 l 2,2,3
 866 1149 866 1149 870 1100 c 1,4,-1
 877 1100 l 1,5,6
 881 1149 881 1149 899 1241 c 2,7,-1
 938 1444 l 1,8,-1
 1147 1444 l 1,9,-1
 1147 717 l 1,10,-1
 983 717 l 1,11,-1
 983 987 l 2,12,13
 983 1087 983 1087 997 1237 c 1,14,-1
 989 1237 l 1,15,16
 983 1194 983 1194 979 1172.5 c 128,-1,17
 975 1151 975 1151 969 1110 c 0,18,19
 961 1059 961 1059 950 1006 c 2,20,-1
 932 887 l 1,21,-1
 815 887 l 1,22,-1
 797 1006 l 2,23,24
 789 1061 789 1061 778 1114 c 2,25,-1
 758 1237 l 1,26,-1
 750 1237 l 1,27,28
 764 1087 764 1087 764 987 c 2,29,-1
 764 717 l 1,30,-1
 600 717 l 1,31,-1
 600 1444 l 1,0,-1
199 1362 m 1,32,-1
 399 1362 l 1,33,-1
 399 717 l 1,34,-1
 199 717 l 1,35,-1
 199 1362 l 1,32,-1
51 1444 m 1,36,-1
 547 1444 l 1,37,-1
 547 1251 l 1,38,-1
 51 1251 l 1,39,-1
 51 1444 l 1,36,-1
EndSplineSet
EndChar

StartChar: paragraph
Encoding: 182 182 358
Width: 1228
GlyphClass: 1
Flags: W
LayerCount: 2
Fore
SplineSet
245.5 491.5 m 128,-1,1
 133 561 133 561 79 677 c 128,-1,2
 25 793 25 793 25 934 c 256,3,4
 25 1075 25 1075 79 1191 c 128,-1,5
 133 1307 133 1307 245.5 1375.5 c 128,-1,6
 358 1444 358 1444 526 1444 c 2,7,-1
 545 1444 l 1,8,-1
 545 422 l 1,9,-1
 526 422 l 2,10,0
 358 422 358 422 245.5 491.5 c 128,-1,1
526 1444 m 1,11,-1
 741 1341 l 1,12,-1
 741 -307 l 1,13,-1
 526 -307 l 1,14,-1
 526 1444 l 1,11,-1
915 1341 m 1,15,-1
 1130 1444 l 1,16,-1
 1130 -307 l 1,17,-1
 915 -307 l 1,18,-1
 915 1341 l 1,15,-1
526 1444 m 1,19,-1
 1130 1444 l 1,20,-1
 1028 1239 l 1,21,-1
 629 1239 l 1,22,-1
 526 1444 l 1,19,-1
EndSplineSet
EndChar

StartChar: section
Encoding: 167 167 359
Width: 1228
GlyphClass: 1
Flags: W
LayerCount: 2
Fore
SplineSet
240.5 -259 m 128,-1,1
 98 -147 98 -147 98 68 c 1,2,-1
 453 68 l 1,3,4
 453 0 453 0 498 -39 c 128,-1,5
 543 -78 543 -78 623 -78 c 0,6,7
 693 -78 693 -78 733.5 -49 c 128,-1,8
 774 -20 774 -20 774 31 c 0,9,10
 774 76 774 76 744.5 106.5 c 128,-1,11
 715 137 715 137 657 154 c 2,12,-1
 428 217 l 2,13,14
 260 262 260 262 184.5 344 c 128,-1,15
 109 426 109 426 109 557 c 0,16,17
 109 639 109 639 140.5 703.5 c 128,-1,18
 172 768 172 768 240 809 c 1,19,-1
 240 821 l 1,20,21
 172 870 172 870 144.5 930.5 c 128,-1,22
 117 991 117 991 117 1069 c 0,23,24
 117 1262 117 1262 248 1368.5 c 128,-1,25
 379 1475 379 1475 618 1475 c 0,26,27
 843 1475 843 1475 982.5 1363 c 128,-1,28
 1122 1251 1122 1251 1122 1036 c 1,29,-1
 768 1036 l 1,30,31
 768 1104 768 1104 726 1143 c 128,-1,32
 684 1182 684 1182 608 1182 c 0,33,34
 542 1182 542 1182 503.5 1154 c 128,-1,35
 465 1126 465 1126 465 1077 c 0,36,37
 465 1032 465 1032 492.5 1004.5 c 128,-1,38
 520 977 520 977 573 963 c 2,39,-1
 809 899 l 2,40,41
 973 854 973 854 1051.5 774 c 128,-1,42
 1130 694 1130 694 1130 559 c 0,43,44
 1130 475 1130 475 1098.5 409.5 c 128,-1,45
 1067 344 1067 344 995 303 c 1,46,-1
 995 291 l 1,47,48
 1067 240 1067 240 1094.5 180.5 c 128,-1,49
 1122 121 1122 121 1122 39 c 0,50,51
 1122 -154 1122 -154 989 -262.5 c 128,-1,52
 856 -371 856 -371 612 -371 c 0,53,0
 383 -371 383 -371 240.5 -259 c 128,-1,1
825 385 m 1,55,-1
 631 342 l 1,56,57
 709 362 709 362 753 412.5 c 128,-1,58
 797 463 797 463 797 524 c 0,59,60
 797 579 797 579 760 608 c 128,-1,61
 723 637 723 637 635 662 c 2,62,-1
 537 688 l 2,63,64
 502 698 502 698 467 709 c 0,65,66
 442 717 442 717 418 725 c 1,67,-1
 606 774 l 1,68,69
 532 751 532 751 487 703 c 128,-1,70
 442 655 442 655 442 592 c 0,71,72
 442 539 442 539 478 510 c 128,-1,73
 514 481 514 481 602 455 c 2,74,-1
 692 428 l 2,75,54
 764 408 764 408 825 385 c 1,55,-1
EndSplineSet
EndChar

StartChar: asciicircum
Encoding: 94 94 360
Width: 1228
GlyphClass: 1
Flags: W
LayerCount: 2
Fore
SplineSet
504 1444 m 1,0,-1
 725 1444 l 1,1,-1
 1102 846 l 1,2,-1
 805 846 l 1,3,-1
 621 1163 l 1,4,-1
 608 1163 l 1,5,-1
 424 846 l 1,6,-1
 127 846 l 1,7,-1
 504 1444 l 1,0,-1
EndSplineSet
EndChar

StartChar: dagger
Encoding: 8224 8224 361
Width: 1228
GlyphClass: 1
Flags: W
LayerCount: 2
Fore
SplineSet
420 1444 m 1,0,-1
 809 1444 l 1,1,-1
 809 0 l 1,2,-1
 420 0 l 1,3,-1
 420 1444 l 1,0,-1
123 1055 m 1,4,-1
 1106 1055 l 1,5,-1
 1106 686 l 1,6,-1
 123 686 l 1,7,-1
 123 1055 l 1,4,-1
EndSplineSet
EndChar

StartChar: daggerdbl
Encoding: 8225 8225 362
Width: 1228
GlyphClass: 1
Flags: W
LayerCount: 2
Fore
SplineSet
430 1444 m 1,0,-1
 799 1444 l 1,1,-1
 799 0 l 1,2,-1
 430 0 l 1,3,-1
 430 1444 l 1,0,-1
123 655 m 1,4,-1
 1106 655 l 1,5,-1
 1106 307 l 1,6,-1
 123 307 l 1,7,-1
 123 655 l 1,4,-1
123 1178 m 1,8,-1
 1106 1178 l 1,9,-1
 1106 829 l 1,10,-1
 123 829 l 1,11,-1
 123 1178 l 1,8,-1
EndSplineSet
EndChar

StartChar: dollar
Encoding: 36 36 363
Width: 1228
GlyphClass: 1
Flags: W
LayerCount: 2
Fore
SplineSet
334 27.5 m 128,-1,1
 209 86 209 86 140.5 190.5 c 128,-1,2
 72 295 72 295 72 430 c 1,3,-1
 461 430 l 1,4,5
 461 377 461 377 486.5 339 c 128,-1,6
 512 301 512 301 552 283.5 c 128,-1,7
 592 266 592 266 635 266 c 0,8,9
 690 266 690 266 728 301 c 128,-1,10
 766 336 766 336 766 401 c 0,11,12
 766 456 766 456 736.5 490 c 128,-1,13
 707 524 707 524 643 543 c 2,14,-1
 426 604 l 2,15,16
 266 649 266 649 183 758.5 c 128,-1,17
 100 868 100 868 100 1024 c 0,18,19
 100 1157 100 1157 166.5 1259.5 c 128,-1,20
 233 1362 233 1362 349 1418.5 c 128,-1,21
 465 1475 465 1475 608 1475 c 0,22,23
 760 1475 760 1475 885 1422.5 c 128,-1,24
 1010 1370 1010 1370 1082.5 1266.5 c 128,-1,25
 1155 1163 1155 1163 1155 1018 c 1,26,-1
 766 1018 l 1,27,28
 766 1071 766 1071 744.5 1107 c 128,-1,29
 723 1143 723 1143 687 1160.5 c 128,-1,30
 651 1178 651 1178 610 1178 c 0,31,32
 559 1178 559 1178 523 1145 c 128,-1,33
 487 1112 487 1112 487 1061 c 0,34,35
 487 1012 487 1012 513 982 c 128,-1,36
 539 952 539 952 606 934 c 2,37,-1
 823 868 l 2,38,39
 983 821 983 821 1068 718.5 c 128,-1,40
 1153 616 1153 616 1153 440 c 0,41,42
 1153 299 1153 299 1083.5 192.5 c 128,-1,43
 1014 86 1014 86 892 27.5 c 128,-1,44
 770 -31 770 -31 618 -31 c 0,45,0
 459 -31 459 -31 334 27.5 c 128,-1,1
510 125 m 1,46,-1
 735 125 l 1,47,-1
 735 -174 l 1,48,-1
 510 -174 l 1,49,-1
 510 125 l 1,46,-1
510 1618 m 1,50,-1
 735 1618 l 1,51,-1
 735 1321 l 1,52,-1
 510 1321 l 1,53,-1
 510 1618 l 1,50,-1
EndSplineSet
EndChar

StartChar: cent
Encoding: 162 162 364
Width: 1228
GlyphClass: 1
Flags: W
LayerCount: 2
Fore
SplineSet
506 1352 m 1,0,-1
 762 1352 l 1,1,-1
 762 1034 l 1,2,-1
 506 1034 l 1,3,-1
 506 1352 l 1,0,-1
506 205 m 1,4,-1
 762 205 l 1,5,-1
 762 -113 l 1,6,-1
 506 -113 l 1,7,-1
 506 205 l 1,4,-1
345 132 m 128,-1,9
 221 203 221 203 152.5 330 c 128,-1,10
 84 457 84 457 84 621 c 256,11,12
 84 785 84 785 152.5 911.5 c 128,-1,13
 221 1038 221 1038 345 1108 c 128,-1,14
 469 1178 469 1178 631 1178 c 0,15,16
 846 1178 846 1178 986 1058 c 128,-1,17
 1126 938 1126 938 1147 733 c 1,18,-1
 776 733 l 1,19,20
 764 803 764 803 726 842 c 128,-1,21
 688 881 688 881 631 881 c 0,22,23
 551 881 551 881 506 811 c 128,-1,24
 461 741 461 741 461 621 c 0,25,26
 461 498 461 498 506 428 c 128,-1,27
 551 358 551 358 631 358 c 0,28,29
 688 358 688 358 726 397 c 128,-1,30
 764 436 764 436 776 506 c 1,31,-1
 1147 506 l 1,32,33
 1127 301 1127 301 986.5 181 c 128,-1,34
 846 61 846 61 631 61 c 0,35,8
 469 61 469 61 345 132 c 128,-1,9
EndSplineSet
EndChar

StartChar: sterling
Encoding: 163 163 365
Width: 1228
GlyphClass: 1
Flags: W
LayerCount: 2
Fore
SplineSet
244 423 m 128,-1,1
 279 492 279 492 279 555 c 0,2,3
 279 590 279 590 269.5 622.5 c 128,-1,4
 260 655 260 655 238 721 c 0,5,6
 209 801 209 801 192.5 864.5 c 128,-1,7
 176 928 176 928 176 1004 c 0,8,9
 176 1145 176 1145 233.5 1251.5 c 128,-1,10
 291 1358 291 1358 398.5 1416.5 c 128,-1,11
 506 1475 506 1475 653 1475 c 0,12,13
 805 1475 805 1475 920.5 1421.5 c 128,-1,14
 1036 1368 1036 1368 1099.5 1274 c 128,-1,15
 1163 1180 1163 1180 1167 1059 c 1,16,-1
 774 1059 l 1,17,18
 770 1112 770 1112 741.5 1150 c 128,-1,19
 713 1188 713 1188 657 1188 c 256,20,21
 602 1188 602 1188 572.5 1143 c 128,-1,22
 543 1098 543 1098 543 1012 c 0,23,24
 543 953 543 953 555 905.5 c 128,-1,25
 567 858 567 858 592 793 c 0,26,27
 617 732 617 732 629 683.5 c 128,-1,28
 641 635 641 635 641 578 c 0,29,30
 641 492 641 492 604 422 c 128,-1,31
 567 352 567 352 502 293 c 1,32,-1
 502 287 l 1,33,-1
 1147 287 l 1,34,-1
 1147 0 l 1,35,-1
 147 0 l 1,36,-1
 147 293 l 1,37,0
 209 354 209 354 244 423 c 128,-1,1
86 834 m 1,38,-1
 854 834 l 1,39,-1
 854 610 l 1,40,-1
 86 610 l 1,41,-1
 86 834 l 1,38,-1
EndSplineSet
EndChar

StartChar: yen
Encoding: 165 165 366
Width: 1228
GlyphClass: 1
Flags: W
LayerCount: 2
Fore
SplineSet
432 494 m 1,0,-1
 27 1444 l 1,1,-1
 430 1444 l 1,2,-1
 547 1042 l 2,3,4
 598 868 598 868 608 774 c 1,5,-1
 621 774 l 1,6,7
 631 868 631 868 682 1042 c 2,8,-1
 799 1444 l 1,9,-1
 1202 1444 l 1,10,-1
 797 494 l 1,11,-1
 797 0 l 1,12,-1
 432 0 l 1,13,-1
 432 494 l 1,0,-1
150 362 m 1,14,-1
 1079 362 l 1,15,-1
 1079 219 l 1,16,-1
 150 219 l 1,17,-1
 150 362 l 1,14,-1
150 608 m 1,18,-1
 1079 608 l 1,19,-1
 1079 465 l 1,20,-1
 150 465 l 1,21,-1
 150 608 l 1,18,-1
EndSplineSet
EndChar

StartChar: Euro
Encoding: 8364 8364 367
Width: 1228
GlyphClass: 1
Flags: W
LayerCount: 2
Fore
SplineSet
376 54 m 128,-1,1
 252 139 252 139 181.5 308 c 128,-1,2
 111 477 111 477 111 721 c 0,3,4
 111 967 111 967 181.5 1136 c 128,-1,5
 252 1305 252 1305 376 1390 c 128,-1,6
 500 1475 500 1475 662 1475 c 0,7,8
 822 1475 822 1475 932 1418.5 c 128,-1,9
 1042 1362 1042 1362 1101.5 1268 c 128,-1,10
 1161 1174 1161 1174 1174 1059 c 1,11,-1
 795 1059 l 1,12,13
 785 1122 785 1122 748 1155 c 128,-1,14
 711 1188 711 1188 664 1188 c 0,15,16
 572 1188 572 1188 523.5 1081.5 c 128,-1,17
 475 975 475 975 475 721 c 0,18,19
 475 469 475 469 523 362.5 c 128,-1,20
 571 256 571 256 664 256 c 0,21,22
 713 256 713 256 748.5 289 c 128,-1,23
 784 322 784 322 795 385 c 1,24,-1
 1174 385 l 1,25,26
 1156 205 1156 205 1026.5 87 c 128,-1,27
 897 -31 897 -31 662 -31 c 0,28,0
 500 -31 500 -31 376 54 c 128,-1,1
31 672 m 1,29,-1
 795 672 l 1,30,-1
 795 528 l 1,31,-1
 31 528 l 1,32,-1
 31 672 l 1,29,-1
31 918 m 1,33,-1
 795 918 l 1,34,-1
 795 774 l 1,35,-1
 31 774 l 1,36,-1
 31 918 l 1,33,-1
EndSplineSet
EndChar

StartChar: currency
Encoding: 164 164 368
Width: 1228
GlyphClass: 1
Flags: W
LayerCount: 2
Fore
SplineSet
367.5 253 m 128,-1,1
 264 313 264 313 209 420.5 c 128,-1,2
 154 528 154 528 154 668 c 256,3,4
 154 807 154 807 209 914.5 c 128,-1,5
 264 1022 264 1022 367.5 1083.5 c 128,-1,6
 471 1145 471 1145 614 1145 c 256,7,8
 757 1145 757 1145 861 1083.5 c 128,-1,9
 965 1022 965 1022 1020 914.5 c 128,-1,10
 1075 807 1075 807 1075 668 c 256,11,12
 1075 529 1075 529 1020 421 c 128,-1,13
 965 313 965 313 861.5 253 c 128,-1,14
 758 193 758 193 614 193 c 256,15,0
 471 193 471 193 367.5 253 c 128,-1,1
51 322 m 1,16,-1
 233 504 l 1,17,-1
 467 268 l 1,18,-1
 285 86 l 1,19,-1
 51 322 l 1,16,-1
762 268 m 1,20,-1
 995 504 l 1,21,-1
 1178 322 l 1,22,-1
 944 86 l 1,23,-1
 762 268 l 1,20,-1
716 509 m 128,-1,25
 748 567 748 567 748 668 c 0,26,27
 748 766 748 766 715 826.5 c 128,-1,28
 682 887 682 887 614 887 c 256,29,30
 546 887 546 887 513.5 826.5 c 128,-1,31
 481 766 481 766 481 668 c 0,32,33
 481 568 481 568 513 509.5 c 128,-1,34
 545 451 545 451 614 451 c 256,35,24
 684 451 684 451 716 509 c 128,-1,25
51 1030 m 1,36,-1
 285 1266 l 1,37,-1
 467 1083 l 1,38,-1
 233 848 l 1,39,-1
 51 1030 l 1,36,-1
762 1083 m 1,40,-1
 944 1266 l 1,41,-1
 1178 1030 l 1,42,-1
 995 848 l 1,43,-1
 762 1083 l 1,40,-1
EndSplineSet
EndChar

StartChar: fraction
Encoding: 8260 8260 371
Width: 0
GlyphClass: 1
Flags: W
LayerCount: 2
Fore
SplineSet
385 1444 m 1,0,-1
 551 1444 l 1,1,-1
 -383 0 l 1,2,-1
 -549 0 l 1,3,-1
 385 1444 l 1,0,-1
EndSplineSet
EndChar

StartChar: percent
Encoding: 37 37 381
Width: 1228
GlyphClass: 1
Flags: W
LayerCount: 2
Fore
SplineSet
930 1444 m 1,0,-1
 1110 1444 l 1,1,-1
 299 0 l 1,2,-1
 119 0 l 1,3,-1
 930 1444 l 1,0,-1
676 57 m 128,-1,5
 592 145 592 145 592 287 c 256,6,7
 592 428 592 428 676 515 c 128,-1,8
 760 602 760 602 895 602 c 256,9,10
 1030 602 1030 602 1114 515 c 128,-1,11
 1198 428 1198 428 1198 287 c 0,12,13
 1198 193 1198 193 1160 121 c 128,-1,14
 1122 49 1122 49 1053.5 9 c 128,-1,15
 985 -31 985 -31 895 -31 c 0,16,4
 760 -31 760 -31 676 57 c 128,-1,5
948.5 211 m 128,-1,18
 969 240 969 240 969 287 c 256,19,20
 969 334 969 334 949.5 361.5 c 128,-1,21
 930 389 930 389 895 389 c 256,22,23
 860 389 860 389 840.5 361.5 c 128,-1,24
 821 334 821 334 821 287 c 256,25,26
 821 240 821 240 841.5 211 c 128,-1,27
 862 182 862 182 895 182 c 256,28,17
 928 182 928 182 948.5 211 c 128,-1,18
117 930 m 128,-1,30
 33 1018 33 1018 33 1159 c 256,31,32
 33 1300 33 1300 117 1387.5 c 128,-1,33
 201 1475 201 1475 336 1475 c 0,34,35
 426 1475 426 1475 494.5 1435 c 128,-1,36
 563 1395 563 1395 601 1323 c 128,-1,37
 639 1251 639 1251 639 1159 c 0,38,39
 639 1018 639 1018 555 930 c 128,-1,40
 471 842 471 842 336 842 c 256,41,29
 201 842 201 842 117 930 c 128,-1,30
389.5 1083.5 m 128,-1,43
 410 1112 410 1112 410 1159 c 256,44,45
 410 1206 410 1206 390.5 1234 c 128,-1,46
 371 1262 371 1262 336 1262 c 256,47,48
 301 1262 301 1262 281.5 1234 c 128,-1,49
 262 1206 262 1206 262 1159 c 256,50,51
 262 1112 262 1112 282.5 1083.5 c 128,-1,52
 303 1055 303 1055 336 1055 c 256,53,42
 369 1055 369 1055 389.5 1083.5 c 128,-1,43
EndSplineSet
EndChar

StartChar: perthousand
Encoding: 8240 8240 382
Width: 1228
GlyphClass: 1
Flags: W
LayerCount: 2
Fore
SplineSet
293 56 m 128,-1,1
 213 143 213 143 213 287 c 0,2,3
 213 428 213 428 293 515 c 128,-1,4
 373 602 373 602 506 602 c 0,5,6
 596 602 596 602 666.5 559 c 128,-1,7
 737 516 737 516 770 430 c 1,8,-1
 631 430 l 1,9,10
 672 516 672 516 743.5 559 c 128,-1,11
 815 602 815 602 903 602 c 0,12,13
 1038 602 1038 602 1117 516 c 128,-1,14
 1196 430 1196 430 1196 287 c 256,15,16
 1196 144 1196 144 1116 56.5 c 128,-1,17
 1036 -31 1036 -31 903 -31 c 0,18,19
 813 -31 813 -31 742.5 12 c 128,-1,20
 672 55 672 55 639 141 c 1,21,-1
 770 141 l 1,22,23
 737 55 737 55 666.5 12 c 128,-1,24
 596 -31 596 -31 506 -31 c 0,25,0
 373 -31 373 -31 293 56 c 128,-1,1
569.5 211 m 128,-1,27
 590 240 590 240 590 287 c 256,28,29
 590 334 590 334 570.5 361.5 c 128,-1,30
 551 389 551 389 516 389 c 256,31,32
 481 389 481 389 461.5 361.5 c 128,-1,33
 442 334 442 334 442 287 c 256,34,35
 442 240 442 240 462.5 211 c 128,-1,36
 483 182 483 182 516 182 c 256,37,26
 549 182 549 182 569.5 211 c 128,-1,27
946.5 211 m 128,-1,39
 967 240 967 240 967 287 c 256,40,41
 967 334 967 334 947.5 361.5 c 128,-1,42
 928 389 928 389 893 389 c 256,43,44
 858 389 858 389 838.5 361.5 c 128,-1,45
 819 334 819 334 819 287 c 256,46,47
 819 240 819 240 839.5 211 c 128,-1,48
 860 182 860 182 893 182 c 256,49,38
 926 182 926 182 946.5 211 c 128,-1,39
139 672 m 1,50,-1
 1092 1081 l 1,51,-1
 1092 934 l 1,52,-1
 139 524 l 1,53,-1
 139 672 l 1,50,-1
117 930 m 128,-1,55
 33 1018 33 1018 33 1159 c 256,56,57
 33 1300 33 1300 117 1387.5 c 128,-1,58
 201 1475 201 1475 336 1475 c 0,59,60
 426 1475 426 1475 494.5 1435 c 128,-1,61
 563 1395 563 1395 601 1323 c 128,-1,62
 639 1251 639 1251 639 1159 c 0,63,64
 639 1018 639 1018 555 930 c 128,-1,65
 471 842 471 842 336 842 c 256,66,54
 201 842 201 842 117 930 c 128,-1,55
389.5 1083.5 m 128,-1,68
 410 1112 410 1112 410 1159 c 256,69,70
 410 1206 410 1206 390.5 1234 c 128,-1,71
 371 1262 371 1262 336 1262 c 256,72,73
 301 1262 301 1262 281.5 1234 c 128,-1,74
 262 1206 262 1206 262 1159 c 256,75,76
 262 1112 262 1112 282.5 1083.5 c 128,-1,77
 303 1055 303 1055 336 1055 c 256,78,67
 369 1055 369 1055 389.5 1083.5 c 128,-1,68
EndSplineSet
EndChar

StartChar: numbersign
Encoding: 35 35 383
Width: 1228
GlyphClass: 1
Flags: W
LayerCount: 2
Fore
SplineSet
852 1444 m 1,0,-1
 1112 1444 l 1,1,-1
 805 0 l 1,2,-1
 545 0 l 1,3,-1
 852 1444 l 1,0,-1
59 553 m 1,4,-1
 1096 553 l 1,5,-1
 1047 317 l 1,6,-1
 10 317 l 1,7,-1
 59 553 l 1,4,-1
424 1444 m 1,8,-1
 684 1444 l 1,9,-1
 377 0 l 1,10,-1
 117 0 l 1,11,-1
 424 1444 l 1,8,-1
182 1126 m 1,12,-1
 1219 1126 l 1,13,-1
 1167 891 l 1,14,-1
 131 891 l 1,15,-1
 182 1126 l 1,12,-1
EndSplineSet
EndChar

StartChar: uni2116
Encoding: 8470 8470 384
Width: 1228
GlyphClass: 3
Flags: W
LayerCount: 2
Fore
SplineSet
72 1444 m 1,0,-1
 319 1444 l 1,1,-1
 385 899 l 2,2,3
 414 655 414 655 442 410 c 1,4,-1
 463 410 l 1,5,6
 436 662 436 662 436 920 c 2,7,-1
 436 1444 l 1,8,-1
 612 1444 l 1,9,-1
 612 0 l 1,10,-1
 365 0 l 1,11,-1
 299 545 l 2,12,13
 270 791 270 791 242 1034 c 1,14,-1
 221 1034 l 1,15,16
 244 827 244 827 248 602 c 2,17,-1
 248 524 l 1,18,-1
 248 0 l 1,19,-1
 72 0 l 1,20,-1
 72 1444 l 1,0,-1
672 748 m 1,21,-1
 1196 748 l 1,22,-1
 1196 524 l 1,23,-1
 672 524 l 1,24,-1
 672 748 l 1,21,-1
745.5 901 m 128,-1,26
 674 991 674 991 674 1135 c 256,27,28
 674 1278 674 1278 745.5 1368 c 128,-1,29
 817 1458 817 1458 936 1458 c 256,30,31
 1055 1458 1055 1458 1126.5 1368 c 128,-1,32
 1198 1278 1198 1278 1198 1135 c 256,33,34
 1198 992 1198 992 1126.5 901.5 c 128,-1,35
 1055 811 1055 811 936 811 c 256,36,25
 817 811 817 811 745.5 901 c 128,-1,26
984 1034 m 128,-1,38
 1001 1069 1001 1069 1001 1135 c 256,39,40
 1001 1201 1001 1201 984 1235.5 c 128,-1,41
 967 1270 967 1270 936 1270 c 256,42,43
 905 1270 905 1270 887.5 1235 c 128,-1,44
 870 1200 870 1200 870 1135 c 256,45,46
 870 1069 870 1069 887.5 1034 c 128,-1,47
 905 999 905 999 936 999 c 256,48,37
 967 999 967 999 984 1034 c 128,-1,38
EndSplineSet
Ligature2: "'ordn' Ordinals in Latin lookup 20 subtable" N o period
EndChar

StartChar: plus
Encoding: 43 43 385
Width: 1228
GlyphClass: 1
Flags: W
LayerCount: 2
Fore
SplineSet
430 1294 m 1,0,-1
 799 1294 l 1,1,-1
 799 160 l 1,2,-1
 430 160 l 1,3,-1
 430 1294 l 1,0,-1
45 905 m 1,4,-1
 1184 905 l 1,5,-1
 1184 549 l 1,6,-1
 45 549 l 1,7,-1
 45 905 l 1,4,-1
EndSplineSet
Substitution2: "'sups' Superscript in Latin lookup 13 subtable" uni207A
Substitution2: "'sinf' Scientific Inferiors in Latin lookup 12 subtable" uni208A
Substitution2: "'subs' Subscript in Latin lookup 11 subtable" uni208A
AlternateSubs2: "'aalt' Access All Alternates in Latin lookup 1 subtable" uni208A uni207A
EndChar

StartChar: minus
Encoding: 8722 8722 386
Width: 1228
GlyphClass: 1
Flags: W
LayerCount: 2
Fore
SplineSet
45 901 m 1,0,-1
 1184 901 l 1,1,-1
 1184 545 l 1,2,-1
 45 545 l 1,3,-1
 45 901 l 1,0,-1
EndSplineSet
Substitution2: "'sups' Superscript in Latin lookup 13 subtable" uni207B
Substitution2: "'sinf' Scientific Inferiors in Latin lookup 12 subtable" uni208B
Substitution2: "'subs' Subscript in Latin lookup 11 subtable" uni208B
AlternateSubs2: "'aalt' Access All Alternates in Latin lookup 1 subtable" uni208B uni207B
EndChar

StartChar: plusminus
Encoding: 177 177 387
Width: 1228
GlyphClass: 1
Flags: W
LayerCount: 2
Fore
SplineSet
45 1065 m 1,0,-1
 1184 1065 l 1,1,-1
 1184 756 l 1,2,-1
 45 756 l 1,3,-1
 45 1065 l 1,0,-1
45 399 m 1,4,-1
 1184 399 l 1,5,-1
 1184 90 l 1,6,-1
 45 90 l 1,7,-1
 45 399 l 1,4,-1
436 1354 m 1,8,-1
 793 1354 l 1,9,-1
 793 467 l 1,10,-1
 436 467 l 1,11,-1
 436 1354 l 1,8,-1
EndSplineSet
EndChar

StartChar: multiply
Encoding: 215 215 388
Width: 1228
GlyphClass: 1
Flags: W
LayerCount: 2
Fore
SplineSet
33 391 m 1,0,-1
 944 1303 l 1,1,-1
 1196 1051 l 1,2,-1
 285 139 l 1,3,-1
 33 391 l 1,0,-1
33 1051 m 1,4,-1
 285 1303 l 1,5,-1
 1196 391 l 1,6,-1
 944 139 l 1,7,-1
 33 1051 l 1,4,-1
EndSplineSet
EndChar

StartChar: divide
Encoding: 247 247 389
Width: 1228
GlyphClass: 1
Flags: W
LayerCount: 2
Fore
SplineSet
45 891 m 1,0,-1
 1184 891 l 1,1,-1
 1184 575 l 1,2,-1
 45 575 l 1,3,-1
 45 891 l 1,0,-1
459.5 99.5 m 128,-1,5
 399 160 399 160 399 254 c 256,6,7
 399 348 399 348 459.5 408.5 c 128,-1,8
 520 469 520 469 614 469 c 256,9,10
 708 469 708 469 768.5 408.5 c 128,-1,11
 829 348 829 348 829 254 c 256,12,13
 829 160 829 160 769 99.5 c 128,-1,14
 709 39 709 39 614 39 c 256,15,4
 520 39 520 39 459.5 99.5 c 128,-1,5
459.5 1039.5 m 128,-1,17
 399 1100 399 1100 399 1194 c 256,18,19
 399 1288 399 1288 459.5 1348.5 c 128,-1,20
 520 1409 520 1409 614 1409 c 256,21,22
 708 1409 708 1409 768.5 1348.5 c 128,-1,23
 829 1288 829 1288 829 1194 c 256,24,25
 829 1100 829 1100 769 1039.5 c 128,-1,26
 709 979 709 979 614 979 c 256,27,16
 520 979 520 979 459.5 1039.5 c 128,-1,17
EndSplineSet
Substitution2: "'ss06' Style Set 6 in Latin lookup 28 subtable" divide.ss06
Substitution2: "'aalt' Access All Alternates in Latin lookup 0 subtable" divide.ss06
EndChar

StartChar: less
Encoding: 60 60 391
Width: 1228
GlyphClass: 1
Flags: W
LayerCount: 2
Fore
SplineSet
86 543 m 1,0,-1
 86 907 l 1,1,-1
 1143 1229 l 1,2,-1
 1143 842 l 1,3,-1
 580 733 l 1,4,-1
 580 717 l 1,5,-1
 1143 608 l 1,6,-1
 1143 221 l 1,7,-1
 86 543 l 1,0,-1
EndSplineSet
EndChar

StartChar: degree
Encoding: 176 176 393
Width: 1228
GlyphClass: 1
Flags: W
LayerCount: 2
Fore
SplineSet
412 736 m 128,-1,1
 322 786 322 786 271.5 875.5 c 128,-1,2
 221 965 221 965 221 1079 c 256,3,4
 221 1194 221 1194 271.5 1284 c 128,-1,5
 322 1374 322 1374 412 1424.5 c 128,-1,6
 502 1475 502 1475 616 1475 c 256,7,8
 731 1475 731 1475 820 1424.5 c 128,-1,9
 909 1374 909 1374 959.5 1284 c 128,-1,10
 1010 1194 1010 1194 1010 1079 c 0,11,12
 1010 966 1010 966 959.5 876 c 128,-1,13
 909 786 909 786 820 736 c 128,-1,14
 731 686 731 686 616 686 c 256,15,0
 502 686 502 686 412 736 c 128,-1,1
724 966 m 128,-1,17
 764 1008 764 1008 764 1079 c 256,18,19
 764 1151 764 1151 724 1194 c 128,-1,20
 684 1237 684 1237 616 1237 c 0,21,22
 546 1237 546 1237 506.5 1194 c 128,-1,23
 467 1151 467 1151 467 1079 c 256,24,25
 467 1007 467 1007 507 965.5 c 128,-1,26
 547 924 547 924 616 924 c 0,27,16
 684 924 684 924 724 966 c 128,-1,17
EndSplineSet
EndChar

StartChar: approxequal
Encoding: 8776 8776 394
Width: 1228
GlyphClass: 1
Flags: W
LayerCount: 2
Fore
SplineSet
727 781.5 m 128,-1,1
 680 793 680 793 625 811 c 2,2,-1
 582 825 l 2,3,4
 551 835 551 835 520 842.5 c 128,-1,5
 489 850 489 850 471 850 c 0,6,7
 434 850 434 850 418.5 827.5 c 128,-1,8
 403 805 403 805 403 770 c 1,9,-1
 86 770 l 1,10,11
 86 958 86 958 166 1063.5 c 128,-1,12
 246 1169 246 1169 403 1169 c 0,13,14
 454 1169 454 1169 501.5 1158 c 128,-1,15
 549 1147 549 1147 604 1128 c 2,16,-1
 647 1114 l 2,17,18
 717 1089 717 1089 758 1090 c 0,19,20
 795 1090 795 1090 810 1112.5 c 128,-1,21
 825 1135 825 1135 825 1169 c 1,22,-1
 1143 1169 l 1,23,24
 1143 981 1143 981 1063 875.5 c 128,-1,25
 983 770 983 770 825 770 c 0,26,0
 774 770 774 770 727 781.5 c 128,-1,1
727 290 m 128,-1,28
 680 301 680 301 625 319 c 2,29,-1
 582 334 l 2,30,31
 512 359 512 359 471 358 c 0,32,33
 434 358 434 358 418.5 335.5 c 128,-1,34
 403 313 403 313 403 279 c 1,35,-1
 86 279 l 1,36,37
 86 467 86 467 166 572.5 c 128,-1,38
 246 678 246 678 403 678 c 0,39,40
 454 678 454 678 501.5 666.5 c 128,-1,41
 549 655 549 655 604 637 c 2,42,-1
 647 623 l 2,43,44
 717 598 717 598 758 598 c 0,45,46
 795 598 795 598 810 620.5 c 128,-1,47
 825 643 825 643 825 678 c 1,48,-1
 1143 678 l 1,49,50
 1143 490 1143 490 1063 384.5 c 128,-1,51
 983 279 983 279 825 279 c 0,52,27
 774 279 774 279 727 290 c 128,-1,28
EndSplineSet
EndChar

StartChar: greaterequal
Encoding: 8805 8805 395
Width: 1228
GlyphClass: 1
Flags: W
LayerCount: 2
Fore
SplineSet
86 803 m 1,0,-1
 649 911 l 1,1,-1
 649 928 l 1,2,-1
 86 1036 l 1,3,-1
 86 1423 l 1,4,-1
 1143 1102 l 1,5,-1
 1143 737 l 1,6,-1
 86 416 l 1,7,-1
 86 803 l 1,0,-1
45 23 m 1,8,-1
 45 379 l 1,9,-1
 1184 379 l 1,10,-1
 1184 23 l 1,11,-1
 45 23 l 1,8,-1
EndSplineSet
EndChar

StartChar: lessequal
Encoding: 8804 8804 396
Width: 1228
GlyphClass: 1
Flags: W
LayerCount: 2
Fore
SplineSet
86 737 m 1,0,-1
 86 1102 l 1,1,-1
 1143 1423 l 1,2,-1
 1143 1036 l 1,3,-1
 580 928 l 1,4,-1
 580 911 l 1,5,-1
 1143 803 l 1,6,-1
 1143 416 l 1,7,-1
 86 737 l 1,0,-1
45 379 m 1,8,-1
 1184 379 l 1,9,-1
 1184 23 l 1,10,-1
 45 23 l 1,11,-1
 45 379 l 1,8,-1
EndSplineSet
EndChar

StartChar: logicalnot
Encoding: 172 172 397
Width: 1228
GlyphClass: 1
Flags: W
LayerCount: 2
Fore
SplineSet
776 543 m 1,0,-1
 86 543 l 1,1,-1
 86 899 l 1,2,-1
 1143 899 l 1,3,-1
 1143 203 l 1,4,-1
 776 203 l 1,5,-1
 776 543 l 1,0,-1
EndSplineSet
EndChar

StartChar: notequal
Encoding: 8800 8800 398
Width: 1228
GlyphClass: 1
Flags: W
LayerCount: 2
Fore
SplineSet
760 1391 m 1,0,-1
 1073 1391 l 1,1,-1
 469 53 l 1,2,-1
 156 53 l 1,3,-1
 760 1391 l 1,0,-1
45 1147 m 1,4,-1
 1184 1147 l 1,5,-1
 1184 791 l 1,6,-1
 45 791 l 1,7,-1
 45 1147 l 1,4,-1
45 657 m 1,8,-1
 1184 657 l 1,9,-1
 1184 301 l 1,10,-1
 45 301 l 1,11,-1
 45 657 l 1,8,-1
EndSplineSet
EndChar

StartChar: uni0308
Encoding: 776 776 399
Width: 0
GlyphClass: 4
Flags: W
AnchorPoint: "Anchor-6" 614 1571 basemark 0
AnchorPoint: "Anchor-6" 614 1055 mark 0
AnchorPoint: "Anchor-4" 614 1055 mark 0
AnchorPoint: "Anchor-1" 614 1055 mark 0
LayerCount: 2
Fore
SplineSet
686 1258.5 m 128,-1,1
 633 1313 633 1313 633 1389 c 256,2,3
 633 1465 633 1465 686 1518 c 128,-1,4
 739 1571 739 1571 815 1571 c 256,5,6
 891 1571 891 1571 945 1517.5 c 128,-1,7
 999 1464 999 1464 999 1389 c 256,8,9
 999 1313 999 1313 946 1258.5 c 128,-1,10
 893 1204 893 1204 815 1204 c 0,11,0
 739 1204 739 1204 686 1258.5 c 128,-1,1
282.5 1258.5 m 128,-1,13
 229 1313 229 1313 229 1389 c 256,14,15
 229 1465 229 1465 282.5 1518 c 128,-1,16
 336 1571 336 1571 412 1571 c 256,17,18
 488 1571 488 1571 542 1517.5 c 128,-1,19
 596 1464 596 1464 596 1389 c 256,20,21
 596 1313 596 1313 542.5 1258.5 c 128,-1,22
 489 1204 489 1204 412 1204 c 0,23,12
 336 1204 336 1204 282.5 1258.5 c 128,-1,13
EndSplineSet
Substitution2: "Single Substitution lookup 31 subtable" uni0308.case
Substitution2: "'ss06' Style Set 6 in Latin lookup 28 subtable" uni0308.ss06
Substitution2: "'case' Case-Sensitive Forms in Latin lookup 21 subtable" uni0308.case
AlternateSubs2: "'aalt' Access All Alternates in Latin lookup 1 subtable" uni0308.case uni0308.ss06
EndChar

StartChar: uni0307
Encoding: 775 775 400
Width: 0
GlyphClass: 4
Flags: W
AnchorPoint: "Anchor-6" 616 1583 basemark 0
AnchorPoint: "Anchor-6" 616 1055 mark 0
AnchorPoint: "Anchor-4" 616 1055 mark 0
AnchorPoint: "Anchor-1" 616 1055 mark 0
LayerCount: 2
Fore
SplineSet
478.5 1252.5 m 128,-1,1
 422 1309 422 1309 422 1389 c 256,2,3
 422 1469 422 1469 478.5 1526 c 128,-1,4
 535 1583 535 1583 614 1583 c 0,5,6
 692 1583 692 1583 750.5 1524.5 c 128,-1,7
 809 1466 809 1466 809 1389 c 0,8,9
 809 1309 809 1309 751.5 1252.5 c 128,-1,10
 694 1196 694 1196 614 1196 c 256,11,0
 535 1196 535 1196 478.5 1252.5 c 128,-1,1
EndSplineSet
Substitution2: "Single Substitution lookup 31 subtable" uni0307.case
Substitution2: "'ss06' Style Set 6 in Latin lookup 28 subtable" uni0307.ss06
Substitution2: "'case' Case-Sensitive Forms in Latin lookup 21 subtable" uni0307.case
AlternateSubs2: "'aalt' Access All Alternates in Latin lookup 1 subtable" uni0307.case uni0307.ss06
EndChar

StartChar: gravecomb
Encoding: 768 768 401
Width: 0
GlyphClass: 4
Flags: W
AnchorPoint: "Anchor-6" 616 1556 basemark 0
AnchorPoint: "Anchor-6" 743 1055 mark 0
AnchorPoint: "Anchor-4" 743 1055 mark 0
AnchorPoint: "Anchor-1" 743 1055 mark 0
LayerCount: 2
Fore
SplineSet
322 1556 m 1,0,-1
 727 1556 l 1,1,-1
 909 1219 l 1,2,-1
 578 1219 l 1,3,-1
 322 1556 l 1,0,-1
EndSplineSet
Substitution2: "Single Substitution lookup 31 subtable" gravecomb.case
Substitution2: "'case' Case-Sensitive Forms in Latin lookup 21 subtable" gravecomb.case
Substitution2: "'aalt' Access All Alternates in Latin lookup 0 subtable" gravecomb.case
EndChar

StartChar: acutecomb
Encoding: 769 769 402
Width: 0
GlyphClass: 4
Flags: W
AnchorPoint: "Anchor-6" 616 1556 basemark 0
AnchorPoint: "Anchor-6" 487 1055 mark 0
AnchorPoint: "Anchor-4" 487 1055 mark 0
AnchorPoint: "Anchor-1" 487 1055 mark 0
LayerCount: 2
Fore
SplineSet
504 1556 m 1,0,-1
 909 1556 l 1,1,-1
 653 1219 l 1,2,-1
 322 1219 l 1,3,-1
 504 1556 l 1,0,-1
EndSplineSet
Substitution2: "Single Substitution lookup 31 subtable" acutecomb.case
Substitution2: "'case' Case-Sensitive Forms in Latin lookup 21 subtable" acutecomb.case
Substitution2: "'aalt' Access All Alternates in Latin lookup 0 subtable" acutecomb.case
EndChar

StartChar: uni030B
Encoding: 779 779 403
Width: 0
GlyphClass: 4
Flags: W
AnchorPoint: "Anchor-6" 596 1556 basemark 0
AnchorPoint: "Anchor-6" 489 1055 mark 0
AnchorPoint: "Anchor-4" 489 1055 mark 0
AnchorPoint: "Anchor-1" 489 1055 mark 0
LayerCount: 2
Fore
SplineSet
768 1556 m 1,0,-1
 1096 1556 l 1,1,-1
 844 1219 l 1,2,-1
 592 1219 l 1,3,-1
 768 1556 l 1,0,-1
309 1556 m 1,4,-1
 637 1556 l 1,5,-1
 385 1219 l 1,6,-1
 133 1219 l 1,7,-1
 309 1556 l 1,4,-1
EndSplineSet
Substitution2: "Single Substitution lookup 31 subtable" uni030B.case
Substitution2: "'case' Case-Sensitive Forms in Latin lookup 21 subtable" uni030B.case
Substitution2: "'aalt' Access All Alternates in Latin lookup 0 subtable" uni030B.case
EndChar

StartChar: uni0302
Encoding: 770 770 404
Width: 0
GlyphClass: 4
Flags: W
AnchorPoint: "Anchor-6" 614 1556 basemark 0
AnchorPoint: "Anchor-6" 614 1055 mark 0
AnchorPoint: "Anchor-4" 614 1055 mark 0
AnchorPoint: "Anchor-1" 614 1055 mark 0
LayerCount: 2
Fore
SplineSet
438 1556 m 1,0,-1
 791 1556 l 1,1,-1
 1055 1219 l 1,2,-1
 717 1219 l 1,3,-1
 623 1370 l 1,4,-1
 606 1370 l 1,5,-1
 512 1219 l 1,6,-1
 174 1219 l 1,7,-1
 438 1556 l 1,0,-1
EndSplineSet
Substitution2: "Single Substitution lookup 31 subtable" uni0302.case
Substitution2: "'case' Case-Sensitive Forms in Latin lookup 21 subtable" uni0302.case
Substitution2: "'aalt' Access All Alternates in Latin lookup 0 subtable" uni0302.case
EndChar

StartChar: uni030C
Encoding: 780 780 405
Width: 0
GlyphClass: 4
Flags: W
AnchorPoint: "Anchor-6" 614 1556 basemark 0
AnchorPoint: "Anchor-6" 614 1055 mark 0
AnchorPoint: "Anchor-4" 614 1055 mark 0
AnchorPoint: "Anchor-1" 614 1055 mark 0
LayerCount: 2
Fore
SplineSet
174 1556 m 1,0,-1
 512 1556 l 1,1,-1
 614 1405 l 1,2,-1
 614 1405 l 1,3,-1
 715 1556 l 1,4,-1
 1055 1556 l 1,5,-1
 784 1219 l 1,6,-1
 444 1219 l 1,7,-1
 174 1556 l 1,0,-1
EndSplineSet
Substitution2: "Single Substitution lookup 31 subtable" uni030C.case
Substitution2: "'case' Case-Sensitive Forms in Latin lookup 21 subtable" uni030C.case
Substitution2: "'aalt' Access All Alternates in Latin lookup 0 subtable" uni030C.case
EndChar

StartChar: uni0306
Encoding: 774 774 406
Width: 0
GlyphClass: 4
Flags: W
AnchorPoint: "Anchor-6" 614 1491 basemark 0
AnchorPoint: "Anchor-6" 614 1055 mark 0
AnchorPoint: "Anchor-4" 614 1055 mark 0
AnchorPoint: "Anchor-1" 614 1055 mark 0
LayerCount: 2
Fore
SplineSet
326.5 1299.5 m 128,-1,1
 227 1391 227 1391 227 1556 c 1,2,-1
 489 1556 l 1,3,4
 489 1503 489 1503 521 1473.5 c 128,-1,5
 553 1444 553 1444 614 1444 c 256,6,7
 675 1444 675 1444 707 1473.5 c 128,-1,8
 739 1503 739 1503 739 1556 c 1,9,-1
 1001 1556 l 1,10,11
 1001 1390 1001 1390 902 1299 c 128,-1,12
 803 1208 803 1208 614 1208 c 256,13,0
 426 1208 426 1208 326.5 1299.5 c 128,-1,1
EndSplineSet
Substitution2: "Single Substitution lookup 31 subtable" uni0306.case
Substitution2: "'case' Case-Sensitive Forms in Latin lookup 21 subtable" uni0306.case
Substitution2: "'aalt' Access All Alternates in Latin lookup 0 subtable" uni0306.case
EndChar

StartChar: uni030A
Encoding: 778 778 407
Width: 0
GlyphClass: 4
Flags: W
AnchorPoint: "Anchor-6" 614 1724 basemark 0
AnchorPoint: "Anchor-6" 614 1055 mark 0
AnchorPoint: "Anchor-4" 614 1055 mark 0
AnchorPoint: "Anchor-1" 614 1055 mark 0
LayerCount: 2
Fore
SplineSet
417 1281 m 128,-1,1
 338 1354 338 1354 338 1466 c 256,2,3
 338 1579 338 1579 417 1651.5 c 128,-1,4
 496 1724 496 1724 614 1724 c 0,5,6
 735 1724 735 1724 813 1651.5 c 128,-1,7
 891 1579 891 1579 891 1466 c 256,8,9
 891 1353 891 1353 813 1280.5 c 128,-1,10
 735 1208 735 1208 614 1208 c 0,11,0
 496 1208 496 1208 417 1281 c 128,-1,1
685 1391.5 m 128,-1,13
 711 1419 711 1419 711 1466 c 256,14,15
 711 1513 711 1513 685 1541 c 128,-1,16
 659 1569 659 1569 614 1569 c 0,17,18
 571 1569 571 1569 544.5 1540 c 128,-1,19
 518 1511 518 1511 518 1466 c 256,20,21
 518 1421 518 1421 544.5 1392.5 c 128,-1,22
 571 1364 571 1364 614 1364 c 0,23,12
 659 1364 659 1364 685 1391.5 c 128,-1,13
EndSplineSet
Substitution2: "Single Substitution lookup 31 subtable" uni030A.case
Substitution2: "'case' Case-Sensitive Forms in Latin lookup 21 subtable" uni030A.case
Substitution2: "'aalt' Access All Alternates in Latin lookup 0 subtable" uni030A.case
EndChar

StartChar: tildecomb
Encoding: 771 771 408
Width: 0
GlyphClass: 4
Flags: W
AnchorPoint: "Anchor-6" 616 1556 basemark 0
AnchorPoint: "Anchor-6" 616 1055 mark 0
AnchorPoint: "Anchor-4" 616 1055 mark 0
AnchorPoint: "Anchor-1" 616 1055 mark 0
LayerCount: 2
Fore
SplineSet
264.5 1466 m 128,-1,1
 326 1546 326 1546 440 1546 c 0,2,3
 477 1546 477 1546 521 1534 c 128,-1,4
 565 1522 565 1522 623 1491 c 2,5,-1
 666 1468 l 2,6,7
 725 1437 725 1437 754 1438 c 0,8,9
 785 1438 785 1438 797 1459.5 c 128,-1,10
 809 1481 809 1481 811 1536 c 1,11,-1
 1036 1536 l 1,12,13
 1036 1376 1036 1376 974.5 1297.5 c 128,-1,14
 913 1219 913 1219 788 1219 c 0,15,16
 749 1219 749 1219 706.5 1232 c 128,-1,17
 664 1245 664 1245 606 1274 c 2,18,-1
 563 1296 l 2,19,20
 504 1327 504 1327 475 1327 c 0,21,22
 444 1327 444 1327 432 1305.5 c 128,-1,23
 420 1284 420 1284 418 1229 c 1,24,-1
 203 1229 l 1,25,0
 203 1386 203 1386 264.5 1466 c 128,-1,1
EndSplineSet
Substitution2: "Single Substitution lookup 31 subtable" tildecomb.case
Substitution2: "'case' Case-Sensitive Forms in Latin lookup 21 subtable" tildecomb.case
Substitution2: "'aalt' Access All Alternates in Latin lookup 0 subtable" tildecomb.case
EndChar

StartChar: uni0304
Encoding: 772 772 409
Width: 0
GlyphClass: 4
Flags: W
AnchorPoint: "Anchor-6" 614 1501 basemark 0
AnchorPoint: "Anchor-6" 614 1055 mark 0
AnchorPoint: "Anchor-4" 614 1055 mark 0
AnchorPoint: "Anchor-1" 614 1055 mark 0
LayerCount: 2
Fore
SplineSet
287 1501 m 1,0,-1
 942 1501 l 1,1,-1
 942 1268 l 1,2,-1
 287 1268 l 1,3,-1
 287 1501 l 1,0,-1
EndSplineSet
Substitution2: "Single Substitution lookup 31 subtable" uni0304.case
Substitution2: "'case' Case-Sensitive Forms in Latin lookup 21 subtable" uni0304.case
Substitution2: "'aalt' Access All Alternates in Latin lookup 0 subtable" uni0304.case
EndChar

StartChar: uni0312
Encoding: 786 786 410
Width: 0
GlyphClass: 4
Flags: W
AnchorPoint: "Anchor-6" 616 1556 basemark 0
AnchorPoint: "Anchor-6" 524 1055 mark 0
AnchorPoint: "Anchor-4" 524 1055 mark 0
AnchorPoint: "Anchor-1" 524 1055 mark 0
LayerCount: 2
Fore
SplineSet
578 1556 m 1,0,-1
 909 1556 l 1,1,-1
 727 1219 l 1,2,-1
 322 1219 l 1,3,-1
 578 1556 l 1,0,-1
EndSplineSet
EndChar

StartChar: uni0326
Encoding: 806 806 411
Width: 0
GlyphClass: 4
Flags: W
AnchorPoint: "Anchor-5" 608 -369 basemark 0
AnchorPoint: "Anchor-5" 672 0 mark 0
AnchorPoint: "Anchor-3" 672 0 mark 0
AnchorPoint: "Anchor-0" 672 0 mark 0
LayerCount: 2
Fore
SplineSet
469 -102 m 1,0,-1
 874 -102 l 1,1,-1
 707 -338 l 1,2,-1
 354 -338 l 1,3,-1
 469 -102 l 1,0,-1
EndSplineSet
EndChar

StartChar: uni0327
Encoding: 807 807 412
Width: 0
GlyphClass: 4
Flags: W
AnchorPoint: "Anchor-5" 608 -369 basemark 0
AnchorPoint: "Anchor-5" 709 0 mark 0
AnchorPoint: "Anchor-3" 709 0 mark 0
AnchorPoint: "Anchor-0" 709 0 mark 0
LayerCount: 2
Fore
SplineSet
522 -102 m 1,0,-1
 874 -102 l 1,1,-1
 760 -338 l 1,2,-1
 354 -338 l 1,3,-1
 522 -102 l 1,0,-1
EndSplineSet
EndChar

StartChar: uni0328
Encoding: 808 808 413
Width: 0
GlyphClass: 4
Flags: W
AnchorPoint: "Anchor-2" 506 0 mark 0
LayerCount: 2
Fore
SplineSet
354 -102 m 1,0,-1
 707 -102 l 1,1,-1
 874 -338 l 1,2,-1
 469 -338 l 1,3,-1
 354 -102 l 1,0,-1
EndSplineSet
EndChar

StartChar: Q.ss04
Encoding: 65542 -1 420
Width: 1228
GlyphClass: 2
Flags: W
AnchorPoint: "Anchor-1" 614 1444 basechar 0
AnchorPoint: "Anchor-0" 614 0 basechar 0
LayerCount: 2
Fore
SplineSet
307 88 m 128,-1,1
 178 176 178 176 109.5 342 c 128,-1,2
 41 508 41 508 41 739 c 0,3,4
 41 968 41 968 109.5 1134 c 128,-1,5
 178 1300 178 1300 307 1387.5 c 128,-1,6
 436 1475 436 1475 614 1475 c 256,7,8
 792 1475 792 1475 921.5 1389 c 128,-1,9
 1051 1303 1051 1303 1119.5 1144 c 128,-1,10
 1188 985 1188 985 1188 770 c 0,11,12
 1188 588 1188 588 1136.5 462 c 128,-1,13
 1085 336 1085 336 975 242 c 1,14,-1
 975 221 l 1,15,16
 1038 282 1038 282 1079 305 c 128,-1,17
 1120 328 1120 328 1167 328 c 2,18,-1
 1192 328 l 1,19,-1
 1192 0 l 1,20,-1
 614 0 l 2,21,0
 436 0 436 0 307 88 c 128,-1,1
759 437 m 128,-1,23
 803 530 803 530 803 739 c 0,24,25
 803 946 803 946 759 1038 c 128,-1,26
 715 1130 715 1130 614 1130 c 256,27,28
 514 1130 514 1130 470 1038 c 128,-1,29
 426 946 426 946 426 739 c 0,30,31
 426 530 426 530 470 437 c 128,-1,32
 514 344 514 344 614 344 c 256,33,22
 715 344 715 344 759 437 c 128,-1,23
EndSplineSet
EndChar

StartChar: Ldot.ss06
Encoding: 65553 -1 431
Width: 1228
GlyphClass: 2
Flags: W
AnchorPoint: "Anchor-1" 389 1444 basechar 0
AnchorPoint: "Anchor-0" 614 0 basechar 0
LayerCount: 2
Fore
SplineSet
201 1444 m 1,0,-1
 578 1444 l 1,1,-1
 578 184 l 1,2,-1
 201 0 l 1,3,-1
 201 1444 l 1,0,-1
406 330 m 1,4,-1
 1143 330 l 1,5,-1
 1143 0 l 1,6,-1
 201 0 l 1,7,-1
 406 330 l 1,4,-1
678 989 m 1,8,-1
 1083 989 l 1,9,-1
 1083 627 l 1,10,-1
 678 627 l 1,11,-1
 678 989 l 1,8,-1
EndSplineSet
EndChar

StartChar: a.ss01
Encoding: 65561 -1 439
Width: 1228
GlyphClass: 2
Flags: W
AnchorPoint: "Anchor-2" 952 0 basechar 0
AnchorPoint: "Anchor-1" 614 1055 basechar 0
AnchorPoint: "Anchor-0" 614 0 basechar 0
LayerCount: 2
Fore
SplineSet
255 34.5 m 128,-1,1
 168 100 168 100 122 225 c 128,-1,2
 76 350 76 350 76 522 c 0,3,4
 76 696 76 696 125 823 c 128,-1,5
 174 950 174 950 267 1017.5 c 128,-1,6
 360 1085 360 1085 487 1085 c 0,7,8
 589 1085 589 1085 660 1040 c 128,-1,9
 731 995 731 995 772 901 c 1,10,-1
 788 901 l 1,11,-1
 788 1055 l 1,12,-1
 1137 1055 l 1,13,-1
 1137 0 l 1,14,-1
 768 0 l 1,15,-1
 768 154 l 1,16,-1
 752 154 l 1,17,18
 711 60 711 60 639 14.5 c 128,-1,19
 567 -31 567 -31 463 -31 c 0,20,0
 342 -31 342 -31 255 34.5 c 128,-1,1
747.5 334.5 m 128,-1,22
 793 403 793 403 793 526 c 0,23,24
 793 651 793 651 749 719.5 c 128,-1,25
 705 788 705 788 623 788 c 0,26,27
 543 788 543 788 498 719.5 c 128,-1,28
 453 651 453 651 453 526 c 0,29,30
 453 403 453 403 498 334.5 c 128,-1,31
 543 266 543 266 623 266 c 256,32,21
 702 266 702 266 747.5 334.5 c 128,-1,22
EndSplineSet
EndChar

StartChar: g.ss02
Encoding: 65572 -1 450
Width: 1228
GlyphClass: 2
Flags: W
AnchorPoint: "Anchor-1" 614 1055 basechar 0
AnchorPoint: "Anchor-0" 614 -338 basechar 0
LayerCount: 2
Fore
SplineSet
205 -304.5 m 128,-1,1
 68 -240 68 -240 68 -119 c 0,2,3
 68 -49 68 -49 114 -4 c 128,-1,4
 160 41 160 41 248 55 c 1,5,-1
 248 72 l 1,6,-1
 535 43 l 1,7,8
 478 43 478 43 448 24.5 c 128,-1,9
 418 6 418 6 418 -29 c 0,10,11
 418 -80 418 -80 463 -102.5 c 128,-1,12
 508 -125 508 -125 608 -125 c 0,13,14
 717 -125 717 -125 770 -99.5 c 128,-1,15
 823 -74 823 -74 823 -25 c 0,16,17
 823 0 823 0 810 11.5 c 128,-1,18
 797 23 797 23 770 23 c 2,19,-1
 508 23 l 2,20,21
 334 23 334 23 227.5 82 c 128,-1,22
 121 141 121 141 121 242 c 0,23,24
 121 305 121 305 163 352 c 128,-1,25
 205 399 205 399 274 410 c 1,26,-1
 274 426 l 1,27,-1
 508 383 l 1,28,29
 471 377 471 377 452.5 360.5 c 128,-1,30
 434 344 434 344 434 319 c 0,31,32
 434 290 434 290 456.5 276 c 128,-1,33
 479 262 479 262 522 262 c 2,34,-1
 831 262 l 2,35,36
 989 262 989 262 1071 195.5 c 128,-1,37
 1153 129 1153 129 1153 0 c 0,38,39
 1153 -182 1153 -182 1012.5 -275.5 c 128,-1,40
 872 -369 872 -369 598 -369 c 0,41,0
 342 -369 342 -369 205 -304.5 c 128,-1,1
337 390 m 128,-1,43
 236 434 236 434 182.5 518 c 128,-1,44
 129 602 129 602 129 717 c 0,45,46
 129 891 129 891 248 988 c 128,-1,47
 367 1085 367 1085 580 1085 c 0,48,49
 791 1085 791 1085 911.5 987 c 128,-1,50
 1032 889 1032 889 1032 717 c 0,51,52
 1032 543 1032 543 911.5 444.5 c 128,-1,53
 791 346 791 346 580 346 c 0,54,42
 438 346 438 346 337 390 c 128,-1,43
650.5 585 m 128,-1,56
 674 629 674 629 674 717 c 256,57,58
 674 805 674 805 650.5 848 c 128,-1,59
 627 891 627 891 580 891 c 256,60,61
 533 891 533 891 510 848 c 128,-1,62
 487 805 487 805 487 717 c 256,63,64
 487 629 487 629 509.5 585 c 128,-1,65
 532 541 532 541 580 541 c 256,66,55
 627 541 627 541 650.5 585 c 128,-1,56
965 928 m 1,67,-1
 981 928 l 1,68,69
 991 1000 991 1000 1031 1042.5 c 128,-1,70
 1071 1085 1071 1085 1128 1085 c 0,71,72
 1157 1085 1157 1085 1182 1077 c 1,73,-1
 1182 797 l 1,74,75
 1162 803 1162 803 1137 803 c 0,76,77
 1090 803 1090 803 1061 781.5 c 128,-1,78
 1032 760 1032 760 1032 725 c 2,79,-1
 1032 717 l 1,80,-1
 965 928 l 1,67,-1
EndSplineSet
EndChar

StartChar: y.ss03
Encoding: 65578 -1 456
Width: 1228
GlyphClass: 2
Flags: W
AnchorPoint: "Anchor-1" 614 1055 basechar 0
AnchorPoint: "Anchor-0" 614 0 basechar 0
LayerCount: 2
Fore
SplineSet
361.5 -325 m 128,-1,1
 248 -281 248 -281 182.5 -202 c 128,-1,2
 117 -123 117 -123 115 -25 c 1,3,-1
 477 -25 l 1,4,5
 491 -68 491 -68 526 -88.5 c 128,-1,6
 561 -109 561 -109 621 -109 c 0,7,8
 699 -109 699 -109 739.5 -63.5 c 128,-1,9
 780 -18 780 -18 780 66 c 2,10,-1
 780 254 l 1,11,-1
 764 254 l 1,12,13
 729 170 729 170 649 120 c 128,-1,14
 569 70 569 70 459 70 c 0,15,16
 291 70 291 70 196.5 174.5 c 128,-1,17
 102 279 102 279 102 465 c 2,18,-1
 102 1055 l 1,19,-1
 471 1055 l 1,20,-1
 471 563 l 2,21,22
 471 485 471 485 508 442 c 128,-1,23
 545 399 545 399 612 399 c 0,24,25
 684 399 684 399 722 445.5 c 128,-1,26
 760 492 760 492 760 582 c 2,27,-1
 760 1055 l 1,28,-1
 1128 1055 l 1,29,-1
 1128 82 l 2,30,31
 1128 -133 1128 -133 994 -251 c 128,-1,32
 860 -369 860 -369 616 -369 c 0,33,0
 475 -369 475 -369 361.5 -325 c 128,-1,1
EndSplineSet
EndChar

StartChar: ldot.ss06
Encoding: 65598 -1 476
Width: 1228
GlyphClass: 2
Flags: W
AnchorPoint: "Anchor-1" 614 1444 basechar 0
AnchorPoint: "Anchor-0" 614 0 basechar 0
LayerCount: 2
Fore
SplineSet
463 1298 m 1,0,-1
 831 1444 l 1,1,-1
 831 143 l 1,2,-1
 463 143 l 1,3,-1
 463 1298 l 1,0,-1
145 297 m 1,4,-1
 1139 297 l 1,5,-1
 1139 0 l 1,6,-1
 145 0 l 1,7,-1
 145 297 l 1,4,-1
170 1444 m 1,8,-1
 831 1444 l 1,9,-1
 649 1147 l 1,10,-1
 170 1147 l 1,11,-1
 170 1444 l 1,8,-1
1026 989 m 1,12,-1
 1432 989 l 1,13,-1
 1432 627 l 1,14,-1
 1026 627 l 1,15,-1
 1026 989 l 1,12,-1
EndSplineSet
EndChar

StartChar: uni24FF
Encoding: 9471 9471 489
Width: 1228
GlyphClass: 1
Flags: W
LayerCount: 2
Fore
SplineSet
300 -236.5 m 128,-1,1
 174 -135 174 -135 107.5 99.5 c 128,-1,2
 41 334 41 334 41 723 c 256,3,4
 41 1112 41 1112 107.5 1345.5 c 128,-1,5
 174 1579 174 1579 300 1680.5 c 128,-1,6
 426 1782 426 1782 614 1782 c 256,7,8
 802 1782 802 1782 928.5 1680.5 c 128,-1,9
 1055 1579 1055 1579 1121.5 1345.5 c 128,-1,10
 1188 1112 1188 1112 1188 723 c 256,11,12
 1188 334 1188 334 1121.5 99.5 c 128,-1,13
 1055 -135 1055 -135 929 -236.5 c 128,-1,14
 803 -338 803 -338 614 -338 c 256,15,0
 426 -338 426 -338 300 -236.5 c 128,-1,1
881 268.5 m 128,-1,17
 971 418 971 418 971 723 c 256,18,19
 971 1028 971 1028 881 1176.5 c 128,-1,20
 791 1325 791 1325 614 1325 c 256,21,22
 438 1325 438 1325 349 1175.5 c 128,-1,23
 260 1026 260 1026 260 723 c 0,24,25
 260 418 260 418 349 268.5 c 128,-1,26
 438 119 438 119 614 119 c 256,27,16
 791 119 791 119 881 268.5 c 128,-1,17
550.5 393 m 128,-1,29
 528 424 528 424 517 502 c 128,-1,30
 506 580 506 580 506 723 c 256,31,32
 506 866 506 866 517 943 c 128,-1,33
 528 1020 528 1020 550.5 1050.5 c 128,-1,34
 573 1081 573 1081 614 1081 c 256,35,36
 655 1081 655 1081 678.5 1049.5 c 128,-1,37
 702 1018 702 1018 713.5 941 c 128,-1,38
 725 864 725 864 725 723 c 256,39,40
 725 582 725 582 713.5 504 c 128,-1,41
 702 426 702 426 678.5 394 c 128,-1,42
 655 362 655 362 614 362 c 256,43,28
 573 362 573 362 550.5 393 c 128,-1,29
EndSplineSet
EndChar

StartChar: uni2776
Encoding: 10102 10102 490
Width: 1228
GlyphClass: 1
Flags: W
LayerCount: 2
Fore
SplineSet
300 -236.5 m 128,-1,1
 174 -135 174 -135 107.5 99.5 c 128,-1,2
 41 334 41 334 41 723 c 256,3,4
 41 1112 41 1112 107.5 1345.5 c 128,-1,5
 174 1579 174 1579 300 1680.5 c 128,-1,6
 426 1782 426 1782 614 1782 c 256,7,8
 802 1782 802 1782 928.5 1680.5 c 128,-1,9
 1055 1579 1055 1579 1121.5 1345.5 c 128,-1,10
 1188 1112 1188 1112 1188 723 c 256,11,12
 1188 334 1188 334 1121.5 99.5 c 128,-1,13
 1055 -135 1055 -135 929 -236.5 c 128,-1,14
 803 -338 803 -338 614 -338 c 256,15,0
 426 -338 426 -338 300 -236.5 c 128,-1,1
936 143 m 1,16,-1
 936 373 l 1,17,-1
 745 373 l 1,18,-1
 745 1300 l 1,19,-1
 508 1300 l 1,20,21
 502 1226 502 1226 477.5 1179.5 c 128,-1,22
 453 1133 453 1133 406.5 1111.5 c 128,-1,23
 360 1090 360 1090 287 1090 c 1,24,-1
 287 893 l 1,25,-1
 481 893 l 1,26,-1
 481 373 l 1,27,-1
 289 373 l 1,28,-1
 289 143 l 1,29,-1
 936 143 l 1,16,-1
EndSplineSet
EndChar

StartChar: uni2777
Encoding: 10103 10103 491
Width: 1228
GlyphClass: 1
Flags: W
LayerCount: 2
Fore
SplineSet
300 -236.5 m 128,-1,1
 174 -135 174 -135 107.5 99.5 c 128,-1,2
 41 334 41 334 41 723 c 256,3,4
 41 1112 41 1112 107.5 1345.5 c 128,-1,5
 174 1579 174 1579 300 1680.5 c 128,-1,6
 426 1782 426 1782 614 1782 c 256,7,8
 802 1782 802 1782 928.5 1680.5 c 128,-1,9
 1055 1579 1055 1579 1121.5 1345.5 c 128,-1,10
 1188 1112 1188 1112 1188 723 c 256,11,12
 1188 334 1188 334 1121.5 99.5 c 128,-1,13
 1055 -135 1055 -135 929 -236.5 c 128,-1,14
 803 -338 803 -338 614 -338 c 256,15,0
 426 -338 426 -338 300 -236.5 c 128,-1,1
954 143 m 1,16,-1
 954 373 l 1,17,-1
 586 373 l 1,18,19
 586 408 586 408 595 429.5 c 128,-1,20
 604 451 604 451 633 479 c 2,21,-1
 805 635 l 2,22,23
 881 705 881 705 917.5 786.5 c 128,-1,24
 954 868 954 868 954 987 c 0,25,26
 954 1149 954 1149 868 1237 c 128,-1,27
 782 1325 782 1325 616 1325 c 0,28,29
 444 1325 444 1325 359 1221.5 c 128,-1,30
 274 1118 274 1118 274 924 c 1,31,-1
 543 924 l 1,32,33
 543 1008 543 1008 561.5 1050 c 128,-1,34
 580 1092 580 1092 625 1092 c 0,35,36
 662 1092 662 1092 677 1063 c 128,-1,37
 692 1034 692 1034 692 981 c 0,38,39
 692 918 692 918 671.5 876 c 128,-1,40
 651 834 651 834 600 788 c 2,41,-1
 455 657 l 2,42,43
 369 581 369 581 327 483 c 128,-1,44
 285 385 285 385 285 246 c 0,45,46
 285 213 285 213 293 143 c 1,47,-1
 954 143 l 1,16,-1
EndSplineSet
EndChar

StartChar: uni2778
Encoding: 10104 10104 492
Width: 1228
GlyphClass: 1
Flags: W
LayerCount: 2
Fore
SplineSet
300 -236.5 m 128,-1,1
 174 -135 174 -135 107.5 99.5 c 128,-1,2
 41 334 41 334 41 723 c 256,3,4
 41 1112 41 1112 107.5 1345.5 c 128,-1,5
 174 1579 174 1579 300 1680.5 c 128,-1,6
 426 1782 426 1782 614 1782 c 256,7,8
 802 1782 802 1782 928.5 1680.5 c 128,-1,9
 1055 1579 1055 1579 1121.5 1345.5 c 128,-1,10
 1188 1112 1188 1112 1188 723 c 256,11,12
 1188 334 1188 334 1121.5 99.5 c 128,-1,13
 1055 -135 1055 -135 929 -236.5 c 128,-1,14
 803 -338 803 -338 614 -338 c 256,15,0
 426 -338 426 -338 300 -236.5 c 128,-1,1
868.5 215 m 128,-1,17
 961 311 961 311 961 483 c 0,18,19
 961 592 961 592 923 663.5 c 128,-1,20
 885 735 885 735 819 752 c 1,21,-1
 819 764 l 1,22,23
 880 793 880 793 915 860.5 c 128,-1,24
 950 928 950 928 950 1018 c 0,25,26
 950 1168 950 1168 867 1246.5 c 128,-1,27
 784 1325 784 1325 629 1325 c 0,28,29
 469 1325 469 1325 378 1231 c 128,-1,30
 287 1137 287 1137 281 963 c 1,31,-1
 549 963 l 1,32,33
 549 1024 549 1024 565.5 1058 c 128,-1,34
 582 1092 582 1092 618 1092 c 0,35,36
 653 1092 653 1092 669.5 1059 c 128,-1,37
 686 1026 686 1026 686 969 c 0,38,39
 686 903 686 903 664.5 872.5 c 128,-1,40
 643 842 643 842 600 842 c 2,41,-1
 496 842 l 1,42,-1
 496 637 l 1,43,-1
 610 637 l 2,44,45
 653 637 653 637 675.5 602 c 128,-1,46
 698 567 698 567 698 498 c 0,47,48
 698 437 698 437 677.5 395.5 c 128,-1,49
 657 354 657 354 616 354 c 256,50,51
 575 354 575 354 555 390 c 128,-1,52
 535 426 535 426 535 487 c 1,53,-1
 268 487 l 1,54,55
 272 305 272 305 359 212 c 128,-1,56
 446 119 446 119 610 119 c 0,57,16
 776 119 776 119 868.5 215 c 128,-1,17
EndSplineSet
EndChar

StartChar: uni2779
Encoding: 10105 10105 493
Width: 1228
GlyphClass: 1
Flags: W
LayerCount: 2
Fore
SplineSet
300 -236.5 m 128,-1,1
 174 -135 174 -135 107.5 99.5 c 128,-1,2
 41 334 41 334 41 723 c 256,3,4
 41 1112 41 1112 107.5 1345.5 c 128,-1,5
 174 1579 174 1579 300 1680.5 c 128,-1,6
 426 1782 426 1782 614 1782 c 256,7,8
 802 1782 802 1782 928.5 1680.5 c 128,-1,9
 1055 1579 1055 1579 1121.5 1345.5 c 128,-1,10
 1188 1112 1188 1112 1188 723 c 256,11,12
 1188 334 1188 334 1121.5 99.5 c 128,-1,13
 1055 -135 1055 -135 929 -236.5 c 128,-1,14
 803 -338 803 -338 614 -338 c 256,15,0
 426 -338 426 -338 300 -236.5 c 128,-1,1
877 143 m 1,16,-1
 877 348 l 1,17,-1
 979 348 l 1,18,-1
 979 575 l 1,19,-1
 877 575 l 1,20,-1
 877 1300 l 1,21,-1
 539 1300 l 1,22,-1
 252 604 l 1,23,-1
 252 348 l 1,24,-1
 618 348 l 1,25,-1
 618 143 l 1,26,-1
 877 143 l 1,16,-1
612 1024 m 1,28,-1
 625 1024 l 1,29,30
 619 967 619 967 618 827 c 2,31,-1
 618 575 l 1,32,-1
 436 575 l 1,33,-1
 545 840 l 2,34,27
 604 983 604 983 612 1024 c 1,28,-1
EndSplineSet
EndChar

StartChar: uni277A
Encoding: 10106 10106 494
Width: 1228
GlyphClass: 1
Flags: W
LayerCount: 2
Fore
SplineSet
300 -236.5 m 128,-1,1
 174 -135 174 -135 107.5 99.5 c 128,-1,2
 41 334 41 334 41 723 c 256,3,4
 41 1112 41 1112 107.5 1345.5 c 128,-1,5
 174 1579 174 1579 300 1680.5 c 128,-1,6
 426 1782 426 1782 614 1782 c 256,7,8
 802 1782 802 1782 928.5 1680.5 c 128,-1,9
 1055 1579 1055 1579 1121.5 1345.5 c 128,-1,10
 1188 1112 1188 1112 1188 723 c 256,11,12
 1188 334 1188 334 1121.5 99.5 c 128,-1,13
 1055 -135 1055 -135 929 -236.5 c 128,-1,14
 803 -338 803 -338 614 -338 c 256,15,0
 426 -338 426 -338 300 -236.5 c 128,-1,1
861 230.5 m 128,-1,17
 950 342 950 342 950 545 c 0,18,19
 950 719 950 719 885.5 818.5 c 128,-1,20
 821 918 821 918 719 918 c 0,21,22
 674 918 674 918 637 897.5 c 128,-1,23
 600 877 600 877 580 840 c 1,24,-1
 567 840 l 1,25,-1
 586 1071 l 1,26,-1
 928 1071 l 1,27,-1
 928 1300 l 1,28,-1
 350 1300 l 1,29,-1
 295 618 l 1,30,-1
 549 618 l 1,31,32
 565 696 565 696 614 696 c 0,33,34
 653 696 653 696 670.5 653 c 128,-1,35
 688 610 688 610 688 532 c 0,36,37
 688 448 688 448 671.5 401 c 128,-1,38
 655 354 655 354 618 354 c 0,39,40
 589 354 589 354 573 378.5 c 128,-1,41
 557 403 557 403 547 451 c 1,42,-1
 281 451 l 1,43,44
 287 304 287 304 374 211.5 c 128,-1,45
 461 119 461 119 610 119 c 0,46,16
 772 119 772 119 861 230.5 c 128,-1,17
EndSplineSet
EndChar

StartChar: uni277B
Encoding: 10107 10107 495
Width: 1228
GlyphClass: 1
Flags: W
LayerCount: 2
Fore
SplineSet
300 -236.5 m 128,-1,1
 174 -135 174 -135 107.5 99.5 c 128,-1,2
 41 334 41 334 41 723 c 256,3,4
 41 1112 41 1112 107.5 1345.5 c 128,-1,5
 174 1579 174 1579 300 1680.5 c 128,-1,6
 426 1782 426 1782 614 1782 c 256,7,8
 802 1782 802 1782 928.5 1680.5 c 128,-1,9
 1055 1579 1055 1579 1121.5 1345.5 c 128,-1,10
 1188 1112 1188 1112 1188 723 c 256,11,12
 1188 334 1188 334 1121.5 99.5 c 128,-1,13
 1055 -135 1055 -135 929 -236.5 c 128,-1,14
 803 -338 803 -338 614 -338 c 256,15,0
 426 -338 426 -338 300 -236.5 c 128,-1,1
868 229.5 m 128,-1,17
 956 340 956 340 956 537 c 0,18,19
 956 654 956 654 923.5 739.5 c 128,-1,20
 891 825 891 825 835.5 871.5 c 128,-1,21
 780 918 780 918 713 918 c 0,22,23
 654 918 654 918 610.5 885 c 128,-1,24
 567 852 567 852 547 797 c 1,25,-1
 537 797 l 1,26,27
 537 940 537 940 562.5 1019 c 128,-1,28
 588 1098 588 1098 633 1098 c 0,29,30
 653 1098 653 1098 667.5 1080.5 c 128,-1,31
 682 1063 682 1063 692 1024 c 1,32,-1
 958 1024 l 1,33,34
 942 1159 942 1159 857 1242 c 128,-1,35
 772 1325 772 1325 639 1325 c 0,36,37
 455 1325 455 1325 362.5 1165.5 c 128,-1,38
 270 1006 270 1006 270 709 c 0,39,40
 270 426 270 426 357 272.5 c 128,-1,41
 444 119 444 119 625 119 c 0,42,16
 780 119 780 119 868 229.5 c 128,-1,17
569.5 399 m 128,-1,44
 553 444 553 444 553 528 c 0,45,46
 553 610 553 610 569.5 653 c 128,-1,47
 586 696 586 696 623 696 c 256,48,49
 660 696 660 696 676 652 c 128,-1,50
 692 608 692 608 692 528 c 0,51,52
 692 444 692 444 675.5 399 c 128,-1,53
 659 354 659 354 623 354 c 256,54,43
 586 354 586 354 569.5 399 c 128,-1,44
EndSplineSet
EndChar

StartChar: uni277C
Encoding: 10108 10108 496
Width: 1228
GlyphClass: 1
Flags: W
LayerCount: 2
Fore
SplineSet
300 -236.5 m 128,-1,1
 174 -135 174 -135 107.5 99.5 c 128,-1,2
 41 334 41 334 41 723 c 256,3,4
 41 1112 41 1112 107.5 1345.5 c 128,-1,5
 174 1579 174 1579 300 1680.5 c 128,-1,6
 426 1782 426 1782 614 1782 c 256,7,8
 802 1782 802 1782 928.5 1680.5 c 128,-1,9
 1055 1579 1055 1579 1121.5 1345.5 c 128,-1,10
 1188 1112 1188 1112 1188 723 c 256,11,12
 1188 334 1188 334 1121.5 99.5 c 128,-1,13
 1055 -135 1055 -135 929 -236.5 c 128,-1,14
 803 -338 803 -338 614 -338 c 256,15,0
 426 -338 426 -338 300 -236.5 c 128,-1,1
768 648.5 m 128,-1,17
 831 883 831 883 938 1036 c 1,18,-1
 938 1300 l 1,19,-1
 293 1300 l 1,20,-1
 293 1071 l 1,21,-1
 680 1071 l 1,22,-1
 680 1059 l 1,23,24
 559 889 559 889 488.5 651.5 c 128,-1,25
 418 414 418 414 418 143 c 1,26,-1
 705 143 l 1,27,16
 705 414 705 414 768 648.5 c 128,-1,17
EndSplineSet
EndChar

StartChar: uni277D
Encoding: 10109 10109 497
Width: 1228
GlyphClass: 1
Flags: W
LayerCount: 2
Fore
SplineSet
359.5 210 m 128,-1,1
 268 301 268 301 268 459 c 0,2,3
 268 553 268 553 308 624.5 c 128,-1,4
 348 696 348 696 422 729 c 1,5,-1
 422 741 l 1,6,7
 356 772 356 772 322.5 838.5 c 128,-1,8
 289 905 289 905 289 993 c 0,9,10
 289 1140 289 1140 378 1232.5 c 128,-1,11
 467 1325 467 1325 614 1325 c 0,12,13
 757 1325 757 1325 846.5 1233 c 128,-1,14
 936 1141 936 1141 936 993 c 0,15,16
 936 905 936 905 902 838.5 c 128,-1,17
 868 772 868 772 803 741 c 1,18,-1
 803 729 l 1,19,20
 879 696 879 696 918.5 624.5 c 128,-1,21
 958 553 958 553 958 459 c 0,22,23
 958 301 958 301 868 210 c 128,-1,24
 778 119 778 119 614 119 c 256,25,0
 451 119 451 119 359.5 210 c 128,-1,1
674.5 387 m 128,-1,27
 694 424 694 424 694 492 c 256,28,29
 694 560 694 560 673.5 596.5 c 128,-1,30
 653 633 653 633 614 633 c 0,31,32
 571 633 571 633 550.5 596 c 128,-1,33
 530 559 530 559 530 492 c 256,34,35
 530 424 530 424 550.5 387 c 128,-1,36
 571 350 571 350 614 350 c 0,37,26
 655 350 655 350 674.5 387 c 128,-1,27
664.5 874.5 m 128,-1,39
 680 907 680 907 680 969 c 0,40,41
 680 1028 680 1028 664.5 1061 c 128,-1,42
 649 1094 649 1094 614 1094 c 256,43,44
 579 1094 579 1094 563 1062 c 128,-1,45
 547 1030 547 1030 547 969 c 256,46,47
 547 908 547 908 563.5 875 c 128,-1,48
 580 842 580 842 614 842 c 256,49,38
 649 842 649 842 664.5 874.5 c 128,-1,39
929 -236.5 m 128,-1,51
 1055 -135 1055 -135 1121.5 99.5 c 128,-1,52
 1188 334 1188 334 1188 723 c 256,53,54
 1188 1112 1188 1112 1121.5 1345.5 c 128,-1,55
 1055 1579 1055 1579 929 1680.5 c 128,-1,56
 803 1782 803 1782 614 1782 c 256,57,58
 426 1782 426 1782 300 1680.5 c 128,-1,59
 174 1579 174 1579 107.5 1345.5 c 128,-1,60
 41 1112 41 1112 41 723 c 256,61,62
 41 334 41 334 107.5 99.5 c 128,-1,63
 174 -135 174 -135 300 -236.5 c 128,-1,64
 426 -338 426 -338 614 -338 c 256,65,50
 803 -338 803 -338 929 -236.5 c 128,-1,51
EndSplineSet
EndChar

StartChar: uni24EA
Encoding: 9450 9450 499
Width: 1228
GlyphClass: 1
Flags: W
LayerCount: 2
Fore
SplineSet
298 -236.5 m 128,-1,1
 172 -135 172 -135 106.5 99.5 c 128,-1,2
 41 334 41 334 41 723 c 256,3,4
 41 1112 41 1112 106.5 1345.5 c 128,-1,5
 172 1579 172 1579 298 1680.5 c 128,-1,6
 424 1782 424 1782 614 1782 c 256,7,8
 804 1782 804 1782 930.5 1680.5 c 128,-1,9
 1057 1579 1057 1579 1122.5 1345.5 c 128,-1,10
 1188 1112 1188 1112 1188 723 c 256,11,12
 1188 334 1188 334 1122.5 99.5 c 128,-1,13
 1057 -135 1057 -135 931 -236.5 c 128,-1,14
 805 -338 805 -338 614 -338 c 256,15,0
 424 -338 424 -338 298 -236.5 c 128,-1,1
844 -99 m 128,-1,17
 934 -14 934 -14 981 184.5 c 128,-1,18
 1028 383 1028 383 1028 723 c 0,19,20
 1028 1061 1028 1061 981 1259.5 c 128,-1,21
 934 1458 934 1458 844 1543 c 128,-1,22
 754 1628 754 1628 614 1628 c 256,23,24
 475 1628 475 1628 385 1543 c 128,-1,25
 295 1458 295 1458 248 1259.5 c 128,-1,26
 201 1061 201 1061 201 723 c 0,27,28
 201 383 201 383 248 184.5 c 128,-1,29
 295 -14 295 -14 385 -99 c 128,-1,30
 475 -184 475 -184 614 -184 c 256,31,16
 754 -184 754 -184 844 -99 c 128,-1,17
349 270.5 m 128,-1,33
 260 420 260 420 260 725 c 0,34,35
 260 1028 260 1028 349 1177.5 c 128,-1,36
 438 1327 438 1327 614 1327 c 256,37,38
 790 1327 790 1327 880.5 1178.5 c 128,-1,39
 971 1030 971 1030 971 725 c 256,40,41
 971 420 971 420 881 270.5 c 128,-1,42
 791 121 791 121 614 121 c 256,43,32
 438 121 438 121 349 270.5 c 128,-1,33
678.5 396.5 m 128,-1,45
 702 428 702 428 713.5 506 c 128,-1,46
 725 584 725 584 725 725 c 256,47,48
 725 866 725 866 713.5 943 c 128,-1,49
 702 1020 702 1020 678.5 1051.5 c 128,-1,50
 655 1083 655 1083 614 1083 c 256,51,52
 573 1083 573 1083 550.5 1052.5 c 128,-1,53
 528 1022 528 1022 517 945 c 128,-1,54
 506 868 506 868 506 725 c 256,55,56
 506 582 506 582 517 504 c 128,-1,57
 528 426 528 426 550.5 395.5 c 128,-1,58
 573 365 573 365 614 365 c 256,59,44
 655 365 655 365 678.5 396.5 c 128,-1,45
EndSplineSet
EndChar

StartChar: uni2460
Encoding: 9312 9312 500
Width: 1228
GlyphClass: 1
Flags: W
LayerCount: 2
Fore
SplineSet
298 -236.5 m 128,-1,1
 172 -135 172 -135 106.5 99.5 c 128,-1,2
 41 334 41 334 41 723 c 256,3,4
 41 1112 41 1112 106.5 1345.5 c 128,-1,5
 172 1579 172 1579 298 1680.5 c 128,-1,6
 424 1782 424 1782 614 1782 c 256,7,8
 804 1782 804 1782 930.5 1680.5 c 128,-1,9
 1057 1579 1057 1579 1122.5 1345.5 c 128,-1,10
 1188 1112 1188 1112 1188 723 c 256,11,12
 1188 334 1188 334 1122.5 99.5 c 128,-1,13
 1057 -135 1057 -135 931 -236.5 c 128,-1,14
 805 -338 805 -338 614 -338 c 256,15,0
 424 -338 424 -338 298 -236.5 c 128,-1,1
844 -99 m 128,-1,17
 934 -14 934 -14 981 184.5 c 128,-1,18
 1028 383 1028 383 1028 723 c 0,19,20
 1028 1061 1028 1061 981 1259.5 c 128,-1,21
 934 1458 934 1458 844 1543 c 128,-1,22
 754 1628 754 1628 614 1628 c 256,23,24
 475 1628 475 1628 385 1543 c 128,-1,25
 295 1458 295 1458 248 1259.5 c 128,-1,26
 201 1061 201 1061 201 723 c 0,27,28
 201 383 201 383 248 184.5 c 128,-1,29
 295 -14 295 -14 385 -99 c 128,-1,30
 475 -184 475 -184 614 -184 c 256,31,16
 754 -184 754 -184 844 -99 c 128,-1,17
289 373 m 1,32,-1
 481 373 l 1,33,-1
 481 893 l 1,34,-1
 287 893 l 1,35,-1
 287 1090 l 1,36,37
 361 1090 361 1090 407 1111.5 c 128,-1,38
 453 1133 453 1133 477.5 1180 c 128,-1,39
 502 1227 502 1227 508 1300 c 1,40,-1
 745 1300 l 1,41,-1
 745 373 l 1,42,-1
 936 373 l 1,43,-1
 936 143 l 1,44,-1
 289 143 l 1,45,-1
 289 373 l 1,32,-1
EndSplineSet
EndChar

StartChar: uni2461
Encoding: 9313 9313 501
Width: 1228
GlyphClass: 1
Flags: W
LayerCount: 2
Fore
SplineSet
298 -236.5 m 128,-1,1
 172 -135 172 -135 106.5 99.5 c 128,-1,2
 41 334 41 334 41 723 c 256,3,4
 41 1112 41 1112 106.5 1345.5 c 128,-1,5
 172 1579 172 1579 298 1680.5 c 128,-1,6
 424 1782 424 1782 614 1782 c 256,7,8
 804 1782 804 1782 930.5 1680.5 c 128,-1,9
 1057 1579 1057 1579 1122.5 1345.5 c 128,-1,10
 1188 1112 1188 1112 1188 723 c 256,11,12
 1188 334 1188 334 1122.5 99.5 c 128,-1,13
 1057 -135 1057 -135 931 -236.5 c 128,-1,14
 805 -338 805 -338 614 -338 c 256,15,0
 424 -338 424 -338 298 -236.5 c 128,-1,1
844 -99 m 128,-1,17
 934 -14 934 -14 981 184.5 c 128,-1,18
 1028 383 1028 383 1028 723 c 0,19,20
 1028 1061 1028 1061 981 1259.5 c 128,-1,21
 934 1458 934 1458 844 1543 c 128,-1,22
 754 1628 754 1628 614 1628 c 256,23,24
 475 1628 475 1628 385 1543 c 128,-1,25
 295 1458 295 1458 248 1259.5 c 128,-1,26
 201 1061 201 1061 201 723 c 0,27,28
 201 383 201 383 248 184.5 c 128,-1,29
 295 -14 295 -14 385 -99 c 128,-1,30
 475 -184 475 -184 614 -184 c 256,31,16
 754 -184 754 -184 844 -99 c 128,-1,17
285 246 m 0,33,34
 285 385 285 385 327 483.5 c 128,-1,35
 369 582 369 582 455 657 c 2,36,-1
 600 788 l 2,37,38
 651 833 651 833 671.5 875.5 c 128,-1,39
 692 918 692 918 692 981 c 0,40,41
 692 1034 692 1034 677 1063 c 128,-1,42
 662 1092 662 1092 625 1092 c 0,43,44
 580 1092 580 1092 561.5 1050 c 128,-1,45
 543 1008 543 1008 543 924 c 1,46,-1
 274 924 l 1,47,48
 274 1119 274 1119 359 1222 c 128,-1,49
 444 1325 444 1325 616 1325 c 0,50,51
 782 1325 782 1325 868 1237 c 128,-1,52
 954 1149 954 1149 954 987 c 0,53,54
 954 868 954 868 917.5 786.5 c 128,-1,55
 881 705 881 705 805 635 c 2,56,-1
 633 479 l 2,57,58
 604 450 604 450 595 429 c 128,-1,59
 586 408 586 408 586 373 c 1,60,-1
 954 373 l 1,61,-1
 954 143 l 1,62,-1
 293 143 l 1,63,32
 285 213 285 213 285 246 c 0,33,34
EndSplineSet
EndChar

StartChar: uni2462
Encoding: 9314 9314 502
Width: 1228
GlyphClass: 1
Flags: W
LayerCount: 2
Fore
SplineSet
298 -236.5 m 128,-1,1
 172 -135 172 -135 106.5 99.5 c 128,-1,2
 41 334 41 334 41 723 c 256,3,4
 41 1112 41 1112 106.5 1345.5 c 128,-1,5
 172 1579 172 1579 298 1680.5 c 128,-1,6
 424 1782 424 1782 614 1782 c 256,7,8
 804 1782 804 1782 930.5 1680.5 c 128,-1,9
 1057 1579 1057 1579 1122.5 1345.5 c 128,-1,10
 1188 1112 1188 1112 1188 723 c 256,11,12
 1188 334 1188 334 1122.5 99.5 c 128,-1,13
 1057 -135 1057 -135 931 -236.5 c 128,-1,14
 805 -338 805 -338 614 -338 c 256,15,0
 424 -338 424 -338 298 -236.5 c 128,-1,1
844 -99 m 128,-1,17
 934 -14 934 -14 981 184.5 c 128,-1,18
 1028 383 1028 383 1028 723 c 0,19,20
 1028 1061 1028 1061 981 1259.5 c 128,-1,21
 934 1458 934 1458 844 1543 c 128,-1,22
 754 1628 754 1628 614 1628 c 256,23,24
 475 1628 475 1628 385 1543 c 128,-1,25
 295 1458 295 1458 248 1259.5 c 128,-1,26
 201 1061 201 1061 201 723 c 0,27,28
 201 383 201 383 248 184.5 c 128,-1,29
 295 -14 295 -14 385 -99 c 128,-1,30
 475 -184 475 -184 614 -184 c 256,31,16
 754 -184 754 -184 844 -99 c 128,-1,17
359 212 m 128,-1,33
 272 305 272 305 268 487 c 1,34,-1
 535 487 l 1,35,36
 535 426 535 426 555 390 c 128,-1,37
 575 354 575 354 616 354 c 256,38,39
 657 354 657 354 677.5 395 c 128,-1,40
 698 436 698 436 698 498 c 0,41,42
 698 568 698 568 675.5 602.5 c 128,-1,43
 653 637 653 637 610 637 c 2,44,-1
 496 637 l 1,45,-1
 496 842 l 1,46,-1
 600 842 l 2,47,48
 643 842 643 842 664.5 872.5 c 128,-1,49
 686 903 686 903 686 969 c 0,50,51
 686 1026 686 1026 669.5 1059 c 128,-1,52
 653 1092 653 1092 618 1092 c 0,53,54
 581 1092 581 1092 565 1058 c 128,-1,55
 549 1024 549 1024 549 963 c 1,56,-1
 281 963 l 1,57,58
 287 1137 287 1137 378 1231 c 128,-1,59
 469 1325 469 1325 629 1325 c 0,60,61
 785 1325 785 1325 867.5 1246 c 128,-1,62
 950 1167 950 1167 950 1018 c 0,63,64
 950 928 950 928 915.5 860.5 c 128,-1,65
 881 793 881 793 819 764 c 1,66,-1
 819 752 l 1,67,68
 885 736 885 736 923 664 c 128,-1,69
 961 592 961 592 961 483 c 0,70,71
 961 311 961 311 868.5 215 c 128,-1,72
 776 119 776 119 610 119 c 0,73,32
 446 119 446 119 359 212 c 128,-1,33
EndSplineSet
EndChar

StartChar: uni2463
Encoding: 9315 9315 503
Width: 1228
GlyphClass: 1
Flags: W
LayerCount: 2
Fore
SplineSet
298 -236.5 m 128,-1,1
 172 -135 172 -135 106.5 99.5 c 128,-1,2
 41 334 41 334 41 723 c 256,3,4
 41 1112 41 1112 106.5 1345.5 c 128,-1,5
 172 1579 172 1579 298 1680.5 c 128,-1,6
 424 1782 424 1782 614 1782 c 256,7,8
 804 1782 804 1782 930.5 1680.5 c 128,-1,9
 1057 1579 1057 1579 1122.5 1345.5 c 128,-1,10
 1188 1112 1188 1112 1188 723 c 256,11,12
 1188 334 1188 334 1122.5 99.5 c 128,-1,13
 1057 -135 1057 -135 931 -236.5 c 128,-1,14
 805 -338 805 -338 614 -338 c 256,15,0
 424 -338 424 -338 298 -236.5 c 128,-1,1
844 -99 m 128,-1,17
 934 -14 934 -14 981 184.5 c 128,-1,18
 1028 383 1028 383 1028 723 c 0,19,20
 1028 1061 1028 1061 981 1259.5 c 128,-1,21
 934 1458 934 1458 844 1543 c 128,-1,22
 754 1628 754 1628 614 1628 c 256,23,24
 475 1628 475 1628 385 1543 c 128,-1,25
 295 1458 295 1458 248 1259.5 c 128,-1,26
 201 1061 201 1061 201 723 c 0,27,28
 201 383 201 383 248 184.5 c 128,-1,29
 295 -14 295 -14 385 -99 c 128,-1,30
 475 -184 475 -184 614 -184 c 256,31,16
 754 -184 754 -184 844 -99 c 128,-1,17
618 348 m 1,32,-1
 252 348 l 1,33,-1
 252 604 l 1,34,-1
 539 1300 l 1,35,-1
 877 1300 l 1,36,-1
 877 575 l 1,37,-1
 979 575 l 1,38,-1
 979 348 l 1,39,-1
 877 348 l 1,40,-1
 877 143 l 1,41,-1
 618 143 l 1,42,-1
 618 348 l 1,32,-1
618 575 m 1,43,-1
 618 827 l 2,44,45
 618 966 618 966 625 1024 c 1,46,-1
 612 1024 l 1,47,48
 604 983 604 983 545 840 c 2,49,-1
 436 575 l 1,50,-1
 618 575 l 1,43,-1
EndSplineSet
EndChar

StartChar: uni2464
Encoding: 9316 9316 504
Width: 1228
GlyphClass: 1
Flags: W
LayerCount: 2
Fore
SplineSet
298 -236.5 m 128,-1,1
 172 -135 172 -135 106.5 99.5 c 128,-1,2
 41 334 41 334 41 723 c 256,3,4
 41 1112 41 1112 106.5 1345.5 c 128,-1,5
 172 1579 172 1579 298 1680.5 c 128,-1,6
 424 1782 424 1782 614 1782 c 256,7,8
 804 1782 804 1782 930.5 1680.5 c 128,-1,9
 1057 1579 1057 1579 1122.5 1345.5 c 128,-1,10
 1188 1112 1188 1112 1188 723 c 256,11,12
 1188 334 1188 334 1122.5 99.5 c 128,-1,13
 1057 -135 1057 -135 931 -236.5 c 128,-1,14
 805 -338 805 -338 614 -338 c 256,15,0
 424 -338 424 -338 298 -236.5 c 128,-1,1
844 -99 m 128,-1,17
 934 -14 934 -14 981 184.5 c 128,-1,18
 1028 383 1028 383 1028 723 c 0,19,20
 1028 1061 1028 1061 981 1259.5 c 128,-1,21
 934 1458 934 1458 844 1543 c 128,-1,22
 754 1628 754 1628 614 1628 c 256,23,24
 475 1628 475 1628 385 1543 c 128,-1,25
 295 1458 295 1458 248 1259.5 c 128,-1,26
 201 1061 201 1061 201 723 c 0,27,28
 201 383 201 383 248 184.5 c 128,-1,29
 295 -14 295 -14 385 -99 c 128,-1,30
 475 -184 475 -184 614 -184 c 256,31,16
 754 -184 754 -184 844 -99 c 128,-1,17
374 211 m 128,-1,33
 287 303 287 303 281 451 c 1,34,-1
 547 451 l 1,35,36
 557 404 557 404 573.5 379 c 128,-1,37
 590 354 590 354 618 354 c 0,38,39
 655 354 655 354 671.5 401.5 c 128,-1,40
 688 449 688 449 688 532 c 0,41,42
 688 610 688 610 670.5 653 c 128,-1,43
 653 696 653 696 614 696 c 0,44,45
 565 696 565 696 549 618 c 1,46,-1
 295 618 l 1,47,-1
 350 1300 l 1,48,-1
 928 1300 l 1,49,-1
 928 1071 l 1,50,-1
 586 1071 l 1,51,-1
 567 840 l 1,52,-1
 580 840 l 1,53,54
 600 877 600 877 637 897.5 c 128,-1,55
 674 918 674 918 719 918 c 0,56,57
 821 918 821 918 885.5 818.5 c 128,-1,58
 950 719 950 719 950 545 c 0,59,60
 950 342 950 342 861 230.5 c 128,-1,61
 772 119 772 119 610 119 c 0,62,32
 461 119 461 119 374 211 c 128,-1,33
EndSplineSet
EndChar

StartChar: uni2465
Encoding: 9317 9317 505
Width: 1228
GlyphClass: 1
Flags: W
LayerCount: 2
Fore
SplineSet
298 -236.5 m 128,-1,1
 172 -135 172 -135 106.5 99.5 c 128,-1,2
 41 334 41 334 41 723 c 256,3,4
 41 1112 41 1112 106.5 1345.5 c 128,-1,5
 172 1579 172 1579 298 1680.5 c 128,-1,6
 424 1782 424 1782 614 1782 c 256,7,8
 804 1782 804 1782 930.5 1680.5 c 128,-1,9
 1057 1579 1057 1579 1122.5 1345.5 c 128,-1,10
 1188 1112 1188 1112 1188 723 c 256,11,12
 1188 334 1188 334 1122.5 99.5 c 128,-1,13
 1057 -135 1057 -135 931 -236.5 c 128,-1,14
 805 -338 805 -338 614 -338 c 256,15,0
 424 -338 424 -338 298 -236.5 c 128,-1,1
844 -99 m 128,-1,17
 934 -14 934 -14 981 184.5 c 128,-1,18
 1028 383 1028 383 1028 723 c 0,19,20
 1028 1061 1028 1061 981 1259.5 c 128,-1,21
 934 1458 934 1458 844 1543 c 128,-1,22
 754 1628 754 1628 614 1628 c 256,23,24
 475 1628 475 1628 385 1543 c 128,-1,25
 295 1458 295 1458 248 1259.5 c 128,-1,26
 201 1061 201 1061 201 723 c 0,27,28
 201 383 201 383 248 184.5 c 128,-1,29
 295 -14 295 -14 385 -99 c 128,-1,30
 475 -184 475 -184 614 -184 c 256,31,16
 754 -184 754 -184 844 -99 c 128,-1,17
357 272.5 m 128,-1,33
 270 426 270 426 270 709 c 0,34,35
 270 1006 270 1006 362.5 1165.5 c 128,-1,36
 455 1325 455 1325 639 1325 c 0,37,38
 772 1325 772 1325 857 1242 c 128,-1,39
 942 1159 942 1159 958 1024 c 1,40,-1
 692 1024 l 1,41,42
 682 1063 682 1063 667.5 1080.5 c 128,-1,43
 653 1098 653 1098 633 1098 c 0,44,45
 588 1098 588 1098 562.5 1019 c 128,-1,46
 537 940 537 940 537 797 c 1,47,-1
 547 797 l 1,48,49
 567 852 567 852 610 885 c 128,-1,50
 653 918 653 918 713 918 c 0,51,52
 781 918 781 918 836 871.5 c 128,-1,53
 891 825 891 825 923.5 739 c 128,-1,54
 956 653 956 653 956 537 c 0,55,56
 956 340 956 340 868 229.5 c 128,-1,57
 780 119 780 119 625 119 c 0,58,32
 444 119 444 119 357 272.5 c 128,-1,33
675.5 399 m 128,-1,60
 692 444 692 444 692 528 c 0,61,62
 692 608 692 608 675.5 652 c 128,-1,63
 659 696 659 696 623 696 c 256,64,65
 586 696 586 696 569.5 653 c 128,-1,66
 553 610 553 610 553 528 c 0,67,68
 553 444 553 444 569.5 399 c 128,-1,69
 586 354 586 354 623 354 c 256,70,59
 659 354 659 354 675.5 399 c 128,-1,60
EndSplineSet
EndChar

StartChar: uni2466
Encoding: 9318 9318 506
Width: 1228
GlyphClass: 1
Flags: W
LayerCount: 2
Fore
SplineSet
298 -236.5 m 128,-1,1
 172 -135 172 -135 106.5 99.5 c 128,-1,2
 41 334 41 334 41 723 c 256,3,4
 41 1112 41 1112 106.5 1345.5 c 128,-1,5
 172 1579 172 1579 298 1680.5 c 128,-1,6
 424 1782 424 1782 614 1782 c 256,7,8
 804 1782 804 1782 930.5 1680.5 c 128,-1,9
 1057 1579 1057 1579 1122.5 1345.5 c 128,-1,10
 1188 1112 1188 1112 1188 723 c 256,11,12
 1188 334 1188 334 1122.5 99.5 c 128,-1,13
 1057 -135 1057 -135 931 -236.5 c 128,-1,14
 805 -338 805 -338 614 -338 c 256,15,0
 424 -338 424 -338 298 -236.5 c 128,-1,1
844 -99 m 128,-1,17
 934 -14 934 -14 981 184.5 c 128,-1,18
 1028 383 1028 383 1028 723 c 0,19,20
 1028 1061 1028 1061 981 1259.5 c 128,-1,21
 934 1458 934 1458 844 1543 c 128,-1,22
 754 1628 754 1628 614 1628 c 256,23,24
 475 1628 475 1628 385 1543 c 128,-1,25
 295 1458 295 1458 248 1259.5 c 128,-1,26
 201 1061 201 1061 201 723 c 0,27,28
 201 383 201 383 248 184.5 c 128,-1,29
 295 -14 295 -14 385 -99 c 128,-1,30
 475 -184 475 -184 614 -184 c 256,31,16
 754 -184 754 -184 844 -99 c 128,-1,17
488.5 651.5 m 128,-1,33
 559 889 559 889 680 1059 c 1,34,-1
 680 1071 l 1,35,-1
 293 1071 l 1,36,-1
 293 1300 l 1,37,-1
 938 1300 l 1,38,-1
 938 1036 l 1,39,40
 832 882 832 882 768.5 648 c 128,-1,41
 705 414 705 414 705 143 c 1,42,-1
 418 143 l 1,43,32
 418 414 418 414 488.5 651.5 c 128,-1,33
EndSplineSet
EndChar

StartChar: uni2467
Encoding: 9319 9319 507
Width: 1228
GlyphClass: 1
Flags: W
LayerCount: 2
Fore
SplineSet
298 -236.5 m 128,-1,1
 172 -135 172 -135 106.5 99.5 c 128,-1,2
 41 334 41 334 41 723 c 256,3,4
 41 1112 41 1112 106.5 1345.5 c 128,-1,5
 172 1579 172 1579 298 1680.5 c 128,-1,6
 424 1782 424 1782 614 1782 c 256,7,8
 804 1782 804 1782 930.5 1680.5 c 128,-1,9
 1057 1579 1057 1579 1122.5 1345.5 c 128,-1,10
 1188 1112 1188 1112 1188 723 c 256,11,12
 1188 334 1188 334 1122.5 99.5 c 128,-1,13
 1057 -135 1057 -135 931 -236.5 c 128,-1,14
 805 -338 805 -338 614 -338 c 256,15,0
 424 -338 424 -338 298 -236.5 c 128,-1,1
844 -99 m 128,-1,17
 934 -14 934 -14 981 184.5 c 128,-1,18
 1028 383 1028 383 1028 723 c 0,19,20
 1028 1061 1028 1061 981 1259.5 c 128,-1,21
 934 1458 934 1458 844 1543 c 128,-1,22
 754 1628 754 1628 614 1628 c 256,23,24
 475 1628 475 1628 385 1543 c 128,-1,25
 295 1458 295 1458 248 1259.5 c 128,-1,26
 201 1061 201 1061 201 723 c 0,27,28
 201 383 201 383 248 184.5 c 128,-1,29
 295 -14 295 -14 385 -99 c 128,-1,30
 475 -184 475 -184 614 -184 c 256,31,16
 754 -184 754 -184 844 -99 c 128,-1,17
359.5 210 m 128,-1,33
 268 301 268 301 268 459 c 0,34,35
 268 553 268 553 308 624.5 c 128,-1,36
 348 696 348 696 422 729 c 1,37,-1
 422 741 l 1,38,39
 356 772 356 772 322.5 838.5 c 128,-1,40
 289 905 289 905 289 993 c 0,41,42
 289 1140 289 1140 378 1232.5 c 128,-1,43
 467 1325 467 1325 614 1325 c 0,44,45
 757 1325 757 1325 846.5 1233 c 128,-1,46
 936 1141 936 1141 936 993 c 0,47,48
 936 905 936 905 902 838.5 c 128,-1,49
 868 772 868 772 803 741 c 1,50,-1
 803 729 l 1,51,52
 879 696 879 696 918.5 624.5 c 128,-1,53
 958 553 958 553 958 459 c 0,54,55
 958 301 958 301 868 210 c 128,-1,56
 778 119 778 119 614 119 c 256,57,32
 451 119 451 119 359.5 210 c 128,-1,33
674.5 387 m 128,-1,59
 694 424 694 424 694 492 c 256,60,61
 694 560 694 560 673.5 596.5 c 128,-1,62
 653 633 653 633 614 633 c 0,63,64
 571 633 571 633 550.5 596 c 128,-1,65
 530 559 530 559 530 492 c 256,66,67
 530 424 530 424 550.5 387 c 128,-1,68
 571 350 571 350 614 350 c 0,69,58
 655 350 655 350 674.5 387 c 128,-1,59
664.5 874.5 m 128,-1,71
 680 907 680 907 680 969 c 0,72,73
 680 1028 680 1028 664.5 1061 c 128,-1,74
 649 1094 649 1094 614 1094 c 256,75,76
 579 1094 579 1094 563 1062 c 128,-1,77
 547 1030 547 1030 547 969 c 256,78,79
 547 908 547 908 563.5 875 c 128,-1,80
 580 842 580 842 614 842 c 256,81,70
 649 842 649 842 664.5 874.5 c 128,-1,71
EndSplineSet
EndChar

StartChar: zero.numr
Encoding: 65621 -1 519
Width: 1228
GlyphClass: 1
Flags: W
LayerCount: 2
Fore
SplineSet
391 832.5 m 128,-1,1
 309 928 309 928 309 1098 c 256,2,3
 309 1268 309 1268 390 1364 c 128,-1,4
 471 1460 471 1460 616 1460 c 0,5,6
 759 1460 759 1460 840.5 1365 c 128,-1,7
 922 1270 922 1270 922 1098 c 0,8,9
 922 928 922 928 841 832.5 c 128,-1,10
 760 737 760 737 616 737 c 256,11,0
 473 737 473 737 391 832.5 c 128,-1,1
709.5 944 m 128,-1,13
 739 991 739 991 739 1098 c 256,14,15
 739 1204 739 1204 709.5 1251 c 128,-1,16
 680 1298 680 1298 616 1298 c 256,17,18
 553 1298 553 1298 523.5 1250 c 128,-1,19
 494 1202 494 1202 494 1098 c 0,20,21
 494 992 494 992 522.5 944.5 c 128,-1,22
 551 897 551 897 616 897 c 0,23,12
 680 897 680 897 709.5 944 c 128,-1,13
EndSplineSet
Substitution2: "Single Substitution lookup 34 subtable" zero.dnom
Substitution2: "'aalt' Access All Alternates in Latin lookup 0 subtable" zero.dnom
EndChar

StartChar: one.numr
Encoding: 65622 -1 520
Width: 1228
GlyphClass: 1
Flags: W
LayerCount: 2
Fore
SplineSet
516 1188 m 1,0,-1
 334 1188 l 1,1,-1
 334 1317 l 1,2,3
 438 1319 438 1319 484 1348.5 c 128,-1,4
 530 1378 530 1378 541 1444 c 1,5,-1
 713 1444 l 1,6,-1
 713 823 l 1,7,-1
 516 823 l 1,8,-1
 516 1188 l 1,0,-1
332 903 m 1,9,-1
 868 903 l 1,10,-1
 868 752 l 1,11,-1
 332 752 l 1,12,-1
 332 903 l 1,9,-1
EndSplineSet
Substitution2: "Single Substitution lookup 34 subtable" one.dnom
Substitution2: "'aalt' Access All Alternates in Latin lookup 0 subtable" one.dnom
EndChar

StartChar: two.numr
Encoding: 65623 -1 521
Width: 1228
GlyphClass: 1
Flags: W
LayerCount: 2
Fore
SplineSet
334 817 m 0,1,2
 334 911 334 911 374 976.5 c 128,-1,3
 414 1042 414 1042 498 1087 c 2,4,-1
 645 1163 l 2,5,6
 676 1179 676 1179 690.5 1199 c 128,-1,7
 705 1219 705 1219 705 1243 c 0,8,9
 705 1272 705 1272 683.5 1288.5 c 128,-1,10
 662 1305 662 1305 623 1305 c 0,11,12
 578 1305 578 1305 552 1281 c 128,-1,13
 526 1257 526 1257 526 1217 c 1,14,-1
 328 1217 l 1,15,16
 328 1328 328 1328 408.5 1394 c 128,-1,17
 489 1460 489 1460 625 1460 c 0,18,19
 756 1460 756 1460 827.5 1404 c 128,-1,20
 899 1348 899 1348 899 1245 c 0,21,22
 899 1184 899 1184 864 1129.5 c 128,-1,23
 829 1075 829 1075 752 1036 c 2,24,-1
 592 954 l 2,25,26
 572 944 572 944 563.5 932 c 128,-1,27
 555 920 555 920 555 903 c 1,28,-1
 901 903 l 1,29,-1
 901 752 l 1,30,-1
 340 752 l 1,31,0
 334 780 334 780 334 817 c 0,1,2
EndSplineSet
Substitution2: "Single Substitution lookup 34 subtable" two.dnom
Substitution2: "'aalt' Access All Alternates in Latin lookup 0 subtable" two.dnom
EndChar

StartChar: three.numr
Encoding: 65624 -1 522
Width: 1228
GlyphClass: 1
Flags: W
LayerCount: 2
Fore
SplineSet
401.5 795.5 m 128,-1,1
 324 854 324 854 322 958 c 1,2,-1
 520 958 l 1,3,4
 520 929 520 929 547.5 910 c 128,-1,5
 575 891 575 891 618 891 c 256,6,7
 661 891 661 891 688 912.5 c 128,-1,8
 715 934 715 934 715 969 c 0,9,10
 715 1000 715 1000 689.5 1020 c 128,-1,11
 664 1040 664 1040 618 1040 c 2,12,-1
 518 1040 l 1,13,-1
 518 1176 l 1,14,-1
 610 1176 l 2,15,16
 653 1176 653 1176 677.5 1194 c 128,-1,17
 702 1212 702 1212 702 1241 c 256,18,19
 702 1270 702 1270 678.5 1287.5 c 128,-1,20
 655 1305 655 1305 616 1305 c 256,21,22
 577 1305 577 1305 553.5 1286.5 c 128,-1,23
 530 1268 530 1268 530 1239 c 1,24,-1
 332 1239 l 1,25,26
 336 1339 336 1339 416 1399.5 c 128,-1,27
 496 1460 496 1460 625 1460 c 0,28,29
 752 1460 752 1460 824.5 1410 c 128,-1,30
 897 1360 897 1360 897 1276 c 0,31,32
 897 1221 897 1221 867.5 1181 c 128,-1,33
 838 1141 838 1141 784 1124 c 1,34,-1
 784 1116 l 1,35,36
 843 1106 843 1106 876 1063 c 128,-1,37
 909 1020 909 1020 909 956 c 0,38,39
 909 858 909 858 828.5 797.5 c 128,-1,40
 748 737 748 737 614 737 c 0,41,0
 479 737 479 737 401.5 795.5 c 128,-1,1
EndSplineSet
Substitution2: "Single Substitution lookup 34 subtable" three.dnom
Substitution2: "'aalt' Access All Alternates in Latin lookup 0 subtable" three.dnom
EndChar

StartChar: four.numr
Encoding: 65625 -1 523
Width: 1228
GlyphClass: 1
Flags: W
LayerCount: 2
Fore
SplineSet
641 864 m 1,0,-1
 305 864 l 1,1,-1
 305 1032 l 1,2,-1
 612 1444 l 1,3,-1
 831 1444 l 1,4,-1
 831 1014 l 1,5,-1
 926 1014 l 1,6,-1
 926 864 l 1,7,-1
 831 864 l 1,8,-1
 831 752 l 1,9,-1
 641 752 l 1,10,-1
 641 864 l 1,0,-1
641 1014 m 1,11,-1
 641 1135 l 2,12,13
 641 1215 641 1215 645 1264 c 1,14,-1
 637 1264 l 1,15,16
 633 1250 633 1250 625 1237 c 0,17,18
 615 1219 615 1219 601.5 1198.5 c 128,-1,19
 588 1178 588 1178 571 1157 c 2,20,-1
 461 1014 l 1,21,-1
 641 1014 l 1,11,-1
EndSplineSet
Substitution2: "Single Substitution lookup 34 subtable" four.dnom
Substitution2: "'aalt' Access All Alternates in Latin lookup 0 subtable" four.dnom
EndChar

StartChar: five.numr
Encoding: 65626 -1 524
Width: 1228
GlyphClass: 1
Flags: W
LayerCount: 2
Fore
SplineSet
414 794.5 m 128,-1,1
 334 852 334 852 330 940 c 1,2,-1
 528 940 l 1,3,4
 536 915 536 915 561 903 c 128,-1,5
 586 891 586 891 616 891 c 0,6,7
 655 891 655 891 681 917.5 c 128,-1,8
 707 944 707 944 707 985 c 0,9,10
 707 1024 707 1024 682 1047.5 c 128,-1,11
 657 1071 657 1071 616 1071 c 0,12,13
 589 1071 589 1071 567 1060 c 128,-1,14
 545 1049 545 1049 532 1028 c 1,15,-1
 344 1028 l 1,16,-1
 418 1444 l 1,17,-1
 879 1444 l 1,18,-1
 879 1292 l 1,19,-1
 569 1292 l 1,20,-1
 547 1174 l 1,21,-1
 555 1174 l 1,22,23
 596 1217 596 1217 684 1217 c 0,24,25
 776 1217 776 1217 838.5 1152 c 128,-1,26
 901 1087 901 1087 901 993 c 0,27,28
 901 882 901 882 819 809.5 c 128,-1,29
 737 737 737 737 610 737 c 0,30,0
 494 737 494 737 414 794.5 c 128,-1,1
EndSplineSet
Substitution2: "Single Substitution lookup 34 subtable" five.dnom
Substitution2: "'aalt' Access All Alternates in Latin lookup 0 subtable" five.dnom
EndChar

StartChar: six.numr
Encoding: 65627 -1 525
Width: 1228
GlyphClass: 1
Flags: W
LayerCount: 2
Fore
SplineSet
402.5 832.5 m 128,-1,1
 322 928 322 928 322 1087 c 0,2,3
 322 1261 322 1261 404.5 1360.5 c 128,-1,4
 487 1460 487 1460 635 1460 c 0,5,6
 737 1460 737 1460 813 1408 c 128,-1,7
 889 1356 889 1356 903 1276 c 1,8,-1
 707 1276 l 1,9,10
 687 1311 687 1311 633 1311 c 0,11,12
 578 1311 578 1311 548 1270 c 128,-1,13
 518 1229 518 1229 518 1151 c 1,14,-1
 526 1151 l 1,15,16
 546 1182 546 1182 585.5 1199.5 c 128,-1,17
 625 1217 625 1217 672 1217 c 0,18,19
 774 1217 774 1217 840.5 1152 c 128,-1,20
 907 1087 907 1087 907 989 c 0,21,22
 907 878 907 878 828.5 807.5 c 128,-1,23
 750 737 750 737 625 737 c 0,24,0
 483 737 483 737 402.5 832.5 c 128,-1,1
686.5 916.5 m 128,-1,26
 711 942 711 942 711 983 c 0,27,28
 711 1022 711 1022 686.5 1046.5 c 128,-1,29
 662 1071 662 1071 623 1071 c 0,30,31
 582 1071 582 1071 557 1046.5 c 128,-1,32
 532 1022 532 1022 532 983 c 0,33,34
 532 942 532 942 557 916.5 c 128,-1,35
 582 891 582 891 623 891 c 0,36,25
 662 891 662 891 686.5 916.5 c 128,-1,26
EndSplineSet
Substitution2: "Single Substitution lookup 34 subtable" six.dnom
Substitution2: "'aalt' Access All Alternates in Latin lookup 0 subtable" six.dnom
EndChar

StartChar: seven.numr
Encoding: 65628 -1 526
Width: 1228
GlyphClass: 1
Flags: W
LayerCount: 2
Fore
SplineSet
522.5 1053.5 m 128,-1,1
 588 1194 588 1194 711 1284 c 1,2,-1
 711 1292 l 1,3,-1
 324 1292 l 1,4,-1
 324 1444 l 1,5,-1
 905 1444 l 1,6,-1
 905 1268 l 1,7,8
 792 1186 792 1186 730 1049.5 c 128,-1,9
 668 913 668 913 668 752 c 1,10,-1
 457 752 l 1,11,0
 457 913 457 913 522.5 1053.5 c 128,-1,1
EndSplineSet
Substitution2: "Single Substitution lookup 34 subtable" seven.dnom
Substitution2: "'aalt' Access All Alternates in Latin lookup 0 subtable" seven.dnom
EndChar

